<?xml version="1.0" standalone="no"?>
<!DOCTYPE svg PUBLIC "-//W3C//DTD SVG 20010904//EN"
 "http://www.w3.org/TR/2001/REC-SVG-20010904/DTD/svg10.dtd">
<svg version="1.0" xmlns="http://www.w3.org/2000/svg"
 width="1000.000000pt" height="1080.000000pt" viewBox="0 0 1000.000000 1080.000000"
 preserveAspectRatio="xMidYMid meet">

<g transform="translate(0.000000,1080.000000) scale(0.100000,-0.100000)"
fill="#000000" stroke="none">
<path d="M3669 10033 c-30 -20 -178 -124 -329 -232 -151 -107 -327 -231 -390
-276 -63 -45 -241 -171 -395 -280 -154 -109 -401 -285 -550 -390 -1112 -786
-1470 -1043 -1483 -1063 -8 -13 -17 -44 -19 -70 -4 -38 0 -54 19 -82 46 -69
54 -70 426 -70 l332 0 0 -2619 0 -2619 -197 -4 c-186 -3 -200 -4 -229 -25 -61
-44 -64 -60 -64 -380 0 -270 1 -290 20 -321 11 -18 34 -41 52 -52 33 -20 60
-20 4283 -20 4223 0 4250 0 4283 20 18 11 41 34 52 52 19 31 20 51 20 321 0
319 -3 336 -61 378 -30 21 -47 24 -141 28 l-108 3 -2 1618 c-3 1617 -3 1619
-24 1646 -11 15 -33 37 -48 48 -27 21 -31 21 -1447 24 l-1419 2 0 950 0 950
336 0 c366 0 384 2 419 57 62 94 35 160 -105 258 -62 44 -1686 1194 -2504
1774 -296 210 -552 389 -567 397 -50 25 -101 18 -160 -23z m839 -806 c405
-287 1004 -711 1330 -942 l592 -420 -140 -3 -141 -3 -372 252 c-205 139 -466
316 -582 394 -115 78 -469 317 -785 530 -541 366 -578 389 -626 393 l-50 4
-790 -528 c-434 -290 -962 -644 -1173 -786 l-384 -258 -145 0 -144 0 738 523
c407 288 1007 713 1334 945 327 232 596 422 598 422 1 0 334 -235 740 -523z
m-327 -384 c400 -271 633 -429 1357 -916 l432 -292 0 -2652 0 -2653 -2200 0
-2200 0 0 2654 0 2654 767 513 c422 283 916 614 1098 736 181 122 337 221 346
219 8 -2 188 -120 400 -263z m4719 -4988 l0 -1525 -200 0 -200 0 -2 1318 c-3
1240 -4 1319 -21 1345 -9 15 -29 35 -44 44 -25 17 -97 18 -1103 23 l-1075 5
-3 158 -3 157 1326 0 1325 0 0 -1525z m-690 -300 l0 -1225 -980 0 -980 0 0
1218 c0 670 3 1222 7 1225 3 4 444 7 980 7 l973 0 0 -1225z m1000 -1625 l0
-110 -4065 0 -4065 0 0 110 0 110 4065 0 4065 0 0 -110z"/>
<path d="M3115 8230 c-330 -225 -609 -421 -620 -435 -14 -19 -20 -42 -20 -80
0 -62 22 -100 76 -127 32 -17 111 -18 1219 -18 1165 0 1186 0 1218 20 70 43
93 136 50 200 -20 29 -347 257 -1096 766 -193 131 -108 165 -827 -326z m1000
-140 l328 -225 -336 -3 c-184 -1 -489 -1 -677 0 l-341 3 338 231 c186 127 343
228 349 225 6 -3 158 -107 339 -231z"/>
<path d="M2010 7131 c-19 -10 -44 -34 -55 -52 -20 -33 -20 -52 -20 -881 0
-839 0 -847 21 -874 11 -15 33 -37 48 -48 27 -21 36 -21 686 -21 650 0 659 0
686 21 15 11 37 33 48 48 21 27 21 35 21 874 0 829 0 848 -20 881 -11 18 -36
42 -55 52 -33 18 -70 19 -680 19 -610 0 -647 -1 -680 -19z m540 -526 l0 -255
-165 0 -165 0 0 255 0 255 165 0 165 0 0 -255z m610 0 l0 -255 -165 0 -165 0
0 255 0 255 165 0 165 0 0 -255z m-612 -802 l-3 -258 -162 -3 -163 -2 0 260 0
260 165 0 165 0 -2 -257z m612 -3 l0 -260 -162 2 -163 3 -3 258 -2 257 165 0
165 0 0 -260z"/>
<path d="M4170 7132 c-19 -9 -45 -32 -57 -51 l-23 -34 0 -841 c0 -802 1 -843
19 -876 10 -19 34 -44 52 -55 33 -19 52 -20 684 -20 632 0 651 1 684 20 18 11
42 36 52 55 18 33 19 74 19 876 l0 841 -23 34 c-48 72 -19 69 -732 69 -589 0
-643 -1 -675 -18z m530 -527 l0 -255 -160 0 -160 0 0 255 0 255 160 0 160 0 0
-255z m610 0 l0 -255 -160 0 -160 0 0 255 0 255 160 0 160 0 0 -255z m-610
-805 l0 -260 -160 0 -160 0 0 260 0 260 160 0 160 0 0 -260z m610 0 l0 -260
-160 0 -160 0 0 260 0 260 160 0 160 0 0 -260z"/>
<path d="M2002 4690 c-19 -12 -41 -38 -52 -63 -19 -40 -20 -75 -20 -862 0
-787 1 -822 20 -862 11 -25 33 -51 52 -63 32 -19 49 -20 688 -20 639 0 656 1
688 20 19 12 41 38 52 63 19 40 20 75 20 862 0 787 -1 822 -20 862 -11 25 -33
51 -52 63 -32 19 -49 20 -688 20 -639 0 -656 -1 -688 -20z m548 -525 l0 -255
-165 0 -165 0 0 255 0 255 165 0 165 0 0 -255z m610 0 l0 -255 -165 0 -165 0
0 255 0 255 165 0 165 0 0 -255z m-612 -801 l-3 -256 -160 1 -160 0 -3 256 -2
255 165 0 165 0 -2 -256z m612 1 c0 -140 -3 -255 -7 -255 -5 0 -78 -1 -163 -1
l-155 -1 -3 256 -2 256 165 0 165 0 0 -255z"/>
<path d="M4174 4700 c-26 -10 -72 -65 -79 -93 -3 -12 -4 -401 -3 -864 l3 -843
38 -37 37 -38 675 0 675 0 37 38 38 37 3 853 c2 836 2 853 -18 885 -11 18 -34
41 -52 52 -32 19 -51 20 -683 19 -357 0 -659 -4 -671 -9z m526 -535 l0 -255
-160 0 -160 0 0 255 0 255 160 0 160 0 0 -255z m610 0 l0 -255 -160 0 -160 0
0 255 0 255 160 0 160 0 0 -255z m-610 -800 c0 -236 -1 -255 -17 -256 -10 0
-82 -1 -160 -2 l-143 -2 0 258 0 257 160 0 160 0 0 -255z m610 -2 l0 -258
-147 2 c-82 2 -154 3 -160 3 -10 0 -13 58 -13 255 l0 255 160 0 160 0 0 -257z"/>
</g>
</svg>
