<?xml version="1.0" standalone="no"?>
<!DOCTYPE svg PUBLIC "-//W3C//DTD SVG 20010904//EN"
 "http://www.w3.org/TR/2001/REC-SVG-20010904/DTD/svg10.dtd">
<svg version="1.0" xmlns="http://www.w3.org/2000/svg"
 width="1000.000000pt" height="1080.000000pt" viewBox="0 0 1000.000000 1080.000000"
 preserveAspectRatio="xMidYMid meet">

<g transform="translate(0.000000,1080.000000) scale(0.100000,-0.100000)"
fill="#000000" stroke="none">
<path d="M4950 10293 c-8 -3 -103 -57 -210 -118 -107 -62 -1025 -588 -2040
-1170 -1015 -581 -1857 -1069 -1873 -1083 -74 -69 -51 -203 40 -241 19 -8 168
-12 478 -14 l450 -2 3 -2762 2 -2763 -179 0 c-168 0 -180 -1 -211 -22 -18 -13
-43 -36 -54 -51 -20 -27 -21 -42 -24 -320 -2 -201 0 -305 8 -334 13 -46 50
-86 93 -102 20 -8 1090 -11 3565 -11 3466 0 3538 1 3579 20 25 11 51 33 63 52
19 31 20 50 20 348 0 297 -1 317 -20 348 -40 65 -64 72 -263 72 l-177 0 2
2763 3 2762 450 2 c310 2 459 6 478 14 91 38 114 172 40 241 -16 14 -858 502
-1873 1083 -1015 582 -1935 1110 -2045 1173 -160 92 -209 116 -245 118 -25 2
-52 1 -60 -3z m706 -695 c357 -204 771 -442 920 -527 149 -86 640 -367 1091
-626 l820 -470 -200 -3 -199 -2 -127 68 c-69 37 -751 410 -1516 827 -1283 701
-1393 760 -1435 759 -40 -1 -184 -77 -1225 -641 -649 -352 -1335 -724 -1524
-827 l-345 -186 -201 2 -202 3 456 261 c1298 744 1871 1073 2416 1387 330 190
605 346 611 346 7 1 304 -166 660 -371z m315 -819 c525 -287 1173 -641 1442
-787 l487 -267 -2 -1000 -3 -1000 -2895 0 -2895 0 -3 1000 -2 1000 1452 787
c799 433 1456 788 1459 788 4 0 436 -234 960 -521z m1927 -3561 l-3 -203 -255
-3 -255 -3 -55 31 c-232 130 -451 158 -677 89 -70 -22 -168 -68 -214 -100 -26
-18 -77 -19 -1440 -19 l-1414 0 -45 30 c-59 40 -172 86 -257 106 -82 20 -255
22 -338 4 -83 -17 -201 -64 -260 -102 l-50 -33 -265 0 -265 0 -3 203 -2 202
2900 0 2900 0 -2 -202z m-4669 -373 c166 -40 308 -170 363 -335 20 -60 22 -90
26 -367 l4 -303 -516 0 -516 0 0 263 c0 301 8 364 55 465 104 220 343 333 584
277z m3786 0 c33 -9 85 -28 115 -42 67 -32 175 -138 212 -209 52 -98 58 -142
58 -461 l0 -293 -510 0 -510 0 0 288 c0 319 5 358 63 466 107 201 350 308 572
251z m-4650 -152 c-28 -67 -55 -158 -64 -213 -6 -37 -11 -228 -11 -445 0 -424
0 -426 69 -472 l34 -23 712 0 712 0 34 23 c69 46 69 47 69 480 0 446 -4 481
-75 650 -7 16 52 17 1153 17 l1161 0 -25 -61 c-51 -125 -55 -171 -52 -617 l3
-412 38 -37 37 -38 723 -3 c710 -2 723 -2 755 18 19 12 41 38 52 63 18 39 20
68 20 392 0 428 -9 507 -75 678 -7 16 3 17 129 17 l136 0 0 -1285 0 -1285
-1035 0 -1035 0 0 1031 c0 1141 4 1074 -64 1122 l-31 22 -730 3 c-715 2 -731
2 -763 -18 -18 -11 -41 -34 -52 -52 -20 -32 -20 -53 -20 -1070 l0 -1038 -1035
0 -1035 0 0 1285 0 1285 136 0 c126 0 136 -1 129 -17z m3165 -1613 l0 -940
-530 0 -530 0 0 940 0 940 530 0 530 0 0 -940z m2830 -1360 l0 -120 -3360 0
-3360 0 0 120 0 120 3360 0 3360 0 0 -120z"/>
<path d="M3477 7979 c-321 -44 -591 -284 -678 -604 -20 -72 -23 -110 -27 -397
l-4 -318 -49 0 c-130 0 -208 -100 -163 -208 12 -29 33 -55 53 -69 l34 -23 954
2 953 3 37 37 c32 33 37 44 41 95 3 49 0 64 -20 93 -32 48 -80 70 -150 70
l-58 0 0 308 c0 351 -9 411 -80 559 -151 312 -501 499 -843 452z m233 -310
c180 -41 346 -215 380 -398 6 -29 10 -179 10 -332 l0 -279 -510 0 -510 0 0
299 c0 270 2 305 20 363 48 157 179 288 338 339 65 20 201 25 272 8z"/>
<path d="M6300 7979 c-321 -41 -594 -283 -682 -605 -19 -71 -21 -112 -26 -396
l-4 -318 -49 0 c-130 0 -208 -100 -163 -208 12 -29 33 -55 53 -69 l34 -23 945
0 946 0 32 22 c89 61 89 186 1 252 -20 15 -47 21 -97 24 l-69 4 -3 332 c-4
366 -7 384 -74 526 -117 249 -357 422 -637 460 -87 11 -113 11 -207 -1z m239
-314 c179 -47 319 -189 366 -372 12 -44 15 -122 15 -345 l0 -288 -510 0 -510
0 0 293 c0 319 6 363 58 461 34 66 143 174 208 208 28 15 75 34 105 42 70 19
200 20 268 1z"/>
</g>
</svg>
