<?xml version="1.0" encoding="UTF-8"?>
<!DOCTYPE svg PUBLIC "-//W3C//DTD SVG 1.1//EN" "http://www.w3.org/Graphics/SVG/1.1/DTD/svg11.dtd">
<svg xmlns="http://www.w3.org/2000/svg" version="1.1" width="1000px" height="1080px" style="shape-rendering:geometricPrecision; text-rendering:geometricPrecision; image-rendering:optimizeQuality; fill-rule:evenodd; clip-rule:evenodd" xmlns:xlink="http://www.w3.org/1999/xlink">
<g><path style="opacity:0.988" fill="#020202" d="M 216.5,268.5 C 215.854,281.212 216.52,293.545 218.5,305.5C 219.167,305.5 219.833,305.5 220.5,305.5C 220.611,306.117 220.944,306.617 221.5,307C 224.146,307.497 226.813,307.664 229.5,307.5C 234.63,308.913 239.963,309.913 245.5,310.5C 248.589,311.785 251.922,312.451 255.5,312.5C 263.453,313.827 271.453,314.827 279.5,315.5C 281.78,317.223 284.447,317.889 287.5,317.5C 288.167,317.5 288.833,317.5 289.5,317.5C 292.627,318.581 295.96,319.247 299.5,319.5C 305.142,320.354 310.809,321.02 316.5,321.5C 318.438,323.163 320.772,323.829 323.5,323.5C 324.167,323.5 324.833,323.5 325.5,323.5C 328.974,324.525 332.64,325.192 336.5,325.5C 344.175,326.427 351.841,327.427 359.5,328.5C 364.562,330.221 369.895,331.221 375.5,331.5C 380.436,332.538 385.436,333.205 390.5,333.5C 390.918,334.222 391.584,334.722 392.5,335C 396.17,335.548 399.837,336.048 403.5,336.5C 409.153,337.275 414.82,337.942 420.5,338.5C 420.918,339.222 421.584,339.722 422.5,340C 428.85,340.788 435.183,341.621 441.5,342.5C 446.463,343.426 451.463,344.092 456.5,344.5C 458.838,346.04 461.505,346.706 464.5,346.5C 465.833,346.5 467.167,346.5 468.5,346.5C 472.919,347.972 477.586,348.638 482.5,348.5C 487.656,349.782 492.989,350.782 498.5,351.5C 503.959,352.951 509.626,353.951 515.5,354.5C 523.128,355.78 530.794,356.78 538.5,357.5C 542.226,359.13 546.226,360.13 550.5,360.5C 558.881,361.135 567.215,362.135 575.5,363.5C 578.273,364.657 581.273,365.324 584.5,365.5C 589.477,366.327 594.477,366.994 599.5,367.5C 599.918,368.222 600.584,368.722 601.5,369C 607.504,369.882 613.504,370.715 619.5,371.5C 624.833,372.167 630.167,372.833 635.5,373.5C 642.551,375.639 649.884,376.972 657.5,377.5C 661.328,378.498 664.994,378.498 668.5,377.5C 669.167,377.5 669.833,377.5 670.5,377.5C 672.09,379.821 674.423,380.821 677.5,380.5C 680.627,381.581 683.96,382.247 687.5,382.5C 694.833,383.5 702.167,384.5 709.5,385.5C 716.614,387.313 723.947,388.647 731.5,389.5C 738.167,390.5 744.833,391.5 751.5,392.5C 754.627,393.581 757.96,394.247 761.5,394.5C 767.116,395.54 772.783,396.207 778.5,396.5C 778.918,397.222 779.584,397.722 780.5,398C 784.17,398.548 787.837,399.048 791.5,399.5C 798.222,400.341 804.889,401.508 811.5,403C 815.408,405.406 818.408,408.572 820.5,412.5C 820.817,440.877 820.483,469.211 819.5,497.5C 817.856,502.478 814.522,505.811 809.5,507.5C 803.131,507.653 796.797,507.32 790.5,506.5C 781.115,505.445 771.782,504.112 762.5,502.5C 761.081,501.549 759.415,501.216 757.5,501.5C 757.167,627.334 757.5,753.001 758.5,878.5C 774.167,878.5 789.833,878.5 805.5,878.5C 818.544,881.581 823.044,889.581 819,902.5C 816.883,907.15 813.383,910.317 808.5,912C 600.167,912.5 391.834,912.667 183.5,912.5C 183.167,693.499 183.5,474.499 184.5,255.5C 186.171,257.51 186.838,259.843 186.5,262.5C 195.686,264.895 204.686,267.895 213.5,271.5C 214.167,270.167 214.833,268.833 215.5,267.5C 216.107,267.624 216.44,267.957 216.5,268.5 Z M 251.5,347.5 C 252.5,347.5 253.5,347.5 254.5,347.5C 254.414,348.496 254.748,349.329 255.5,350C 259.486,350.499 263.486,350.666 267.5,350.5C 268.167,350.5 268.833,350.5 269.5,350.5C 273.084,352.118 277.084,353.118 281.5,353.5C 286.792,354.495 292.125,354.828 297.5,354.5C 297.833,354.5 298.167,354.5 298.5,354.5C 298.5,355.5 298.5,356.5 298.5,357.5C 307.849,357.991 317.182,358.658 326.5,359.5C 326.833,359.5 327.167,359.5 327.5,359.5C 327.414,360.496 327.748,361.329 328.5,362C 338.138,363.252 347.805,364.085 357.5,364.5C 358.167,364.5 358.833,364.5 359.5,364.5C 359.577,365.75 360.244,366.583 361.5,367C 365.152,367.499 368.818,367.665 372.5,367.5C 372.833,367.5 373.167,367.5 373.5,367.5C 373.611,368.117 373.944,368.617 374.5,369C 378.152,369.499 381.818,369.665 385.5,369.5C 386.5,369.5 387.5,369.5 388.5,369.5C 392.373,371.43 396.706,372.097 401.5,371.5C 402.167,371.5 402.833,371.5 403.5,371.5C 402.402,372.397 402.402,373.23 403.5,374C 412.488,375.07 421.488,375.904 430.5,376.5C 431.167,376.5 431.833,376.5 432.5,376.5C 432.414,377.496 432.748,378.329 433.5,379C 442.488,380.07 451.488,380.904 460.5,381.5C 460.833,381.5 461.167,381.5 461.5,381.5C 465.727,383.28 470.394,384.114 475.5,384C 475.957,384.414 476.291,384.914 476.5,385.5C 481.456,386.494 486.456,386.827 491.5,386.5C 492.167,386.5 492.833,386.5 493.5,386.5C 497.084,388.118 501.084,389.118 505.5,389.5C 505.709,390.086 506.043,390.586 506.5,391C 516.17,391.918 525.837,392.751 535.5,393.5C 536.167,393.5 536.833,393.5 537.5,393.5C 536.047,394.825 536.381,395.658 538.5,396C 552.791,398.006 567.125,399.506 581.5,400.5C 582.167,400.833 582.833,401.167 583.5,401.5C 587.084,403.118 591.084,404.118 595.5,404.5C 600.792,405.495 606.125,405.828 611.5,405.5C 611.833,405.5 612.167,405.5 612.5,405.5C 612.5,406.5 612.5,407.5 612.5,408.5C 616.5,408.5 620.5,408.5 624.5,408.5C 625.609,408.557 626.609,408.89 627.5,409.5C 631.298,410.483 635.298,410.817 639.5,410.5C 640.167,410.5 640.833,410.5 641.5,410.5C 641.97,411.693 642.97,412.36 644.5,412.5C 657.415,414.917 670.415,416.583 683.5,417.5C 684.167,417.5 684.833,417.5 685.5,417.5C 685.414,418.496 685.748,419.329 686.5,420C 695.488,421.07 704.488,421.904 713.5,422.5C 713.833,422.5 714.167,422.5 714.5,422.5C 714.414,423.496 714.748,424.329 715.5,425C 719.821,425.499 724.154,425.666 728.5,425.5C 729.959,425.433 731.292,425.766 732.5,426.5C 735.962,427.482 739.629,427.815 743.5,427.5C 744.5,427.5 745.5,427.5 746.5,427.5C 750.762,429.128 755.429,430.128 760.5,430.5C 760.709,431.086 761.043,431.586 761.5,432C 768.668,432.191 775.668,433.357 782.5,435.5C 782.855,436.522 783.522,437.189 784.5,437.5C 784.5,447.167 784.5,456.833 784.5,466.5C 782.527,467.163 780.361,467.496 778,467.5C 770.846,466.413 763.679,465.413 756.5,464.5C 756.291,463.914 755.957,463.414 755.5,463C 745.862,461.748 736.195,460.915 726.5,460.5C 725.833,460.5 725.167,460.5 724.5,460.5C 725.598,459.603 725.598,458.77 724.5,458C 720.848,457.501 717.182,457.335 713.5,457.5C 712.5,457.5 711.5,457.5 710.5,457.5C 706.627,455.57 702.294,454.903 697.5,455.5C 696.833,455.5 696.167,455.5 695.5,455.5C 695.423,454.25 694.756,453.417 693.5,453C 689.577,452.207 685.744,452.374 682,453.5C 681.626,452.584 681.126,451.75 680.5,451C 670.535,449.671 660.535,448.837 650.5,448.5C 650.167,448.5 649.833,448.5 649.5,448.5C 649.586,447.504 649.252,446.671 648.5,446C 639.512,444.93 630.512,444.096 621.5,443.5C 620.833,443.5 620.5,443.167 620.5,442.5C 620.389,441.883 620.056,441.383 619.5,441C 610.512,439.93 601.512,439.096 592.5,438.5C 591.833,438.5 591.167,438.5 590.5,438.5C 590.611,437.883 590.944,437.383 591.5,437C 586.845,436.501 582.179,436.334 577.5,436.5C 577.167,436.5 576.833,436.5 576.5,436.5C 576.5,435.5 576.5,434.5 576.5,433.5C 572.167,433.5 567.833,433.5 563.5,433.5C 562.508,433.672 561.842,433.338 561.5,432.5C 557.366,431.515 553.032,431.182 548.5,431.5C 548.167,431.5 547.833,431.5 547.5,431.5C 547.586,430.504 547.252,429.671 546.5,429C 536.862,427.748 527.195,426.915 517.5,426.5C 516.833,426.5 516.167,426.5 515.5,426.5C 515.586,425.504 515.252,424.671 514.5,424C 510.514,423.501 506.514,423.334 502.5,423.5C 501.833,423.5 501.167,423.5 500.5,423.5C 496.916,421.882 492.916,420.882 488.5,420.5C 483.208,419.505 477.875,419.172 472.5,419.5C 472.167,419.5 471.833,419.5 471.5,419.5C 471.5,418.5 471.5,417.5 471.5,416.5C 462.167,415.833 452.833,415.167 443.5,414.5C 442.833,414.5 442.5,414.167 442.5,413.5C 442.389,412.883 442.056,412.383 441.5,412C 431.862,410.748 422.195,409.915 412.5,409.5C 411.833,409.5 411.167,409.5 410.5,409.5C 410.423,408.25 409.756,407.417 408.5,407C 405.183,406.502 401.85,406.335 398.5,406.5C 397.833,406.833 397.167,407.167 396.5,407.5C 396.586,406.504 396.252,405.671 395.5,405C 392.183,404.502 388.85,404.335 385.5,404.5C 384.167,404.5 382.833,404.5 381.5,404.5C 381.611,403.883 381.944,403.383 382.5,403C 377.845,402.501 373.179,402.334 368.5,402.5C 367.833,402.5 367.5,402.167 367.5,401.5C 367.389,400.883 367.056,400.383 366.5,400C 357.512,398.93 348.512,398.096 339.5,397.5C 338.833,397.5 338.167,397.5 337.5,397.5C 338.598,396.603 338.598,395.77 337.5,395C 333.179,394.501 328.846,394.334 324.5,394.5C 323.833,394.167 323.167,393.833 322.5,393.5C 318.702,392.517 314.702,392.183 310.5,392.5C 309.833,392.5 309.167,392.5 308.5,392.5C 304.238,390.872 299.571,389.872 294.5,389.5C 294.291,388.914 293.957,388.414 293.5,388C 284.187,386.836 274.854,386.002 265.5,385.5C 265.167,385.5 264.833,385.5 264.5,385.5C 265.598,384.603 265.598,383.77 264.5,383C 259.845,382.501 255.179,382.334 250.5,382.5C 249.5,382.5 248.5,382.5 247.5,382.5C 243.627,380.57 239.294,379.903 234.5,380.5C 233.833,380.5 233.167,380.5 232.5,380.5C 233.598,379.603 233.598,378.77 232.5,378C 228.267,377.838 224.267,376.838 220.5,375C 220.833,374.667 221.167,374.333 221.5,374C 220.552,373.517 219.552,373.351 218.5,373.5C 218.5,365.5 218.5,357.5 218.5,349.5C 219.552,349.649 220.552,349.483 221.5,349C 221.167,348.667 220.833,348.333 220.5,348C 223.629,346.478 226.963,345.645 230.5,345.5C 237.445,346.826 244.445,347.493 251.5,347.5 Z M 232.5,417.5 C 233.5,417.5 234.5,417.5 235.5,417.5C 235.5,418.5 235.5,419.5 235.5,420.5C 245.338,420.415 254.338,421.082 262.5,422.5C 263.833,422.5 265.167,422.5 266.5,422.5C 266.414,423.496 266.748,424.329 267.5,425C 270.817,425.498 274.15,425.665 277.5,425.5C 278.167,425.5 278.833,425.5 279.5,425.5C 283.373,427.43 287.706,428.097 292.5,427.5C 292.833,427.5 293.167,427.5 293.5,427.5C 297.715,429.436 302.381,430.103 307.5,429.5C 308.5,429.5 309.5,429.5 310.5,429.5C 310.5,430.5 310.5,431.5 310.5,432.5C 314.833,432.5 319.167,432.5 323.5,432.5C 324.167,432.5 324.833,432.5 325.5,432.5C 329.373,434.43 333.706,435.097 338.5,434.5C 338.833,434.5 339.167,434.5 339.5,434.5C 339.414,435.496 339.748,436.329 340.5,437C 349.451,438.427 358.451,439.26 367.5,439.5C 368.167,439.5 368.833,439.5 369.5,439.5C 369.414,440.496 369.748,441.329 370.5,442C 379.709,443.478 389.042,444.478 398.5,445C 398.167,445.333 397.833,445.667 397.5,446C 402.489,446.499 407.489,446.666 412.5,446.5C 412.5,447.5 412.5,448.5 412.5,449.5C 422.519,450.002 432.519,450.835 442.5,452C 441.366,453.016 441.699,453.683 443.5,454C 448.155,454.499 452.821,454.666 457.5,454.5C 458.167,454.5 458.833,454.5 459.5,454.5C 463.084,456.118 467.084,457.118 471.5,457.5C 476.456,458.494 481.456,458.827 486.5,458.5C 487.167,458.5 487.833,458.5 488.5,458.5C 488.5,459.5 488.5,460.5 488.5,461.5C 492.5,461.5 496.5,461.5 500.5,461.5C 501.609,461.557 502.609,461.89 503.5,462.5C 508.305,463.487 513.305,463.821 518.5,463.5C 519.167,463.5 519.5,463.833 519.5,464.5C 519.611,465.117 519.944,465.617 520.5,466C 524.152,466.499 527.818,466.665 531.5,466.5C 532.5,466.5 533.5,466.5 534.5,466.5C 537.684,468.414 541.351,469.08 545.5,468.5C 545.833,468.5 546.167,468.5 546.5,468.5C 546.414,469.496 546.748,470.329 547.5,471C 551.486,471.499 555.486,471.666 559.5,471.5C 561.292,471.366 562.958,471.699 564.5,472.5C 568.298,473.483 572.298,473.817 576.5,473.5C 577.167,473.5 577.833,473.5 578.5,473.5C 582.029,475.423 586.029,476.089 590.5,475.5C 591.492,475.328 592.158,475.662 592.5,476.5C 592.611,477.117 592.944,477.617 593.5,478C 597.486,478.499 601.486,478.666 605.5,478.5C 606.167,478.5 606.833,478.5 607.5,478.5C 611.373,480.43 615.706,481.097 620.5,480.5C 621.167,480.5 621.833,480.5 622.5,480.5C 621.402,481.397 621.402,482.23 622.5,483C 627.167,483.333 631.833,483.667 636.5,484C 646.64,485.777 656.64,487.777 666.5,490C 670.821,490.499 675.154,490.666 679.5,490.5C 680.833,490.5 682.167,490.5 683.5,490.5C 684.167,490.5 684.833,490.5 685.5,490.5C 685.5,490.833 685.5,491.167 685.5,491.5C 688.962,492.482 692.629,492.815 696.5,492.5C 696.833,492.5 697.167,492.5 697.5,492.5C 697.5,493.5 697.5,494.5 697.5,495.5C 705.5,496.167 713.5,496.833 721.5,497.5C 721.5,563.833 721.5,630.167 721.5,696.5C 721.5,696.833 721.5,697.167 721.5,697.5C 710.5,697.5 699.5,697.5 688.5,697.5C 688.833,651.495 688.5,605.495 687.5,559.5C 681.444,553.6 674.11,551.267 665.5,552.5C 664.833,552.5 664.167,552.5 663.5,552.5C 664.598,551.603 664.598,550.77 663.5,550C 659.848,549.501 656.182,549.335 652.5,549.5C 651.209,549.737 650.209,549.404 649.5,548.5C 645.03,547.514 640.363,547.181 635.5,547.5C 634.5,547.5 633.5,547.5 632.5,547.5C 632.586,546.504 632.252,545.671 631.5,545C 627.514,544.501 623.514,544.334 619.5,544.5C 618.833,544.5 618.167,544.5 617.5,544.5C 613.971,542.577 609.971,541.911 605.5,542.5C 604.508,542.672 603.842,542.338 603.5,541.5C 598.695,540.513 593.695,540.179 588.5,540.5C 588.5,539.5 588.5,538.5 588.5,537.5C 578.475,537.144 568.475,536.477 558.5,535.5C 557.833,535.5 557.167,535.5 556.5,535.5C 557.598,534.603 557.598,533.77 556.5,533C 541.54,530.994 526.54,529.494 511.5,528.5C 511.167,528.5 510.833,528.5 510.5,528.5C 510.5,527.5 510.5,526.5 510.5,525.5C 503.833,525.5 497.167,525.5 490.5,525.5C 490.5,526.5 490.5,527.5 490.5,528.5C 488.179,528.229 486.179,528.896 484.5,530.5C 483.516,533.428 483.183,536.428 483.5,539.5C 483.5,592.167 483.5,644.833 483.5,697.5C 475.5,697.5 467.5,697.5 459.5,697.5C 459.833,640.163 459.5,582.829 458.5,525.5C 457.756,524.009 457.09,522.509 456.5,521C 453.787,519.334 451.121,517.667 448.5,516C 444.848,515.501 441.182,515.335 437.5,515.5C 436.391,515.443 435.391,515.11 434.5,514.5C 430.702,513.517 426.702,513.183 422.5,513.5C 421.833,513.5 421.167,513.5 420.5,513.5C 416.627,511.57 412.294,510.903 407.5,511.5C 406.833,511.5 406.5,511.167 406.5,510.5C 406.389,509.883 406.056,509.383 405.5,509C 396.512,507.93 387.512,507.096 378.5,506.5C 377.833,506.5 377.167,506.5 376.5,506.5C 377.598,505.603 377.598,504.77 376.5,504C 366.802,503.141 357.136,501.974 347.5,500.5C 347.291,499.914 346.957,499.414 346.5,499C 331.977,497 317.311,495.5 302.5,494.5C 302.167,494.5 301.833,494.5 301.5,494.5C 301.5,493.5 301.5,492.5 301.5,491.5C 296.833,491.5 292.167,491.5 287.5,491.5C 287.167,491.5 286.833,491.5 286.5,491.5C 282.627,489.57 278.294,488.903 273.5,489.5C 271.833,489.5 270.167,489.5 268.5,489.5C 265.428,489.183 262.428,489.516 259.5,490.5C 256.429,492.999 254.096,495.999 252.5,499.5C 251.171,565.568 251.171,631.568 252.5,697.5C 241.167,697.5 229.833,697.5 218.5,697.5C 218.5,604.167 218.5,510.833 218.5,417.5C 223.167,417.5 227.833,417.5 232.5,417.5 Z M 301.5,531.5 C 302.833,531.5 304.167,531.5 305.5,531.5C 305.577,532.75 306.244,533.583 307.5,534C 321.066,536.449 334.733,537.949 348.5,538.5C 349.791,538.263 350.791,538.596 351.5,539.5C 351.611,540.117 351.944,540.617 352.5,541C 355.817,541.498 359.15,541.665 362.5,541.5C 363.167,541.5 363.833,541.5 364.5,541.5C 368.373,543.43 372.706,544.097 377.5,543.5C 377.833,543.5 378.167,543.5 378.5,543.5C 378.414,544.496 378.748,545.329 379.5,546C 388.488,547.07 397.488,547.904 406.5,548.5C 407.167,548.5 407.833,548.5 408.5,548.5C 408.389,549.117 408.056,549.617 407.5,550C 412.351,550.174 417.018,550.674 421.5,551.5C 421.172,600.239 421.505,648.905 422.5,697.5C 378.997,697.832 335.663,697.499 292.5,696.5C 292.5,641.5 292.5,586.5 292.5,531.5C 295.5,531.5 298.5,531.5 301.5,531.5 Z M 525.5,567.5 C 526.167,567.5 526.833,567.5 527.5,567.5C 527.5,568.5 527.5,569.5 527.5,570.5C 531.833,570.5 536.167,570.5 540.5,570.5C 541.833,570.5 543.167,570.5 544.5,570.5C 548.373,572.43 552.706,573.097 557.5,572.5C 558.167,572.5 558.5,572.833 558.5,573.5C 558.611,574.117 558.944,574.617 559.5,575C 568.488,576.07 577.488,576.904 586.5,577.5C 587.167,577.5 587.833,577.5 588.5,577.5C 588.414,578.496 588.748,579.329 589.5,580C 594.155,580.499 598.821,580.666 603.5,580.5C 604.167,580.5 604.833,580.5 605.5,580.5C 609.373,582.43 613.706,583.097 618.5,582.5C 619.167,582.5 619.833,582.5 620.5,582.5C 620.389,583.117 620.056,583.617 619.5,584C 623.821,584.499 628.154,584.666 632.5,584.5C 633.167,584.5 633.833,584.5 634.5,584.5C 634.5,585.5 634.5,586.5 634.5,587.5C 639.5,587.5 644.5,587.5 649.5,587.5C 651.494,623.818 652.16,660.485 651.5,697.5C 607.833,697.5 564.167,697.5 520.5,697.5C 520.5,654.167 520.5,610.833 520.5,567.5C 522.167,567.5 523.833,567.5 525.5,567.5 Z M 218.5,734.5 C 386.167,734.5 553.833,734.5 721.5,734.5C 721.5,748.833 721.5,763.167 721.5,777.5C 553.833,777.5 386.167,777.5 218.5,777.5C 218.5,763.167 218.5,748.833 218.5,734.5 Z M 218.5,814.5 C 386.167,814.5 553.833,814.5 721.5,814.5C 721.5,835.167 721.5,855.833 721.5,876.5C 553.833,876.5 386.167,876.5 218.5,876.5C 218.5,855.833 218.5,835.167 218.5,814.5 Z"/></g>
<g><path style="opacity:0.14" fill="#d2d2d2" d="M 216.5,268.5 C 217.667,280.652 218.334,292.986 218.5,305.5C 216.52,293.545 215.854,281.212 216.5,268.5 Z"/></g>
<g><path style="opacity:0.163" fill="#e5e5e5" d="M 222.5,305.5 C 231.591,305.343 240.591,306.177 249.5,308C 250.056,308.383 250.389,308.883 250.5,309.5C 248.958,310.301 247.292,310.634 245.5,310.5C 239.963,309.913 234.63,308.913 229.5,307.5C 227.167,306.833 224.833,306.167 222.5,305.5 Z"/></g>
<g><path style="opacity:0.455" fill="#999999" d="M 220.5,305.5 C 221.167,305.5 221.833,305.5 222.5,305.5C 224.833,306.167 227.167,306.833 229.5,307.5C 226.813,307.664 224.146,307.497 221.5,307C 220.944,306.617 220.611,306.117 220.5,305.5 Z"/></g>
<g><path style="opacity:0.165" fill="#4c4c4c" d="M 250.5,309.5 C 250.5,310.167 250.833,310.5 251.5,310.5C 252.833,311.167 254.167,311.833 255.5,312.5C 251.922,312.451 248.589,311.785 245.5,310.5C 247.292,310.634 248.958,310.301 250.5,309.5 Z"/></g>
<g><path style="opacity:0.302" fill="#d7d7d7" d="M 251.5,310.5 C 256.844,310.334 262.177,310.501 267.5,311C 267.167,311.333 266.833,311.667 266.5,312C 271.933,311.882 276.933,312.715 281.5,314.5C 281.158,315.338 280.492,315.672 279.5,315.5C 271.453,314.827 263.453,313.827 255.5,312.5C 254.167,311.833 252.833,311.167 251.5,310.5 Z"/></g>
<g><path style="opacity:0.58" fill="#626262" d="M 281.5,314.5 C 282.167,314.833 282.833,315.167 283.5,315.5C 284.833,316.167 286.167,316.833 287.5,317.5C 284.447,317.889 281.78,317.223 279.5,315.5C 280.492,315.672 281.158,315.338 281.5,314.5 Z"/></g>
<g><path style="opacity:0.365" fill="#929292" d="M 289.5,317.5 C 292.187,317.336 294.854,317.503 297.5,318C 298.416,318.278 299.082,318.778 299.5,319.5C 295.96,319.247 292.627,318.581 289.5,317.5 Z"/></g>
<g><path style="opacity:0.08" fill="#e7e7e7" d="M 372.5,328.5 C 368.223,329.597 363.89,329.597 359.5,328.5C 351.841,327.427 344.175,326.427 336.5,325.5C 333.155,323.783 329.489,323.116 325.5,323.5C 324.833,323.5 324.167,323.5 323.5,323.5C 321.485,322.076 319.152,321.41 316.5,321.5C 310.809,321.02 305.142,320.354 299.5,319.5C 299.082,318.778 298.416,318.278 297.5,318C 294.854,317.503 292.187,317.336 289.5,317.5C 288.833,317.5 288.167,317.5 287.5,317.5C 286.167,316.833 284.833,316.167 283.5,315.5C 288.693,314.489 294.027,314.656 299.5,316C 299.167,316.333 298.833,316.667 298.5,317C 308.125,318.387 317.792,319.387 327.5,320C 327.957,320.414 328.291,320.914 328.5,321.5C 343.618,323.263 358.285,325.597 372.5,328.5 Z"/></g>
<g><path style="opacity:0.694" fill="#5e5e5e" d="M 316.5,321.5 C 319.152,321.41 321.485,322.076 323.5,323.5C 320.772,323.829 318.438,323.163 316.5,321.5 Z"/></g>
<g><path style="opacity:0.478" fill="#838383" d="M 325.5,323.5 C 329.489,323.116 333.155,323.783 336.5,325.5C 332.64,325.192 328.974,324.525 325.5,323.5 Z"/></g>
<g><path style="opacity:0.357" fill="#969696" d="M 359.5,328.5 C 363.89,329.597 368.223,329.597 372.5,328.5C 372.5,329.167 372.833,329.5 373.5,329.5C 374.167,330.167 374.833,330.833 375.5,331.5C 369.895,331.221 364.562,330.221 359.5,328.5 Z"/></g>
<g><path style="opacity:0.1" fill="#eeeeee" d="M 373.5,329.5 C 377.514,329.334 381.514,329.501 385.5,330C 389.985,331.274 394.652,331.941 399.5,332C 400.416,332.278 401.082,332.778 401.5,333.5C 397.896,334.521 394.229,334.521 390.5,333.5C 385.436,333.205 380.436,332.538 375.5,331.5C 374.833,330.833 374.167,330.167 373.5,329.5 Z"/></g>
<g><path style="opacity:0.541" fill="#6f6f6f" d="M 390.5,333.5 C 394.229,334.521 397.896,334.521 401.5,333.5C 401.5,334.167 401.833,334.5 402.5,334.5C 402.833,335.167 403.167,335.833 403.5,336.5C 399.837,336.048 396.17,335.548 392.5,335C 391.584,334.722 390.918,334.222 390.5,333.5 Z"/></g>
<g><path style="opacity:0.073" fill="#ededed" d="M 402.5,334.5 C 412.672,334.377 422.005,335.044 430.5,336.5C 430.5,337.5 430.5,338.5 430.5,339.5C 427.14,339.384 423.807,339.051 420.5,338.5C 414.82,337.942 409.153,337.275 403.5,336.5C 403.167,335.833 402.833,335.167 402.5,334.5 Z"/></g>
<g><path style="opacity:0.502" fill="#676767" d="M 420.5,338.5 C 423.807,339.051 427.14,339.384 430.5,339.5C 430.833,339.5 431.167,339.5 431.5,339.5C 434.931,340.135 438.264,341.135 441.5,342.5C 435.183,341.621 428.85,340.788 422.5,340C 421.584,339.722 420.918,339.222 420.5,338.5 Z"/></g>
<g><path style="opacity:0.235" fill="#f5f5f5" d="M 223.5,341.5 C 226.974,342.525 230.64,343.192 234.5,343.5C 239.5,344.167 244.5,344.833 249.5,345.5C 250.167,346.167 250.833,346.833 251.5,347.5C 244.445,347.493 237.445,346.826 230.5,345.5C 226.963,345.645 223.629,346.478 220.5,348C 220.833,348.333 221.167,348.667 221.5,349C 220.552,349.483 219.552,349.649 218.5,349.5C 218.5,357.5 218.5,365.5 218.5,373.5C 219.552,373.351 220.552,373.517 221.5,374C 221.167,374.333 220.833,374.667 220.5,375C 224.267,376.838 228.267,377.838 232.5,378C 233.598,378.77 233.598,379.603 232.5,380.5C 230.5,380.5 228.5,380.5 226.5,380.5C 224.435,380.483 222.435,380.15 220.5,379.5C 219.791,378.596 218.791,378.263 217.5,378.5C 217.5,366.167 217.5,353.833 217.5,341.5C 219.5,341.5 221.5,341.5 223.5,341.5 Z"/></g>
<g><path style="opacity:0.949" fill="#4d4d4d" d="M 223.5,341.5 C 227.489,341.116 231.155,341.783 234.5,343.5C 230.64,343.192 226.974,342.525 223.5,341.5 Z"/></g>
<g><path style="opacity:0.591" fill="#a4a4a4" d="M 223.5,341.5 C 221.5,341.5 219.5,341.5 217.5,341.5C 217.5,353.833 217.5,366.167 217.5,378.5C 218.791,378.263 219.791,378.596 220.5,379.5C 219.167,379.5 217.833,379.5 216.5,379.5C 216.5,366.5 216.5,353.5 216.5,340.5C 219.059,340.198 221.393,340.532 223.5,341.5 Z"/></g>
<g><path style="opacity:0.329" fill="#e1e1e1" d="M 431.5,339.5 C 440.862,339.837 450.196,340.504 459.5,341.5C 459.5,342.5 459.5,343.5 459.5,344.5C 458.5,344.5 457.5,344.5 456.5,344.5C 451.463,344.092 446.463,343.426 441.5,342.5C 438.264,341.135 434.931,340.135 431.5,339.5 Z"/></g>
<g><path style="opacity:0.155" fill="#e8e8e8" d="M 460.5,344.5 C 466.271,343.887 471.604,344.554 476.5,346.5C 473.833,346.5 471.167,346.5 468.5,346.5C 467.167,346.5 465.833,346.5 464.5,346.5C 463.167,345.833 461.833,345.167 460.5,344.5 Z"/></g>
<g><path style="opacity:0.439" fill="#7b7b7b" d="M 249.5,345.5 C 252.781,345.42 255.781,346.087 258.5,347.5C 257.167,347.5 255.833,347.5 254.5,347.5C 253.5,347.5 252.5,347.5 251.5,347.5C 250.833,346.833 250.167,346.167 249.5,345.5 Z"/></g>
<g><path style="opacity:0.561" fill="#464646" d="M 456.5,344.5 C 457.5,344.5 458.5,344.5 459.5,344.5C 459.833,344.5 460.167,344.5 460.5,344.5C 461.833,345.167 463.167,345.833 464.5,346.5C 461.505,346.706 458.838,346.04 456.5,344.5 Z"/></g>
<g><path style="opacity:0.225" fill="#a4a4a4" d="M 468.5,346.5 C 471.167,346.5 473.833,346.5 476.5,346.5C 477.167,346.5 477.833,346.5 478.5,346.5C 479.833,347.167 481.167,347.833 482.5,348.5C 477.586,348.638 472.919,347.972 468.5,346.5 Z"/></g>
<g><path style="opacity:0.651" fill="#414141" d="M 261.5,347.5 C 265.012,346.945 268.012,347.612 270.5,349.5C 269.833,349.5 269.5,349.833 269.5,350.5C 268.833,350.5 268.167,350.5 267.5,350.5C 265.844,348.94 263.844,347.94 261.5,347.5 Z"/></g>
<g><path style="opacity:0.083" fill="#f0f0f0" d="M 254.5,347.5 C 255.833,347.5 257.167,347.5 258.5,347.5C 259.5,347.5 260.5,347.5 261.5,347.5C 263.844,347.94 265.844,348.94 267.5,350.5C 263.486,350.666 259.486,350.499 255.5,350C 254.748,349.329 254.414,348.496 254.5,347.5 Z"/></g>
<g><path style="opacity:0.104" fill="#efefef" d="M 478.5,346.5 C 487.491,347.261 496.491,347.927 505.5,348.5C 505.5,349.5 505.5,350.5 505.5,351.5C 503.167,351.5 500.833,351.5 498.5,351.5C 492.989,350.782 487.656,349.782 482.5,348.5C 481.167,347.833 479.833,347.167 478.5,346.5 Z"/></g>
<g><path style="opacity:0.066" fill="#eeeeee" d="M 270.5,349.5 C 275.804,350.384 281.137,351.051 286.5,351.5C 290.066,352.903 293.733,353.903 297.5,354.5C 292.125,354.828 286.792,354.495 281.5,353.5C 277.084,353.118 273.084,352.118 269.5,350.5C 269.5,349.833 269.833,349.5 270.5,349.5 Z"/></g>
<g><path style="opacity:0.102" fill="#868686" d="M 498.5,351.5 C 500.833,351.5 503.167,351.5 505.5,351.5C 506.167,351.5 506.833,351.5 507.5,351.5C 510.246,352.251 512.913,353.251 515.5,354.5C 509.626,353.951 503.959,352.951 498.5,351.5 Z"/></g>
<g><path style="opacity:0.541" fill="#6a6a6a" d="M 286.5,351.5 C 292.097,351.77 297.43,352.77 302.5,354.5C 301.167,354.5 299.833,354.5 298.5,354.5C 298.167,354.5 297.833,354.5 297.5,354.5C 293.733,353.903 290.066,352.903 286.5,351.5 Z"/></g>
<g><path style="opacity:0.141" fill="#e8e8e8" d="M 507.5,351.5 C 517.163,352.249 526.83,353.082 536.5,354C 536.957,354.414 537.291,354.914 537.5,355.5C 541.916,355.882 545.916,356.882 549.5,358.5C 545.802,358.448 542.135,358.114 538.5,357.5C 530.794,356.78 523.128,355.78 515.5,354.5C 512.913,353.251 510.246,352.251 507.5,351.5 Z"/></g>
<g><path style="opacity:0.108" fill="#e5e5e5" d="M 298.5,354.5 C 299.833,354.5 301.167,354.5 302.5,354.5C 307.202,354.95 311.868,355.617 316.5,356.5C 319.736,357.865 323.069,358.865 326.5,359.5C 317.182,358.658 307.849,357.991 298.5,357.5C 298.5,356.5 298.5,355.5 298.5,354.5 Z"/></g>
<g><path style="opacity:0.533" fill="#8d8d8d" d="M 316.5,356.5 C 321.752,356.862 326.752,357.862 331.5,359.5C 330.167,359.5 328.833,359.5 327.5,359.5C 327.167,359.5 326.833,359.5 326.5,359.5C 323.069,358.865 319.736,357.865 316.5,356.5 Z"/></g>
<g><path style="opacity:0.486" fill="#767676" d="M 538.5,357.5 C 542.135,358.114 545.802,358.448 549.5,358.5C 549.833,358.5 550.167,358.5 550.5,358.5C 550.5,359.167 550.5,359.833 550.5,360.5C 546.226,360.13 542.226,359.13 538.5,357.5 Z"/></g>
<g><path style="opacity:0.109" fill="#f2f2f2" d="M 550.5,358.5 C 555.875,358.172 561.208,358.505 566.5,359.5C 566.808,360.308 567.308,360.975 568,361.5C 572.508,360.165 577.008,360.331 581.5,362C 580.944,362.383 580.611,362.883 580.5,363.5C 578.833,363.5 577.167,363.5 575.5,363.5C 567.215,362.135 558.881,361.135 550.5,360.5C 550.5,359.833 550.5,359.167 550.5,358.5 Z"/></g>
<g><path style="opacity:0.094" fill="#e6e6e6" d="M 327.5,359.5 C 328.833,359.5 330.167,359.5 331.5,359.5C 339.818,360.63 348.151,361.63 356.5,362.5C 356.833,363.167 357.167,363.833 357.5,364.5C 347.805,364.085 338.138,363.252 328.5,362C 327.748,361.329 327.414,360.496 327.5,359.5 Z"/></g>
<g><path style="opacity:0.078" fill="#6a6a6a" d="M 356.5,362.5 C 359.373,362.802 362.039,363.469 364.5,364.5C 362.833,364.5 361.167,364.5 359.5,364.5C 358.833,364.5 358.167,364.5 357.5,364.5C 357.167,363.833 356.833,363.167 356.5,362.5 Z"/></g>
<g><path style="opacity:0.435" fill="#a0a0a0" d="M 575.5,363.5 C 577.167,363.5 578.833,363.5 580.5,363.5C 581.167,363.5 581.833,363.5 582.5,363.5C 583.167,364.167 583.833,364.833 584.5,365.5C 581.273,365.324 578.273,364.657 575.5,363.5 Z"/></g>
<g><path style="opacity:0.094" fill="#efefef" d="M 582.5,363.5 C 591.512,364.096 600.512,364.93 609.5,366C 610.056,366.383 610.389,366.883 610.5,367.5C 606.896,368.521 603.229,368.521 599.5,367.5C 594.477,366.994 589.477,366.327 584.5,365.5C 583.833,364.833 583.167,364.167 582.5,363.5 Z"/></g>
<g><path style="opacity:0.083" fill="#eeeeee" d="M 359.5,364.5 C 361.167,364.5 362.833,364.5 364.5,364.5C 364.833,364.5 365.167,364.5 365.5,364.5C 368.159,364.917 370.492,365.917 372.5,367.5C 368.818,367.665 365.152,367.499 361.5,367C 360.244,366.583 359.577,365.75 359.5,364.5 Z"/></g>
<g><path style="opacity:0.573" fill="#515151" d="M 365.5,364.5 C 368.187,364.336 370.854,364.503 373.5,365C 374.416,365.278 375.082,365.778 375.5,366.5C 374.833,366.833 374.167,367.167 373.5,367.5C 373.167,367.5 372.833,367.5 372.5,367.5C 370.492,365.917 368.159,364.917 365.5,364.5 Z"/></g>
<g><path style="opacity:0.065" fill="#f0f0f0" d="M 375.5,366.5 C 378.807,367.051 382.14,367.384 385.5,367.5C 385.5,368.167 385.5,368.833 385.5,369.5C 381.818,369.665 378.152,369.499 374.5,369C 373.944,368.617 373.611,368.117 373.5,367.5C 374.167,367.167 374.833,366.833 375.5,366.5 Z"/></g>
<g><path style="opacity:0.051" fill="#878787" d="M 385.5,367.5 C 392.705,368.434 399.705,369.767 406.5,371.5C 405.5,371.5 404.5,371.5 403.5,371.5C 402.833,371.5 402.167,371.5 401.5,371.5C 397.361,370.437 393.028,369.77 388.5,369.5C 387.5,369.5 386.5,369.5 385.5,369.5C 385.5,368.833 385.5,368.167 385.5,367.5 Z"/></g>
<g><path style="opacity:0.906" fill="#6b6b6b" d="M 599.5,367.5 C 603.229,368.521 606.896,368.521 610.5,367.5C 610.5,368.167 610.833,368.5 611.5,368.5C 614.246,369.251 616.913,370.251 619.5,371.5C 613.504,370.715 607.504,369.882 601.5,369C 600.584,368.722 599.918,368.222 599.5,367.5 Z"/></g>
<g><path style="opacity:0.108" fill="#fafafa" d="M 388.5,369.5 C 393.028,369.77 397.361,370.437 401.5,371.5C 396.706,372.097 392.373,371.43 388.5,369.5 Z"/></g>
<g><path style="opacity:0.08" fill="#e5e5e5" d="M 611.5,368.5 C 620.244,369.677 629.578,370.344 639.5,370.5C 639.5,371.5 639.5,372.5 639.5,373.5C 638.167,373.5 636.833,373.5 635.5,373.5C 630.167,372.833 624.833,372.167 619.5,371.5C 616.913,370.251 614.246,369.251 611.5,368.5 Z"/></g>
<g><path style="opacity:0.09" fill="#ececec" d="M 403.5,371.5 C 404.5,371.5 405.5,371.5 406.5,371.5C 412.381,371.997 418.047,372.997 423.5,374.5C 425.833,375.167 428.167,375.833 430.5,376.5C 421.488,375.904 412.488,375.07 403.5,374C 402.402,373.23 402.402,372.397 403.5,371.5 Z"/></g>
<g><path style="opacity:0.115" fill="#f5f5f5" d="M 640.5,373.5 C 645.363,373.181 650.03,373.514 654.5,374.5C 649.671,375.664 645.005,375.33 640.5,373.5 Z"/></g>
<g><path style="opacity:0.541" fill="#6a6a6a" d="M 635.5,373.5 C 636.833,373.5 638.167,373.5 639.5,373.5C 639.833,373.5 640.167,373.5 640.5,373.5C 645.005,375.33 649.671,375.664 654.5,374.5C 654.5,375.167 654.833,375.5 655.5,375.5C 656.167,376.167 656.833,376.833 657.5,377.5C 649.884,376.972 642.551,375.639 635.5,373.5 Z"/></g>
<g><path style="opacity:0.094" fill="#898989" d="M 423.5,374.5 C 430.479,374.369 437.146,375.369 443.5,377.5C 439.865,376.886 436.198,376.552 432.5,376.5C 431.833,376.5 431.167,376.5 430.5,376.5C 428.167,375.833 425.833,375.167 423.5,374.5 Z"/></g>
<g><path style="opacity:0.064" fill="#e8e8e8" d="M 655.5,375.5 C 660.179,375.334 664.845,375.501 669.5,376C 668.944,376.383 668.611,376.883 668.5,377.5C 664.994,378.498 661.328,378.498 657.5,377.5C 656.833,376.833 656.167,376.167 655.5,375.5 Z"/></g>
<g><path style="opacity:0.084" fill="#e9e9e9" d="M 670.5,377.5 C 674.514,377.334 678.514,377.501 682.5,378C 683.056,378.383 683.389,378.883 683.5,379.5C 681.621,380.341 679.621,380.675 677.5,380.5C 674.423,380.821 672.09,379.821 670.5,377.5 Z"/></g>
<g><path style="opacity:0.083" fill="#f0f0f0" d="M 432.5,376.5 C 436.198,376.552 439.865,376.886 443.5,377.5C 448.484,378.275 453.484,378.942 458.5,379.5C 459.167,380.167 459.833,380.833 460.5,381.5C 451.488,380.904 442.488,380.07 433.5,379C 432.748,378.329 432.414,377.496 432.5,376.5 Z"/></g>
<g><path style="opacity:0.416" fill="#7c7c7c" d="M 226.5,380.5 C 228.5,380.5 230.5,380.5 232.5,380.5C 233.167,380.5 233.833,380.5 234.5,380.5C 235.167,381.167 235.833,381.833 236.5,382.5C 232.96,382.247 229.627,381.581 226.5,380.5 Z"/></g>
<g><path style="opacity:0.092" fill="#e5e5e5" d="M 234.5,380.5 C 239.294,379.903 243.627,380.57 247.5,382.5C 247.158,383.338 246.492,383.672 245.5,383.5C 242.482,383.296 239.482,382.963 236.5,382.5C 235.833,381.833 235.167,381.167 234.5,380.5 Z"/></g>
<g><path style="opacity:0.153" fill="#7d7d7d" d="M 683.5,379.5 C 683.842,380.338 684.508,380.672 685.5,380.5C 686.167,381.167 686.833,381.833 687.5,382.5C 683.96,382.247 680.627,381.581 677.5,380.5C 679.621,380.675 681.621,380.341 683.5,379.5 Z"/></g>
<g><path style="opacity:0.557" fill="#848484" d="M 458.5,379.5 C 464.69,380.143 470.69,381.143 476.5,382.5C 471.493,382.249 466.493,381.916 461.5,381.5C 461.167,381.5 460.833,381.5 460.5,381.5C 459.833,380.833 459.167,380.167 458.5,379.5 Z"/></g>
<g><path style="opacity:0.142" fill="#f7f7f7" d="M 250.5,382.5 C 255.179,382.334 259.845,382.501 264.5,383C 265.598,383.77 265.598,384.603 264.5,385.5C 261.833,385.5 259.167,385.5 256.5,385.5C 254.621,384.659 252.621,384.325 250.5,384.5C 250.5,383.833 250.5,383.167 250.5,382.5 Z"/></g>
<g><path style="opacity:0.121" fill="#e9e9e9" d="M 685.5,380.5 C 695.5,381.167 705.5,381.833 715.5,382.5C 715.5,383.5 715.5,384.5 715.5,385.5C 713.5,385.5 711.5,385.5 709.5,385.5C 702.167,384.5 694.833,383.5 687.5,382.5C 686.833,381.833 686.167,381.167 685.5,380.5 Z"/></g>
<g><path style="opacity:0.263" fill="#949494" d="M 247.5,382.5 C 248.5,382.5 249.5,382.5 250.5,382.5C 250.5,383.167 250.5,383.833 250.5,384.5C 248.585,384.784 246.919,384.451 245.5,383.5C 246.492,383.672 247.158,383.338 247.5,382.5 Z"/></g>
<g><path style="opacity:0.095" fill="#efefef" d="M 461.5,381.5 C 466.493,381.916 471.493,382.249 476.5,382.5C 481.036,383.811 485.703,384.477 490.5,384.5C 490.833,385.167 491.167,385.833 491.5,386.5C 486.456,386.827 481.456,386.494 476.5,385.5C 476.291,384.914 475.957,384.414 475.5,384C 470.394,384.114 465.727,383.28 461.5,381.5 Z"/></g>
<g><path style="opacity:0.125" fill="#979797" d="M 256.5,385.5 C 259.167,385.5 261.833,385.5 264.5,385.5C 264.833,385.5 265.167,385.5 265.5,385.5C 268.592,386.184 271.592,387.184 274.5,388.5C 268.31,387.857 262.31,386.857 256.5,385.5 Z"/></g>
<g><path style="opacity:0.467" fill="#8f8f8f" d="M 490.5,384.5 C 493.067,384.721 495.401,385.388 497.5,386.5C 496.167,386.5 494.833,386.5 493.5,386.5C 492.833,386.5 492.167,386.5 491.5,386.5C 491.167,385.833 490.833,385.167 490.5,384.5 Z"/></g>
<g><path style="opacity:0.113" fill="#fbfbfb" d="M 716.5,385.5 C 721.294,384.903 725.627,385.57 729.5,387.5C 724.924,387.562 720.591,386.895 716.5,385.5 Z"/></g>
<g><path style="opacity:0.47" fill="#f1f1f1" d="M 787.5,397.5 C 784.482,397.296 781.482,396.963 778.5,396.5C 772.783,396.207 767.116,395.54 761.5,394.5C 761.082,393.778 760.416,393.278 759.5,393C 756.854,392.503 754.187,392.336 751.5,392.5C 744.833,391.5 738.167,390.5 731.5,389.5C 731.5,388.833 731.5,388.167 731.5,387.5C 741.668,386.788 751.668,386.122 761.5,385.5C 764.432,386.8 766.766,388.8 768.5,391.5C 774.539,393.829 780.873,394.996 787.5,395C 788.598,395.77 788.598,396.603 787.5,397.5 Z"/></g>
<g><path style="opacity:0.1" fill="#eaeaea" d="M 265.5,385.5 C 274.854,386.002 284.187,386.836 293.5,388C 293.957,388.414 294.291,388.914 294.5,389.5C 299.571,389.872 304.238,390.872 308.5,392.5C 303.507,392.084 298.507,391.751 293.5,391.5C 287.187,390.371 280.854,389.371 274.5,388.5C 271.592,387.184 268.592,386.184 265.5,385.5 Z"/></g>
<g><path style="opacity:0.475" fill="#8e8e8e" d="M 709.5,385.5 C 711.5,385.5 713.5,385.5 715.5,385.5C 715.833,385.5 716.167,385.5 716.5,385.5C 720.591,386.895 724.924,387.562 729.5,387.5C 730.167,387.5 730.833,387.5 731.5,387.5C 731.5,388.167 731.5,388.833 731.5,389.5C 723.947,388.647 716.614,387.313 709.5,385.5 Z"/></g>
<g><path style="opacity:0.149" fill="#ededed" d="M 493.5,386.5 C 494.833,386.5 496.167,386.5 497.5,386.5C 508.205,388.169 518.871,389.836 529.5,391.5C 531.5,392.167 533.5,392.833 535.5,393.5C 525.837,392.751 516.17,391.918 506.5,391C 506.043,390.586 505.709,390.086 505.5,389.5C 501.084,389.118 497.084,388.118 493.5,386.5 Z"/></g>
<g><path style="opacity:0.098" fill="#f6f6f6" d="M 310.5,392.5 C 314.702,392.183 318.702,392.517 322.5,393.5C 322.631,394.239 322.464,394.906 322,395.5C 319.281,394.556 316.448,394.223 313.5,394.5C 312.833,394.5 312.167,394.5 311.5,394.5C 311.167,393.833 310.833,393.167 310.5,392.5 Z"/></g>
<g><path style="opacity:0.102" fill="#929292" d="M 529.5,391.5 C 533.489,391.116 537.155,391.783 540.5,393.5C 539.5,393.5 538.5,393.5 537.5,393.5C 536.833,393.5 536.167,393.5 535.5,393.5C 533.5,392.833 531.5,392.167 529.5,391.5 Z"/></g>
<g><path style="opacity:1" fill="#919191" d="M 751.5,392.5 C 754.187,392.336 756.854,392.503 759.5,393C 760.416,393.278 761.082,393.778 761.5,394.5C 757.96,394.247 754.627,393.581 751.5,392.5 Z"/></g>
<g><path style="opacity:0.4" fill="#949494" d="M 293.5,391.5 C 298.507,391.751 303.507,392.084 308.5,392.5C 309.167,392.5 309.833,392.5 310.5,392.5C 310.833,393.167 311.167,393.833 311.5,394.5C 305.291,393.979 299.291,392.979 293.5,391.5 Z"/></g>
<g><path style="opacity:0.106" fill="#f7f7f7" d="M 324.5,394.5 C 328.846,394.334 333.179,394.501 337.5,395C 338.598,395.77 338.598,396.603 337.5,397.5C 333.802,397.448 330.135,397.114 326.5,396.5C 325.833,396.5 325.167,396.5 324.5,396.5C 324.5,395.833 324.5,395.167 324.5,394.5 Z"/></g>
<g><path style="opacity:0.212" fill="#a5a5a5" d="M 322.5,393.5 C 323.167,393.833 323.833,394.167 324.5,394.5C 324.5,395.167 324.5,395.833 324.5,396.5C 320.613,396.354 316.946,395.687 313.5,394.5C 316.448,394.223 319.281,394.556 322,395.5C 322.464,394.906 322.631,394.239 322.5,393.5 Z"/></g>
<g><path style="opacity:0.075" fill="#e8e8e8" d="M 537.5,393.5 C 538.5,393.5 539.5,393.5 540.5,393.5C 552.548,394.839 564.548,396.506 576.5,398.5C 578.167,399.167 579.833,399.833 581.5,400.5C 567.125,399.506 552.791,398.006 538.5,396C 536.381,395.658 536.047,394.825 537.5,393.5 Z"/></g>
<g><path style="opacity:0.463" fill="#767676" d="M 326.5,396.5 C 330.135,397.114 333.802,397.448 337.5,397.5C 338.167,397.5 338.833,397.5 339.5,397.5C 342.246,398.251 344.913,399.251 347.5,400.5C 340.226,399.896 333.226,398.562 326.5,396.5 Z"/></g>
<g><path style="opacity:0.463" fill="#666666" d="M 778.5,396.5 C 781.482,396.963 784.482,397.296 787.5,397.5C 788.167,397.5 788.833,397.5 789.5,397.5C 790.167,398.167 790.833,398.833 791.5,399.5C 787.837,399.048 784.17,398.548 780.5,398C 779.584,397.722 778.918,397.222 778.5,396.5 Z"/></g>
<g><path style="opacity:0.092" fill="#eeeeee" d="M 339.5,397.5 C 348.512,398.096 357.512,398.93 366.5,400C 367.056,400.383 367.389,400.883 367.5,401.5C 365.958,402.301 364.292,402.634 362.5,402.5C 357.5,401.833 352.5,401.167 347.5,400.5C 344.913,399.251 342.246,398.251 339.5,397.5 Z"/></g>
<g><path style="opacity:0.153" fill="#595959" d="M 576.5,398.5 C 578.857,398.337 581.19,398.503 583.5,399C 584.056,399.383 584.389,399.883 584.5,400.5C 583.833,400.5 583.5,400.833 583.5,401.5C 582.833,401.167 582.167,400.833 581.5,400.5C 579.833,399.833 578.167,399.167 576.5,398.5 Z"/></g>
<g><path style="opacity:0.106" fill="#f3f3f3" d="M 368.5,402.5 C 373.179,402.334 377.845,402.501 382.5,403C 381.944,403.383 381.611,403.883 381.5,404.5C 378.833,404.5 376.167,404.5 373.5,404.5C 373.167,404.5 372.833,404.5 372.5,404.5C 371.167,403.833 369.833,403.167 368.5,402.5 Z"/></g>
<g><path style="opacity:0.278" fill="#e3e3e3" d="M 584.5,400.5 C 590.153,401.275 595.82,401.942 601.5,402.5C 604.736,403.865 608.069,404.865 611.5,405.5C 606.125,405.828 600.792,405.495 595.5,404.5C 591.084,404.118 587.084,403.118 583.5,401.5C 583.5,400.833 583.833,400.5 584.5,400.5 Z"/></g>
<g><path style="opacity:0.522" fill="#646464" d="M 367.5,401.5 C 367.5,402.167 367.833,402.5 368.5,402.5C 369.833,403.167 371.167,403.833 372.5,404.5C 368.878,404.678 365.544,404.011 362.5,402.5C 364.292,402.634 365.958,402.301 367.5,401.5 Z"/></g>
<g><path style="opacity:0.478" fill="#6b6b6b" d="M 601.5,402.5 C 607.061,402.956 612.394,403.956 617.5,405.5C 615.833,405.5 614.167,405.5 612.5,405.5C 612.167,405.5 611.833,405.5 611.5,405.5C 608.069,404.865 604.736,403.865 601.5,402.5 Z"/></g>
<g><path style="opacity:0.068" fill="#f4f4f4" d="M 385.5,404.5 C 388.85,404.335 392.183,404.502 395.5,405C 396.252,405.671 396.586,406.504 396.5,407.5C 395.833,407.5 395.167,407.5 394.5,407.5C 393.833,407.5 393.167,407.5 392.5,407.5C 390.492,405.917 388.159,404.917 385.5,404.5 Z"/></g>
<g><path style="opacity:0.176" fill="#bbbbbb" d="M 373.5,404.5 C 376.167,404.5 378.833,404.5 381.5,404.5C 382.833,404.5 384.167,404.5 385.5,404.5C 388.159,404.917 390.492,405.917 392.5,407.5C 385.992,406.763 379.659,405.763 373.5,404.5 Z"/></g>
<g><path style="opacity:0.085" fill="#f6f6f6" d="M 612.5,405.5 C 614.167,405.5 615.833,405.5 617.5,405.5C 619.717,406.369 622.05,406.702 624.5,406.5C 624.5,407.167 624.5,407.833 624.5,408.5C 620.5,408.5 616.5,408.5 612.5,408.5C 612.5,407.5 612.5,406.5 612.5,405.5 Z"/></g>
<g><path style="opacity:0.089" fill="#ebebeb" d="M 398.5,406.5 C 401.85,406.335 405.183,406.502 408.5,407C 409.756,407.417 410.423,408.25 410.5,409.5C 408.167,409.5 405.833,409.5 403.5,409.5C 402.833,409.5 402.167,409.5 401.5,409.5C 400.1,408.9 399.1,407.9 398.5,406.5 Z"/></g>
<g><path style="opacity:0.022" fill="#7c7c7c" d="M 624.5,406.5 C 626.099,406.232 627.432,406.566 628.5,407.5C 627.662,407.842 627.328,408.508 627.5,409.5C 626.609,408.89 625.609,408.557 624.5,408.5C 624.5,407.833 624.5,407.167 624.5,406.5 Z"/></g>
<g><path style="opacity:0.246" fill="#f6f6f6" d="M 789.5,397.5 C 797.921,397.428 806.255,398.261 814.5,400C 816.678,402.677 819.011,405.177 821.5,407.5C 823.236,413.481 824.236,419.981 824.5,427C 824.456,430.931 823.789,434.598 822.5,438C 823.833,442.667 823.833,447.333 822.5,452C 823,452.5 823.5,453 824,453.5C 824.167,456.5 824.333,459.5 824.5,462.5C 824.446,465.939 823.78,469.106 822.5,472C 823.898,482.168 823.564,492.335 821.5,502.5C 818.689,504.144 816.356,506.31 814.5,509C 811.854,509.497 809.187,509.664 806.5,509.5C 807.5,508.833 808.5,508.167 809.5,507.5C 814.522,505.811 817.856,502.478 819.5,497.5C 820.117,497.389 820.617,497.056 821,496.5C 821.83,468.33 821.664,440.33 820.5,412.5C 818.408,408.572 815.408,405.406 811.5,403C 804.889,401.508 798.222,400.341 791.5,399.5C 790.833,398.833 790.167,398.167 789.5,397.5 Z"/></g>
<g><path style="opacity:0.584" fill="#535353" d="M 398.5,406.5 C 399.1,407.9 400.1,408.9 401.5,409.5C 398.772,409.829 396.438,409.163 394.5,407.5C 395.167,407.5 395.833,407.5 396.5,407.5C 397.167,407.167 397.833,406.833 398.5,406.5 Z"/></g>
<g><path style="opacity:0.078" fill="#e4e4e4" d="M 628.5,407.5 C 630.95,407.298 633.283,407.631 635.5,408.5C 636.833,409.167 638.167,409.833 639.5,410.5C 635.298,410.817 631.298,410.483 627.5,409.5C 627.328,408.508 627.662,407.842 628.5,407.5 Z"/></g>
<g><path style="opacity:0.078" fill="#696969" d="M 403.5,409.5 C 405.833,409.5 408.167,409.5 410.5,409.5C 411.167,409.5 411.833,409.5 412.5,409.5C 413.167,410.167 413.833,410.833 414.5,411.5C 410.64,411.192 406.974,410.525 403.5,409.5 Z"/></g>
<g><path style="opacity:0.427" fill="#8a8a8a" d="M 635.5,408.5 C 641.137,408.585 646.471,409.585 651.5,411.5C 648.193,410.949 644.86,410.616 641.5,410.5C 640.833,410.5 640.167,410.5 639.5,410.5C 638.167,409.833 636.833,409.167 635.5,408.5 Z"/></g>
<g><path style="opacity:0.132" fill="#eeeeee" d="M 412.5,409.5 C 422.195,409.915 431.862,410.748 441.5,412C 442.056,412.383 442.389,412.883 442.5,413.5C 438.559,414.564 434.559,414.564 430.5,413.5C 425.154,412.906 419.82,412.239 414.5,411.5C 413.833,410.833 413.167,410.167 412.5,409.5 Z"/></g>
<g><path style="opacity:0.077" fill="#e6e6e6" d="M 641.5,410.5 C 644.86,410.616 648.193,410.949 651.5,411.5C 660.325,412.623 668.992,413.957 677.5,415.5C 679.5,416.167 681.5,416.833 683.5,417.5C 670.415,416.583 657.415,414.917 644.5,412.5C 642.97,412.36 641.97,411.693 641.5,410.5 Z"/></g>
<g><path style="opacity:0.145" fill="#fcfcfc" d="M 218.5,414.5 C 222.198,414.552 225.865,414.886 229.5,415.5C 230.5,416.167 231.5,416.833 232.5,417.5C 227.833,417.5 223.167,417.5 218.5,417.5C 218.5,510.833 218.5,604.167 218.5,697.5C 217.167,603.167 217.167,508.833 218.5,414.5 Z"/></g>
<g><path style="opacity:0.482" fill="#747474" d="M 430.5,413.5 C 434.559,414.564 438.559,414.564 442.5,413.5C 442.5,414.167 442.833,414.5 443.5,414.5C 444.5,415.167 445.5,415.833 446.5,416.5C 440.895,416.221 435.562,415.221 430.5,413.5 Z"/></g>
<g><path style="opacity:0.514" fill="#7c7c7c" d="M 677.5,415.5 C 681.79,415.198 685.79,415.864 689.5,417.5C 688.167,417.5 686.833,417.5 685.5,417.5C 684.833,417.5 684.167,417.5 683.5,417.5C 681.5,416.833 679.5,416.167 677.5,415.5 Z"/></g>
<g><path style="opacity:0.235" fill="#7e7e7e" d="M 229.5,415.5 C 232.495,415.294 235.162,415.96 237.5,417.5C 236.833,417.5 236.167,417.5 235.5,417.5C 234.5,417.5 233.5,417.5 232.5,417.5C 231.5,416.833 230.5,416.167 229.5,415.5 Z"/></g>
<g><path style="opacity:0.093" fill="#e3e3e3" d="M 443.5,414.5 C 452.833,415.167 462.167,415.833 471.5,416.5C 471.5,417.5 471.5,418.5 471.5,419.5C 470.5,419.5 469.5,419.5 468.5,419.5C 461.135,418.717 453.801,417.717 446.5,416.5C 445.5,415.833 444.5,415.167 443.5,414.5 Z"/></g>
<g><path style="opacity:0.533" fill="#a1a1a1" d="M 218.5,414.5 C 217.167,508.833 217.167,603.167 218.5,697.5C 229.833,697.5 241.167,697.5 252.5,697.5C 252.842,698.338 253.508,698.672 254.5,698.5C 242.011,699.495 229.344,699.829 216.5,699.5C 216.167,604.164 216.5,508.831 217.5,413.5C 218.107,413.624 218.44,413.957 218.5,414.5 Z"/></g>
<g><path style="opacity:0.658" fill="#9e9e9e" d="M 820.5,412.5 C 821.664,440.33 821.83,468.33 821,496.5C 820.617,497.056 820.117,497.389 819.5,497.5C 820.483,469.211 820.817,440.877 820.5,412.5 Z"/></g>
<g><path style="opacity:0.09" fill="#eaeaea" d="M 235.5,417.5 C 236.167,417.5 236.833,417.5 237.5,417.5C 245.203,418.282 252.87,419.282 260.5,420.5C 261.167,421.167 261.833,421.833 262.5,422.5C 254.338,421.082 245.338,420.415 235.5,420.5C 235.5,419.5 235.5,418.5 235.5,417.5 Z"/></g>
<g><path style="opacity:0.096" fill="#e7e7e7" d="M 685.5,417.5 C 686.833,417.5 688.167,417.5 689.5,417.5C 697.156,418.582 704.822,419.582 712.5,420.5C 712.833,421.167 713.167,421.833 713.5,422.5C 704.488,421.904 695.488,421.07 686.5,420C 685.748,419.329 685.414,418.496 685.5,417.5 Z"/></g>
<g><path style="opacity:0.133" fill="#626262" d="M 260.5,420.5 C 265.5,420.498 270.167,421.498 274.5,423.5C 271.833,423.167 269.167,422.833 266.5,422.5C 265.167,422.5 263.833,422.5 262.5,422.5C 261.833,421.833 261.167,421.167 260.5,420.5 Z"/></g>
<g><path style="opacity:0.78" fill="#6b6b6b" d="M 468.5,419.5 C 469.5,419.5 470.5,419.5 471.5,419.5C 471.833,419.5 472.167,419.5 472.5,419.5C 475.931,420.135 479.264,421.135 482.5,422.5C 478.51,422.001 474.51,421.501 470.5,421C 469.584,420.722 468.918,420.222 468.5,419.5 Z"/></g>
<g><path style="opacity:0.161" fill="#e0e0e0" d="M 472.5,419.5 C 477.875,419.172 483.208,419.505 488.5,420.5C 492.916,420.882 496.916,421.882 500.5,423.5C 497.673,424.368 494.673,424.368 491.5,423.5C 488.482,423.296 485.482,422.963 482.5,422.5C 479.264,421.135 475.931,420.135 472.5,419.5 Z"/></g>
<g><path style="opacity:0.514" fill="#7d7d7d" d="M 712.5,420.5 C 716.04,420.753 719.373,421.419 722.5,422.5C 719.833,422.5 717.167,422.5 714.5,422.5C 714.167,422.5 713.833,422.5 713.5,422.5C 713.167,421.833 712.833,421.167 712.5,420.5 Z"/></g>
<g><path style="opacity:0.077" fill="#f7f7f7" d="M 266.5,422.5 C 269.167,422.833 271.833,423.167 274.5,423.5C 275.5,423.5 276.5,423.5 277.5,423.5C 277.5,424.167 277.5,424.833 277.5,425.5C 274.15,425.665 270.817,425.498 267.5,425C 266.748,424.329 266.414,423.496 266.5,422.5 Z"/></g>
<g><path style="opacity:0.115" fill="#f7f7f7" d="M 714.5,422.5 C 717.167,422.5 719.833,422.5 722.5,422.5C 724.379,423.341 726.379,423.675 728.5,423.5C 728.5,424.167 728.5,424.833 728.5,425.5C 724.154,425.666 719.821,425.499 715.5,425C 714.748,424.329 714.414,423.496 714.5,422.5 Z"/></g>
<g><path style="opacity:0.088" fill="#ebebeb" d="M 502.5,423.5 C 506.514,423.334 510.514,423.501 514.5,424C 515.252,424.671 515.586,425.504 515.5,426.5C 513.167,426.5 510.833,426.5 508.5,426.5C 507.833,426.5 507.167,426.5 506.5,426.5C 504.781,425.978 503.448,424.978 502.5,423.5 Z"/></g>
<g><path style="opacity:0.016" fill="#9b9b9b" d="M 728.5,423.5 C 730.099,423.232 731.432,423.566 732.5,424.5C 732.5,425.167 732.5,425.833 732.5,426.5C 731.292,425.766 729.959,425.433 728.5,425.5C 728.5,424.833 728.5,424.167 728.5,423.5 Z"/></g>
<g><path style="opacity:0.085" fill="#fafafa" d="M 279.5,425.5 C 284.076,425.438 288.409,426.105 292.5,427.5C 287.706,428.097 283.373,427.43 279.5,425.5 Z"/></g>
<g><path style="opacity:0.396" fill="#b5b5b5" d="M 277.5,423.5 C 285.041,424.382 292.374,425.715 299.5,427.5C 297.5,427.5 295.5,427.5 293.5,427.5C 293.167,427.5 292.833,427.5 292.5,427.5C 288.409,426.105 284.076,425.438 279.5,425.5C 278.833,425.5 278.167,425.5 277.5,425.5C 277.5,424.833 277.5,424.167 277.5,423.5 Z"/></g>
<g><path style="opacity:0.608" fill="#3d3d3d" d="M 491.5,423.5 C 494.673,424.368 497.673,424.368 500.5,423.5C 501.167,423.5 501.833,423.5 502.5,423.5C 503.448,424.978 504.781,425.978 506.5,426.5C 501.823,426.165 497.156,425.665 492.5,425C 491.944,424.617 491.611,424.117 491.5,423.5 Z"/></g>
<g><path style="opacity:0.068" fill="#ebebeb" d="M 732.5,424.5 C 735.86,424.616 739.193,424.949 742.5,425.5C 742.833,426.167 743.167,426.833 743.5,427.5C 739.629,427.815 735.962,427.482 732.5,426.5C 732.5,425.833 732.5,425.167 732.5,424.5 Z"/></g>
<g><path style="opacity:0.157" fill="#757575" d="M 508.5,426.5 C 510.833,426.5 513.167,426.5 515.5,426.5C 516.167,426.5 516.833,426.5 517.5,426.5C 518.167,427.167 518.833,427.833 519.5,428.5C 515.64,428.192 511.974,427.525 508.5,426.5 Z"/></g>
<g><path style="opacity:0.071" fill="#929292" d="M 742.5,425.5 C 745.428,425.565 748.095,426.232 750.5,427.5C 749.167,427.5 747.833,427.5 746.5,427.5C 745.5,427.5 744.5,427.5 743.5,427.5C 743.167,426.833 742.833,426.167 742.5,425.5 Z"/></g>
<g><path style="opacity:0.161" fill="#ededed" d="M 293.5,427.5 C 295.5,427.5 297.5,427.5 299.5,427.5C 301.167,427.5 302.833,427.5 304.5,427.5C 305.5,428.167 306.5,428.833 307.5,429.5C 302.381,430.103 297.715,429.436 293.5,427.5 Z"/></g>
<g><path style="opacity:0.212" fill="#636363" d="M 304.5,427.5 C 307.495,427.294 310.162,427.96 312.5,429.5C 311.833,429.5 311.167,429.5 310.5,429.5C 309.5,429.5 308.5,429.5 307.5,429.5C 306.5,428.833 305.5,428.167 304.5,427.5 Z"/></g>
<g><path style="opacity:0.107" fill="#eeeeee" d="M 517.5,426.5 C 527.195,426.915 536.862,427.748 546.5,429C 547.252,429.671 547.586,430.504 547.5,431.5C 543.466,431.495 539.466,431.162 535.5,430.5C 530.141,429.997 524.807,429.33 519.5,428.5C 518.833,427.833 518.167,427.167 517.5,426.5 Z"/></g>
<g><path style="opacity:0.066" fill="#f0f0f0" d="M 310.5,429.5 C 311.167,429.5 311.833,429.5 312.5,429.5C 315.786,430.207 319.119,430.54 322.5,430.5C 322.833,431.167 323.167,431.833 323.5,432.5C 319.167,432.5 314.833,432.5 310.5,432.5C 310.5,431.5 310.5,430.5 310.5,429.5 Z"/></g>
<g><path style="opacity:0.076" fill="#e9e9e9" d="M 746.5,427.5 C 747.833,427.5 749.167,427.5 750.5,427.5C 760.932,428.788 771.266,430.455 781.5,432.5C 782.568,433.434 783.901,433.768 785.5,433.5C 785.768,435.099 785.434,436.432 784.5,437.5C 783.522,437.189 782.855,436.522 782.5,435.5C 775.668,433.357 768.668,432.191 761.5,432C 761.043,431.586 760.709,431.086 760.5,430.5C 755.429,430.128 750.762,429.128 746.5,427.5 Z"/></g>
<g><path style="opacity:0.478" fill="#878787" d="M 322.5,430.5 C 325.373,430.802 328.039,431.469 330.5,432.5C 328.833,432.5 327.167,432.5 325.5,432.5C 324.833,432.5 324.167,432.5 323.5,432.5C 323.167,431.833 322.833,431.167 322.5,430.5 Z"/></g>
<g><path style="opacity:0.13" fill="#f1f1f1" d="M 548.5,431.5 C 553.032,431.182 557.366,431.515 561.5,432.5C 558.609,433.403 555.609,433.736 552.5,433.5C 551.833,433.5 551.167,433.5 550.5,433.5C 549.833,432.833 549.167,432.167 548.5,431.5 Z"/></g>
<g><path style="opacity:0.099" fill="#ececec" d="M 325.5,432.5 C 327.167,432.5 328.833,432.5 330.5,432.5C 331.833,432.5 333.167,432.5 334.5,432.5C 335.833,433.167 337.167,433.833 338.5,434.5C 333.706,435.097 329.373,434.43 325.5,432.5 Z"/></g>
<g><path style="opacity:0.502" fill="#676767" d="M 535.5,430.5 C 539.466,431.162 543.466,431.495 547.5,431.5C 547.833,431.5 548.167,431.5 548.5,431.5C 549.167,432.167 549.833,432.833 550.5,433.5C 545.205,433.322 540.205,432.322 535.5,430.5 Z"/></g>
<g><path style="opacity:0.149" fill="#717171" d="M 334.5,432.5 C 337.495,432.294 340.162,432.96 342.5,434.5C 341.5,434.5 340.5,434.5 339.5,434.5C 339.167,434.5 338.833,434.5 338.5,434.5C 337.167,433.833 335.833,433.167 334.5,432.5 Z"/></g>
<g><path style="opacity:0.329" fill="#9e9e9e" d="M 561.5,432.5 C 561.842,433.338 562.508,433.672 563.5,433.5C 563.5,434.167 563.5,434.833 563.5,435.5C 559.64,435.192 555.974,434.525 552.5,433.5C 555.609,433.736 558.609,433.403 561.5,432.5 Z"/></g>
<g><path style="opacity:0.081" fill="#f1f1f1" d="M 563.5,433.5 C 567.833,433.5 572.167,433.5 576.5,433.5C 576.5,434.5 576.5,435.5 576.5,436.5C 575.167,436.5 573.833,436.5 572.5,436.5C 569.482,436.296 566.482,435.963 563.5,435.5C 563.5,434.833 563.5,434.167 563.5,433.5 Z"/></g>
<g><path style="opacity:0.132" fill="#f6f6f6" d="M 577.5,436.5 C 582.179,436.334 586.845,436.501 591.5,437C 590.944,437.383 590.611,437.883 590.5,438.5C 585.924,438.562 581.591,437.895 577.5,436.5 Z"/></g>
<g><path style="opacity:0.117" fill="#e7e7e7" d="M 339.5,434.5 C 340.5,434.5 341.5,434.5 342.5,434.5C 349.064,434.864 355.397,435.864 361.5,437.5C 363.5,438.167 365.5,438.833 367.5,439.5C 358.451,439.26 349.451,438.427 340.5,437C 339.748,436.329 339.414,435.496 339.5,434.5 Z"/></g>
<g><path style="opacity:0.098" fill="#9c9c9c" d="M 361.5,437.5 C 365.458,437.251 369.124,437.918 372.5,439.5C 371.5,439.5 370.5,439.5 369.5,439.5C 368.833,439.5 368.167,439.5 367.5,439.5C 365.5,438.833 363.5,438.167 361.5,437.5 Z"/></g>
<g><path style="opacity:0.518" fill="#686868" d="M 572.5,436.5 C 573.833,436.5 575.167,436.5 576.5,436.5C 576.833,436.5 577.167,436.5 577.5,436.5C 581.591,437.895 585.924,438.562 590.5,438.5C 591.167,438.5 591.833,438.5 592.5,438.5C 592.833,439.167 593.167,439.833 593.5,440.5C 586.226,439.896 579.226,438.562 572.5,436.5 Z"/></g>
<g><path style="opacity:0.008" fill="#9b9b9b" d="M 781.5,432.5 C 783.167,432.5 784.833,432.5 786.5,432.5C 786.5,445.5 786.5,458.5 786.5,471.5C 784.585,471.784 782.919,471.451 781.5,470.5C 782.833,470.5 784.167,470.5 785.5,470.5C 785.768,468.901 785.434,467.568 784.5,466.5C 784.5,456.833 784.5,447.167 784.5,437.5C 785.434,436.432 785.768,435.099 785.5,433.5C 783.901,433.768 782.568,433.434 781.5,432.5 Z"/></g>
<g><path style="opacity:0.095" fill="#e7e7e7" d="M 592.5,438.5 C 601.512,439.096 610.512,439.93 619.5,441C 620.056,441.383 620.389,441.883 620.5,442.5C 618.283,443.369 615.95,443.702 613.5,443.5C 606.856,442.336 600.19,441.336 593.5,440.5C 593.167,439.833 592.833,439.167 592.5,438.5 Z"/></g>
<g><path style="opacity:0.133" fill="#6e6e6e" d="M 620.5,442.5 C 620.5,443.167 620.833,443.5 621.5,443.5C 622.167,444.167 622.833,444.833 623.5,445.5C 619.96,445.247 616.627,444.581 613.5,443.5C 615.95,443.702 618.283,443.369 620.5,442.5 Z"/></g>
<g><path style="opacity:0.725" fill="#414141" d="M 407.5,444.5 C 411.489,444.116 415.155,444.783 418.5,446.5C 414.64,446.192 410.974,445.525 407.5,444.5 Z"/></g>
<g><path style="opacity:0.229" fill="#d8d8d8" d="M 621.5,443.5 C 630.512,444.096 639.512,444.93 648.5,446C 649.252,446.671 649.586,447.504 649.5,448.5C 647.5,448.5 645.5,448.5 643.5,448.5C 636.885,447.209 630.218,446.209 623.5,445.5C 622.833,444.833 622.167,444.167 621.5,443.5 Z"/></g>
<g><path style="opacity:0.494" fill="#464646" d="M 643.5,448.5 C 645.5,448.5 647.5,448.5 649.5,448.5C 649.833,448.5 650.167,448.5 650.5,448.5C 651.833,449.167 653.167,449.833 654.5,450.5C 650.613,450.354 646.946,449.687 643.5,448.5 Z"/></g>
<g><path style="opacity:0.108" fill="#ebebeb" d="M 369.5,439.5 C 370.5,439.5 371.5,439.5 372.5,439.5C 384.153,441.239 395.82,442.906 407.5,444.5C 410.974,445.525 414.64,446.192 418.5,446.5C 425.123,447.715 431.789,448.715 438.5,449.5C 444.556,451.453 450.889,452.453 457.5,452.5C 457.5,453.167 457.5,453.833 457.5,454.5C 452.821,454.666 448.155,454.499 443.5,454C 441.699,453.683 441.366,453.016 442.5,452C 432.519,450.835 422.519,450.002 412.5,449.5C 412.5,448.5 412.5,447.5 412.5,446.5C 407.489,446.666 402.489,446.499 397.5,446C 397.833,445.667 398.167,445.333 398.5,445C 389.042,444.478 379.709,443.478 370.5,442C 369.748,441.329 369.414,440.496 369.5,439.5 Z"/></g>
<g><path style="opacity:0.745" fill="#464646" d="M 438.5,449.5 C 445.111,449.547 451.444,450.547 457.5,452.5C 450.889,452.453 444.556,451.453 438.5,449.5 Z"/></g>
<g><path style="opacity:0.1" fill="#e1e1e1" d="M 650.5,448.5 C 660.535,448.837 670.535,449.671 680.5,451C 681.126,451.75 681.626,452.584 682,453.5C 685.744,452.374 689.577,452.207 693.5,453C 694.756,453.417 695.423,454.25 695.5,455.5C 693.167,455.5 690.833,455.5 688.5,455.5C 677.132,454.019 665.799,452.352 654.5,450.5C 653.167,449.833 651.833,449.167 650.5,448.5 Z"/></g>
<g><path style="opacity:0.024" fill="#808080" d="M 457.5,452.5 C 458.492,452.328 459.158,452.662 459.5,453.5C 459.5,453.833 459.5,454.167 459.5,454.5C 458.833,454.5 458.167,454.5 457.5,454.5C 457.5,453.833 457.5,453.167 457.5,452.5 Z"/></g>
<g><path style="opacity:0.076" fill="#eaeaea" d="M 459.5,453.5 C 464.37,453.69 469.036,454.356 473.5,455.5C 477.816,456.592 482.149,457.592 486.5,458.5C 481.456,458.827 476.456,458.494 471.5,457.5C 467.084,457.118 463.084,456.118 459.5,454.5C 459.5,454.167 459.5,453.833 459.5,453.5 Z"/></g>
<g><path style="opacity:0.918" fill="#656565" d="M 473.5,455.5 C 478.536,455.588 483.536,456.088 488.5,457C 489.416,457.278 490.082,457.778 490.5,458.5C 489.833,458.5 489.167,458.5 488.5,458.5C 487.833,458.5 487.167,458.5 486.5,458.5C 482.149,457.592 477.816,456.592 473.5,455.5 Z"/></g>
<g><path style="opacity:0.081" fill="#f6f6f6" d="M 697.5,455.5 C 702.294,454.903 706.627,455.57 710.5,457.5C 709.791,458.404 708.791,458.737 707.5,458.5C 707.167,458.5 706.833,458.5 706.5,458.5C 703.592,457.184 700.592,456.184 697.5,455.5 Z"/></g>
<g><path style="opacity:0.424" fill="#a1a1a1" d="M 688.5,455.5 C 690.833,455.5 693.167,455.5 695.5,455.5C 696.167,455.5 696.833,455.5 697.5,455.5C 700.592,456.184 703.592,457.184 706.5,458.5C 700.291,457.979 694.291,456.979 688.5,455.5 Z"/></g>
<g><path style="opacity:0.1" fill="#fcfcfc" d="M 713.5,457.5 C 717.182,457.335 720.848,457.501 724.5,458C 725.598,458.77 725.598,459.603 724.5,460.5C 721.482,460.296 718.482,459.963 715.5,459.5C 714.833,459.5 714.167,459.5 713.5,459.5C 713.5,458.833 713.5,458.167 713.5,457.5 Z"/></g>
<g><path style="opacity:0.093" fill="#f4f4f4" d="M 488.5,458.5 C 489.167,458.5 489.833,458.5 490.5,458.5C 493.482,458.963 496.482,459.296 499.5,459.5C 499.833,460.167 500.167,460.833 500.5,461.5C 496.5,461.5 492.5,461.5 488.5,461.5C 488.5,460.5 488.5,459.5 488.5,458.5 Z"/></g>
<g><path style="opacity:0.247" fill="#a9a9a9" d="M 710.5,457.5 C 711.5,457.5 712.5,457.5 713.5,457.5C 713.5,458.167 713.5,458.833 713.5,459.5C 711.265,459.795 709.265,459.461 707.5,458.5C 708.791,458.737 709.791,458.404 710.5,457.5 Z"/></g>
<g><path style="opacity:0.067" fill="#979797" d="M 499.5,459.5 C 503.664,459.956 507.664,460.622 511.5,461.5C 508.615,461.194 505.948,461.527 503.5,462.5C 502.609,461.89 501.609,461.557 500.5,461.5C 500.167,460.833 499.833,460.167 499.5,459.5 Z"/></g>
<g><path style="opacity:0.404" fill="#7c7c7c" d="M 715.5,459.5 C 718.482,459.963 721.482,460.296 724.5,460.5C 725.167,460.5 725.833,460.5 726.5,460.5C 729.592,461.184 732.592,462.184 735.5,463.5C 728.572,462.803 721.906,461.47 715.5,459.5 Z"/></g>
<g><path style="opacity:0.132" fill="#efefef" d="M 511.5,461.5 C 513.833,462.167 516.167,462.833 518.5,463.5C 513.305,463.821 508.305,463.487 503.5,462.5C 505.948,461.527 508.615,461.194 511.5,461.5 Z"/></g>
<g><path style="opacity:0.51" fill="#555555" d="M 511.5,461.5 C 515.489,461.116 519.155,461.783 522.5,463.5C 521.391,463.557 520.391,463.89 519.5,464.5C 519.5,463.833 519.167,463.5 518.5,463.5C 516.167,462.833 513.833,462.167 511.5,461.5 Z"/></g>
<g><path style="opacity:0.063" fill="#e5e5e5" d="M 522.5,463.5 C 525.518,463.704 528.518,464.037 531.5,464.5C 531.5,465.167 531.5,465.833 531.5,466.5C 527.818,466.665 524.152,466.499 520.5,466C 519.944,465.617 519.611,465.117 519.5,464.5C 520.391,463.89 521.391,463.557 522.5,463.5 Z"/></g>
<g><path style="opacity:0.035" fill="#767676" d="M 531.5,464.5 C 533.099,464.232 534.432,464.566 535.5,465.5C 534.833,465.5 534.5,465.833 534.5,466.5C 533.5,466.5 532.5,466.5 531.5,466.5C 531.5,465.833 531.5,465.167 531.5,464.5 Z"/></g>
<g><path style="opacity:0.071" fill="#ebebeb" d="M 535.5,465.5 C 538.096,466.265 540.763,466.599 543.5,466.5C 544.167,467.167 544.833,467.833 545.5,468.5C 541.351,469.08 537.684,468.414 534.5,466.5C 534.5,465.833 534.833,465.5 535.5,465.5 Z"/></g>
<g><path style="opacity:0.071" fill="#ebebeb" d="M 726.5,460.5 C 736.195,460.915 745.862,461.748 755.5,463C 755.957,463.414 756.291,463.914 756.5,464.5C 763.679,465.413 770.846,466.413 778,467.5C 780.361,467.496 782.527,467.163 784.5,466.5C 785.434,467.568 785.768,468.901 785.5,470.5C 784.167,470.5 782.833,470.5 781.5,470.5C 778.482,470.296 775.482,469.963 772.5,469.5C 767.894,467.124 762.894,466.124 757.5,466.5C 750.136,465.717 742.803,464.717 735.5,463.5C 732.592,462.184 729.592,461.184 726.5,460.5 Z"/></g>
<g><path style="opacity:0.396" fill="#989898" d="M 757.5,466.5 C 762.894,466.124 767.894,467.124 772.5,469.5C 767.248,469.138 762.248,468.138 757.5,466.5 Z"/></g>
<g><path style="opacity:0.11" fill="#fcfcfc" d="M 546.5,468.5 C 550.198,468.552 553.865,468.886 557.5,469.5C 558.167,469.5 558.833,469.5 559.5,469.5C 559.5,470.167 559.5,470.833 559.5,471.5C 555.486,471.666 551.486,471.499 547.5,471C 546.748,470.329 546.414,469.496 546.5,468.5 Z"/></g>
<g><path style="opacity:0.62" fill="#8d8d8d" d="M 543.5,466.5 C 548.431,466.856 553.098,467.856 557.5,469.5C 553.865,468.886 550.198,468.552 546.5,468.5C 546.167,468.5 545.833,468.5 545.5,468.5C 544.833,467.833 544.167,467.167 543.5,466.5 Z"/></g>
<g><path style="opacity:0.004" fill="#a5a5a5" d="M 559.5,469.5 C 561.415,469.216 563.081,469.549 564.5,470.5C 564.5,471.167 564.5,471.833 564.5,472.5C 562.958,471.699 561.292,471.366 559.5,471.5C 559.5,470.833 559.5,470.167 559.5,469.5 Z"/></g>
<g><path style="opacity:0.068" fill="#ebebeb" d="M 564.5,470.5 C 568.179,470.724 571.846,471.058 575.5,471.5C 575.833,472.167 576.167,472.833 576.5,473.5C 572.298,473.817 568.298,473.483 564.5,472.5C 564.5,471.833 564.5,471.167 564.5,470.5 Z"/></g>
<g><path style="opacity:0.071" fill="#7a7a7a" d="M 575.5,471.5 C 578.373,471.802 581.039,472.469 583.5,473.5C 581.833,473.5 580.167,473.5 578.5,473.5C 577.833,473.5 577.167,473.5 576.5,473.5C 576.167,472.833 575.833,472.167 575.5,471.5 Z"/></g>
<g><path style="opacity:0.127" fill="#ededed" d="M 578.5,473.5 C 580.167,473.5 581.833,473.5 583.5,473.5C 584.833,473.5 586.167,473.5 587.5,473.5C 588.5,474.167 589.5,474.833 590.5,475.5C 586.029,476.089 582.029,475.423 578.5,473.5 Z"/></g>
<g><path style="opacity:0.282" fill="#797979" d="M 587.5,473.5 C 590.228,473.171 592.562,473.837 594.5,475.5C 593.833,475.833 593.167,476.167 592.5,476.5C 592.158,475.662 591.492,475.328 590.5,475.5C 589.5,474.833 588.5,474.167 587.5,473.5 Z"/></g>
<g><path style="opacity:0.069" fill="#f6f6f6" d="M 594.5,475.5 C 597.833,475.833 601.167,476.167 604.5,476.5C 604.833,477.167 605.167,477.833 605.5,478.5C 601.486,478.666 597.486,478.499 593.5,478C 592.944,477.617 592.611,477.117 592.5,476.5C 593.167,476.167 593.833,475.833 594.5,475.5 Z"/></g>
<g><path style="opacity:0.235" fill="#9c9c9c" d="M 604.5,476.5 C 608.36,476.808 612.026,477.475 615.5,478.5C 612.833,478.5 610.167,478.5 607.5,478.5C 606.833,478.5 606.167,478.5 605.5,478.5C 605.167,477.833 604.833,477.167 604.5,476.5 Z"/></g>
<g><path style="opacity:0.099" fill="#f8f8f8" d="M 607.5,478.5 C 610.167,478.5 612.833,478.5 615.5,478.5C 617.167,479.167 618.833,479.833 620.5,480.5C 615.706,481.097 611.373,480.43 607.5,478.5 Z"/></g>
<g><path style="opacity:0.494" fill="#868686" d="M 615.5,478.5 C 619.122,478.322 622.456,478.989 625.5,480.5C 624.5,480.5 623.5,480.5 622.5,480.5C 621.833,480.5 621.167,480.5 620.5,480.5C 618.833,479.833 617.167,479.167 615.5,478.5 Z"/></g>
<g><path style="opacity:0.596" fill="#636363" d="M 655.5,484.5 C 658.495,484.294 661.162,484.96 663.5,486.5C 660.572,486.435 657.905,485.768 655.5,484.5 Z"/></g>
<g><path style="opacity:0.096" fill="#ebebeb" d="M 622.5,480.5 C 623.5,480.5 624.5,480.5 625.5,480.5C 635.496,481.832 645.496,483.166 655.5,484.5C 657.905,485.768 660.572,486.435 663.5,486.5C 668.484,487.275 673.484,487.942 678.5,488.5C 678.833,489.167 679.167,489.833 679.5,490.5C 675.154,490.666 670.821,490.499 666.5,490C 656.64,487.777 646.64,485.777 636.5,484C 631.833,483.667 627.167,483.333 622.5,483C 621.402,482.23 621.402,481.397 622.5,480.5 Z"/></g>
<g><path style="opacity:0.136" fill="#fcfcfc" d="M 268.5,489.5 C 266.924,490.143 265.59,491.143 264.5,492.5C 258.433,495.231 255.1,499.897 254.5,506.5C 253.833,570.167 253.167,633.833 252.5,697.5C 251.171,631.568 251.171,565.568 252.5,499.5C 254.096,495.999 256.429,492.999 259.5,490.5C 262.428,489.516 265.428,489.183 268.5,489.5 Z"/></g>
<g><path style="opacity:0.09" fill="#e4e4e4" d="M 273.5,489.5 C 278.294,488.903 282.627,489.57 286.5,491.5C 283.939,492.767 281.272,492.767 278.5,491.5C 276.833,490.833 275.167,490.167 273.5,489.5 Z"/></g>
<g><path style="opacity:0.063" fill="#9b9b9b" d="M 678.5,488.5 C 680.698,488.12 682.365,488.787 683.5,490.5C 682.167,490.5 680.833,490.5 679.5,490.5C 679.167,489.833 678.833,489.167 678.5,488.5 Z"/></g>
<g><path style="opacity:0.275" fill="#858585" d="M 688.5,490.5 C 687.391,490.557 686.391,490.89 685.5,491.5C 685.5,491.167 685.5,490.833 685.5,490.5C 686.5,489.167 687.5,489.167 688.5,490.5 Z"/></g>
<g><path style="opacity:0.467" fill="#858585" d="M 268.5,489.5 C 270.167,489.5 271.833,489.5 273.5,489.5C 275.167,490.167 276.833,490.833 278.5,491.5C 273.77,491.283 269.103,491.617 264.5,492.5C 265.59,491.143 266.924,490.143 268.5,489.5 Z"/></g>
<g><path style="opacity:0.075" fill="#f3f3f3" d="M 688.5,490.5 C 691.167,491.167 693.833,491.833 696.5,492.5C 692.629,492.815 688.962,492.482 685.5,491.5C 686.391,490.89 687.391,490.557 688.5,490.5 Z"/></g>
<g><path style="opacity:0.533" fill="#676767" d="M 688.5,490.5 C 693.122,490.156 697.455,490.823 701.5,492.5C 700.167,492.5 698.833,492.5 697.5,492.5C 697.167,492.5 696.833,492.5 696.5,492.5C 693.833,491.833 691.167,491.167 688.5,490.5 Z"/></g>
<g><path style="opacity:0.083" fill="#e7e7e7" d="M 287.5,491.5 C 292.167,491.5 296.833,491.5 301.5,491.5C 301.5,492.5 301.5,493.5 301.5,494.5C 300.167,494.5 298.833,494.5 297.5,494.5C 295.152,494.33 292.818,493.997 290.5,493.5C 288.97,493.36 287.97,492.693 287.5,491.5 Z"/></g>
<g><path style="opacity:0.037" fill="#f9f9f9" d="M 697.5,492.5 C 698.833,492.5 700.167,492.5 701.5,492.5C 707.646,493.347 713.646,494.347 719.5,495.5C 720.209,496.404 721.209,496.737 722.5,496.5C 722.832,563.335 722.499,630.002 721.5,696.5C 721.5,630.167 721.5,563.833 721.5,497.5C 713.5,496.833 705.5,496.167 697.5,495.5C 697.5,494.5 697.5,493.5 697.5,492.5 Z"/></g>
<g><path style="opacity:0.69" fill="#696969" d="M 297.5,494.5 C 298.833,494.5 300.167,494.5 301.5,494.5C 301.833,494.5 302.167,494.5 302.5,494.5C 305.931,495.135 309.264,496.135 312.5,497.5C 307.248,497.138 302.248,496.138 297.5,494.5 Z"/></g>
<g><path style="opacity:0.294" fill="#d2d2d2" d="M 719.5,495.5 C 720.833,495.5 722.167,495.5 723.5,495.5C 723.5,563.167 723.5,630.833 723.5,698.5C 722.508,698.672 721.842,698.338 721.5,697.5C 721.5,697.167 721.5,696.833 721.5,696.5C 722.499,630.002 722.832,563.335 722.5,496.5C 721.209,496.737 720.209,496.404 719.5,495.5 Z"/></g>
<g><path style="opacity:0.592" fill="#5f5f5f" d="M 328.5,499.5 C 333.777,499.775 338.777,500.775 343.5,502.5C 338.205,502.322 333.205,501.322 328.5,499.5 Z"/></g>
<g><path style="opacity:0.094" fill="#ebebeb" d="M 302.5,494.5 C 317.311,495.5 331.977,497 346.5,499C 346.957,499.414 347.291,499.914 347.5,500.5C 357.136,501.974 366.802,503.141 376.5,504C 377.598,504.77 377.598,505.603 376.5,506.5C 372.802,506.448 369.135,506.114 365.5,505.5C 362.482,505.296 359.482,504.963 356.5,504.5C 356.082,503.778 355.416,503.278 354.5,503C 351.518,502.502 348.518,502.335 345.5,502.5C 344.833,502.5 344.167,502.5 343.5,502.5C 338.777,500.775 333.777,499.775 328.5,499.5C 323.153,498.927 317.82,498.26 312.5,497.5C 309.264,496.135 305.931,495.135 302.5,494.5 Z"/></g>
<g><path style="opacity:0.431" fill="#959595" d="M 345.5,502.5 C 348.518,502.335 351.518,502.502 354.5,503C 355.416,503.278 356.082,503.778 356.5,504.5C 352.64,504.192 348.974,503.525 345.5,502.5 Z"/></g>
<g><path style="opacity:0.112" fill="#ececec" d="M 762.5,502.5 C 771.782,504.112 781.115,505.445 790.5,506.5C 793.408,507.816 796.408,508.816 799.5,509.5C 790.146,508.998 780.813,508.164 771.5,507C 768.649,504.752 765.315,503.918 761.5,504.5C 761.462,506.636 760.795,507.969 759.5,508.5C 758.539,506.735 758.205,504.735 758.5,502.5C 759.833,502.5 761.167,502.5 762.5,502.5 Z"/></g>
<g><path style="opacity:0.643" fill="#cdcdcd" d="M 254.5,506.5 C 254.5,570.5 254.5,634.5 254.5,698.5C 253.508,698.672 252.842,698.338 252.5,697.5C 253.167,633.833 253.833,570.167 254.5,506.5 Z"/></g>
<g><path style="opacity:0.49" fill="#696969" d="M 365.5,505.5 C 369.135,506.114 372.802,506.448 376.5,506.5C 377.167,506.5 377.833,506.5 378.5,506.5C 380.167,507.167 381.833,507.833 383.5,508.5C 377.18,508.6 371.18,507.6 365.5,505.5 Z"/></g>
<g><path style="opacity:0.306" fill="#696969" d="M 762.5,502.5 C 761.167,502.5 759.833,502.5 758.5,502.5C 758.205,504.735 758.539,506.735 759.5,508.5C 759.5,508.833 759.5,509.167 759.5,509.5C 758.5,632.332 758.167,755.332 758.5,878.5C 757.5,753.001 757.167,627.334 757.5,501.5C 759.415,501.216 761.081,501.549 762.5,502.5 Z"/></g>
<g><path style="opacity:0.51" fill="#5d5d5d" d="M 790.5,506.5 C 796.797,507.32 803.131,507.653 809.5,507.5C 808.5,508.167 807.5,508.833 806.5,509.5C 804.167,509.5 801.833,509.5 799.5,509.5C 796.408,508.816 793.408,507.816 790.5,506.5 Z"/></g>
<g><path style="opacity:0.272" fill="#dddddd" d="M 378.5,506.5 C 387.512,507.096 396.512,507.93 405.5,509C 406.056,509.383 406.389,509.883 406.5,510.5C 405.292,511.234 403.959,511.567 402.5,511.5C 396.079,510.818 389.746,509.818 383.5,508.5C 381.833,507.833 380.167,507.167 378.5,506.5 Z"/></g>
<g><path style="opacity:0.125" fill="#f7f7f7" d="M 407.5,511.5 C 412.294,510.903 416.627,511.57 420.5,513.5C 415.951,513.376 411.618,512.709 407.5,511.5 Z"/></g>
<g><path style="opacity:0.553" fill="#666666" d="M 406.5,510.5 C 406.5,511.167 406.833,511.5 407.5,511.5C 411.618,512.709 415.951,513.376 420.5,513.5C 421.167,513.5 421.833,513.5 422.5,513.5C 422.833,514.167 423.167,514.833 423.5,515.5C 416.231,514.891 409.231,513.558 402.5,511.5C 403.959,511.567 405.292,511.234 406.5,510.5 Z"/></g>
<g><path style="opacity:0.065" fill="#eaeaea" d="M 422.5,513.5 C 426.702,513.183 430.702,513.517 434.5,514.5C 434.672,515.492 434.338,516.158 433.5,516.5C 430.167,516.167 426.833,515.833 423.5,515.5C 423.167,514.833 422.833,514.167 422.5,513.5 Z"/></g>
<g><path style="opacity:0.612" fill="#505050" d="M 434.5,514.5 C 435.391,515.11 436.391,515.443 437.5,515.5C 440.56,517.253 443.893,518.587 447.5,519.5C 443.491,519.142 439.491,518.642 435.5,518C 434.584,517.722 433.918,517.222 433.5,516.5C 434.338,516.158 434.672,515.492 434.5,514.5 Z"/></g>
<g><path style="opacity:0.146" fill="#f8f8f8" d="M 437.5,515.5 C 441.182,515.335 444.848,515.501 448.5,516C 451.121,517.667 453.787,519.334 456.5,521C 457.09,522.509 457.756,524.009 458.5,525.5C 459.5,582.829 459.833,640.163 459.5,697.5C 458.833,642.167 458.167,586.833 457.5,531.5C 455.953,525.958 452.62,521.958 447.5,519.5C 443.893,518.587 440.56,517.253 437.5,515.5 Z"/></g>
<g><path style="opacity:0.128" fill="#f5f5f5" d="M 510.5,528.5 C 498.39,524.972 489.39,528.639 483.5,539.5C 483.183,536.428 483.516,533.428 484.5,530.5C 486.179,528.896 488.179,528.229 490.5,528.5C 490.5,527.5 490.5,526.5 490.5,525.5C 497.167,525.5 503.833,525.5 510.5,525.5C 510.5,526.5 510.5,527.5 510.5,528.5 Z"/></g>
<g><path style="opacity:0.093" fill="#fbfbfb" d="M 291.5,528.5 C 294.167,528.833 296.833,529.167 299.5,529.5C 300.167,530.167 300.833,530.833 301.5,531.5C 298.5,531.5 295.5,531.5 292.5,531.5C 292.5,586.5 292.5,641.5 292.5,696.5C 291.662,696.842 291.328,697.508 291.5,698.5C 290.833,698.5 290.167,698.5 289.5,698.5C 288.837,641.49 289.504,584.824 291.5,528.5 Z"/></g>
<g><path style="opacity:0.424" fill="#646464" d="M 299.5,529.5 C 305.709,530.013 311.709,531.013 317.5,532.5C 313.466,532.495 309.466,532.162 305.5,531.5C 304.167,531.5 302.833,531.5 301.5,531.5C 300.833,530.833 300.167,530.167 299.5,529.5 Z"/></g>
<g><path style="opacity:0.086" fill="#dfdfdf" d="M 511.5,528.5 C 526.54,529.494 541.54,530.994 556.5,533C 557.598,533.77 557.598,534.603 556.5,535.5C 555.167,535.5 553.833,535.5 552.5,535.5C 538.492,534.333 524.826,531.999 511.5,528.5 Z"/></g>
<g><path style="opacity:0.14" fill="#efefef" d="M 305.5,531.5 C 309.466,532.162 313.466,532.495 317.5,532.5C 326.122,534.048 334.789,535.381 343.5,536.5C 345.167,537.167 346.833,537.833 348.5,538.5C 334.733,537.949 321.066,536.449 307.5,534C 306.244,533.583 305.577,532.75 305.5,531.5 Z"/></g>
<g><path style="opacity:0.922" fill="#7c7c7c" d="M 291.5,528.5 C 289.504,584.824 288.837,641.49 289.5,698.5C 289.167,698.5 288.833,698.5 288.5,698.5C 288.5,641.5 288.5,584.5 288.5,527.5C 289.791,527.263 290.791,527.596 291.5,528.5 Z"/></g>
<g><path style="opacity:0.549" fill="#939393" d="M 457.5,531.5 C 458.167,586.833 458.833,642.167 459.5,697.5C 467.5,697.5 475.5,697.5 483.5,697.5C 475.231,699.47 466.565,700.136 457.5,699.5C 457.5,643.5 457.5,587.5 457.5,531.5 Z"/></g>
<g><path style="opacity:0.537" fill="#303030" d="M 343.5,536.5 C 346.518,536.335 349.518,536.502 352.5,537C 353.416,537.278 354.082,537.778 354.5,538.5C 353.391,538.557 352.391,538.89 351.5,539.5C 350.791,538.596 349.791,538.263 348.5,538.5C 346.833,537.833 345.167,537.167 343.5,536.5 Z"/></g>
<g><path style="opacity:0.471" fill="#787878" d="M 552.5,535.5 C 553.833,535.5 555.167,535.5 556.5,535.5C 557.167,535.5 557.833,535.5 558.5,535.5C 559.167,536.167 559.833,536.833 560.5,537.5C 557.572,537.435 554.905,536.768 552.5,535.5 Z"/></g>
<g><path style="opacity:0.021" fill="#dddddd" d="M 354.5,538.5 C 357.167,538.833 359.833,539.167 362.5,539.5C 362.5,540.167 362.5,540.833 362.5,541.5C 359.15,541.665 355.817,541.498 352.5,541C 351.944,540.617 351.611,540.117 351.5,539.5C 352.391,538.89 353.391,538.557 354.5,538.5 Z"/></g>
<g><path style="opacity:0.041" fill="#757575" d="M 362.5,539.5 C 363.492,539.328 364.158,539.662 364.5,540.5C 364.5,540.833 364.5,541.167 364.5,541.5C 363.833,541.5 363.167,541.5 362.5,541.5C 362.5,540.833 362.5,540.167 362.5,539.5 Z"/></g>
<g><path style="opacity:0.126" fill="#e7e7e7" d="M 558.5,535.5 C 568.475,536.477 578.475,537.144 588.5,537.5C 588.5,538.5 588.5,539.5 588.5,540.5C 593.695,540.179 598.695,540.513 603.5,541.5C 600.946,542.388 598.279,542.721 595.5,542.5C 583.809,541.031 572.142,539.364 560.5,537.5C 559.833,536.833 559.167,536.167 558.5,535.5 Z"/></g>
<g><path style="opacity:0.092" fill="#f2f2f2" d="M 364.5,540.5 C 365.5,540.5 366.5,540.5 367.5,540.5C 370.688,541.982 374.021,542.982 377.5,543.5C 372.706,544.097 368.373,543.43 364.5,541.5C 364.5,541.167 364.5,540.833 364.5,540.5 Z"/></g>
<g><path style="opacity:0.137" fill="#7f7f7f" d="M 367.5,540.5 C 373.69,541.143 379.69,542.143 385.5,543.5C 383.167,543.5 380.833,543.5 378.5,543.5C 378.167,543.5 377.833,543.5 377.5,543.5C 374.021,542.982 370.688,541.982 367.5,540.5 Z"/></g>
<g><path style="opacity:0.086" fill="#a1a1a1" d="M 603.5,541.5 C 603.842,542.338 604.508,542.672 605.5,542.5C 605.5,543.167 605.5,543.833 605.5,544.5C 601.96,544.247 598.627,543.581 595.5,542.5C 598.279,542.721 600.946,542.388 603.5,541.5 Z"/></g>
<g><path style="opacity:0.072" fill="#eeeeee" d="M 605.5,542.5 C 609.971,541.911 613.971,542.577 617.5,544.5C 616.791,545.404 615.791,545.737 614.5,545.5C 611.482,545.296 608.482,544.963 605.5,544.5C 605.5,543.833 605.5,543.167 605.5,542.5 Z"/></g>
<g><path style="opacity:0.086" fill="#f2f2f2" d="M 619.5,544.5 C 623.514,544.334 627.514,544.501 631.5,545C 632.252,545.671 632.586,546.504 632.5,547.5C 627.804,547.329 623.137,546.829 618.5,546C 619.056,545.617 619.389,545.117 619.5,544.5 Z"/></g>
<g><path style="opacity:0.078" fill="#ebebeb" d="M 378.5,543.5 C 380.833,543.5 383.167,543.5 385.5,543.5C 391.684,544.598 398.018,545.598 404.5,546.5C 405.167,547.167 405.833,547.833 406.5,548.5C 397.488,547.904 388.488,547.07 379.5,546C 378.748,545.329 378.414,544.496 378.5,543.5 Z"/></g>
<g><path style="opacity:0.086" fill="#8e8e8e" d="M 404.5,546.5 C 408.337,546.931 412.003,547.598 415.5,548.5C 413.167,548.5 410.833,548.5 408.5,548.5C 407.833,548.5 407.167,548.5 406.5,548.5C 405.833,547.833 405.167,547.167 404.5,546.5 Z"/></g>
<g><path style="opacity:0.506" fill="#646464" d="M 617.5,544.5 C 618.167,544.5 618.833,544.5 619.5,544.5C 619.389,545.117 619.056,545.617 618.5,546C 623.137,546.829 627.804,547.329 632.5,547.5C 633.5,547.5 634.5,547.5 635.5,547.5C 636.5,548.167 637.5,548.833 638.5,549.5C 630.198,549.135 622.198,547.801 614.5,545.5C 615.791,545.737 616.791,545.404 617.5,544.5 Z"/></g>
<g><path style="opacity:0.098" fill="#f7f7f7" d="M 635.5,547.5 C 640.363,547.181 645.03,547.514 649.5,548.5C 646.609,549.403 643.609,549.736 640.5,549.5C 639.833,549.5 639.167,549.5 638.5,549.5C 637.5,548.833 636.5,548.167 635.5,547.5 Z"/></g>
<g><path style="opacity:0.131" fill="#f1f1f1" d="M 408.5,548.5 C 410.833,548.5 413.167,548.5 415.5,548.5C 417.607,549.468 419.941,549.802 422.5,549.5C 422.672,550.492 422.338,551.158 421.5,551.5C 417.018,550.674 412.351,550.174 407.5,550C 408.056,549.617 408.389,549.117 408.5,548.5 Z"/></g>
<g><path style="opacity:0.235" fill="#b8b8b8" d="M 649.5,548.5 C 650.209,549.404 651.209,549.737 652.5,549.5C 652.5,550.167 652.5,550.833 652.5,551.5C 648.236,551.656 644.236,550.989 640.5,549.5C 643.609,549.736 646.609,549.403 649.5,548.5 Z"/></g>
<g><path style="opacity:0.105" fill="#fafafa" d="M 652.5,549.5 C 656.182,549.335 659.848,549.501 663.5,550C 664.598,550.77 664.598,551.603 663.5,552.5C 659.802,552.448 656.135,552.114 652.5,551.5C 652.5,550.833 652.5,550.167 652.5,549.5 Z"/></g>
<g><path style="opacity:0.49" fill="#757575" d="M 652.5,551.5 C 656.135,552.114 659.802,552.448 663.5,552.5C 664.167,552.5 664.833,552.5 665.5,552.5C 668.931,553.135 672.264,554.135 675.5,555.5C 667.567,554.89 659.9,553.557 652.5,551.5 Z"/></g>
<g><path style="opacity:0.065" fill="#565656" d="M 422.5,549.5 C 423.499,599.331 423.832,649.331 423.5,699.5C 378.33,699.832 333.33,699.499 288.5,698.5C 288.833,698.5 289.167,698.5 289.5,698.5C 290.167,698.5 290.833,698.5 291.5,698.5C 335.337,698.832 379.003,698.499 422.5,697.5C 421.505,648.905 421.172,600.239 421.5,551.5C 422.338,551.158 422.672,550.492 422.5,549.5 Z"/></g>
<g><path style="opacity:0.604" fill="#636363" d="M 520.5,566.5 C 520.5,566.167 520.5,565.833 520.5,565.5C 523.187,565.336 525.854,565.503 528.5,566C 529.416,566.278 530.082,566.778 530.5,567.5C 529.5,567.5 528.5,567.5 527.5,567.5C 526.833,567.5 526.167,567.5 525.5,567.5C 524.081,566.549 522.415,566.216 520.5,566.5 Z"/></g>
<g><path style="opacity:0.127" fill="#fefefe" d="M 520.5,566.5 C 522.415,566.216 524.081,566.549 525.5,567.5C 523.833,567.5 522.167,567.5 520.5,567.5C 520.5,610.833 520.5,654.167 520.5,697.5C 519.508,697.672 518.842,697.338 518.5,696.5C 519.167,653.167 519.833,609.833 520.5,566.5 Z"/></g>
<g><path style="opacity:0.49" fill="#dfdfdf" d="M 518.5,565.5 C 519.167,565.5 519.833,565.5 520.5,565.5C 520.5,565.833 520.5,566.167 520.5,566.5C 519.833,609.833 519.167,653.167 518.5,696.5C 518.5,652.833 518.5,609.167 518.5,565.5 Z"/></g>
<g><path style="opacity:0.105" fill="#f7f7f7" d="M 527.5,567.5 C 528.5,567.5 529.5,567.5 530.5,567.5C 533.807,568.051 537.14,568.384 540.5,568.5C 540.5,569.167 540.5,569.833 540.5,570.5C 536.167,570.5 531.833,570.5 527.5,570.5C 527.5,569.5 527.5,568.5 527.5,567.5 Z"/></g>
<g><path style="opacity:0.047" fill="#989898" d="M 540.5,568.5 C 544.04,568.753 547.373,569.419 550.5,570.5C 548.5,570.5 546.5,570.5 544.5,570.5C 543.167,570.5 541.833,570.5 540.5,570.5C 540.5,569.833 540.5,569.167 540.5,568.5 Z"/></g>
<g><path style="opacity:0.097" fill="#f9f9f9" d="M 544.5,570.5 C 546.5,570.5 548.5,570.5 550.5,570.5C 552.833,571.167 555.167,571.833 557.5,572.5C 552.706,573.097 548.373,572.43 544.5,570.5 Z"/></g>
<g><path style="opacity:0.482" fill="#747474" d="M 550.5,570.5 C 555.731,570.444 560.731,571.111 565.5,572.5C 563.05,572.298 560.717,572.631 558.5,573.5C 558.5,572.833 558.167,572.5 557.5,572.5C 555.167,571.833 552.833,571.167 550.5,570.5 Z"/></g>
<g><path style="opacity:0.49" fill="#838383" d="M 686.5,566.5 C 687.167,610.167 687.833,653.833 688.5,697.5C 699.5,697.5 710.5,697.5 721.5,697.5C 721.842,698.338 722.508,698.672 723.5,698.5C 711.431,699.83 699.265,699.83 687,698.5C 686.5,654.501 686.333,610.501 686.5,566.5 Z"/></g>
<g><path style="opacity:0.129" fill="#f6f6f6" d="M 665.5,552.5 C 674.11,551.267 681.444,553.6 687.5,559.5C 688.5,605.495 688.833,651.495 688.5,697.5C 687.833,653.833 687.167,610.167 686.5,566.5C 684.404,561.281 680.737,557.614 675.5,555.5C 672.264,554.135 668.931,553.135 665.5,552.5 Z"/></g>
<g><path style="opacity:0.094" fill="#eeeeee" d="M 565.5,572.5 C 572.092,573.75 578.759,574.75 585.5,575.5C 585.833,576.167 586.167,576.833 586.5,577.5C 577.488,576.904 568.488,576.07 559.5,575C 558.944,574.617 558.611,574.117 558.5,573.5C 560.717,572.631 563.05,572.298 565.5,572.5 Z"/></g>
<g><path style="opacity:0.11" fill="#f3f3f3" d="M 588.5,577.5 C 592.198,577.552 595.865,577.886 599.5,578.5C 601.167,578.5 602.833,578.5 604.5,578.5C 604.167,579.167 603.833,579.833 603.5,580.5C 598.821,580.666 594.155,580.499 589.5,580C 588.748,579.329 588.414,578.496 588.5,577.5 Z"/></g>
<g><path style="opacity:0.588" fill="#8b8b8b" d="M 585.5,575.5 C 590.45,575.77 595.117,576.77 599.5,578.5C 595.865,577.886 592.198,577.552 588.5,577.5C 587.833,577.5 587.167,577.5 586.5,577.5C 586.167,576.833 585.833,576.167 585.5,575.5 Z"/></g>
<g><path style="opacity:0.012" fill="#787878" d="M 604.5,578.5 C 605.791,578.263 606.791,578.596 607.5,579.5C 606.508,579.328 605.842,579.662 605.5,580.5C 604.833,580.5 604.167,580.5 603.5,580.5C 603.833,579.833 604.167,579.167 604.5,578.5 Z"/></g>
<g><path style="opacity:0.076" fill="#f1f1f1" d="M 607.5,579.5 C 610.167,579.833 612.833,580.167 615.5,580.5C 616.5,581.167 617.5,581.833 618.5,582.5C 613.706,583.097 609.373,582.43 605.5,580.5C 605.842,579.662 606.508,579.328 607.5,579.5 Z"/></g>
<g><path style="opacity:0.055" fill="#9f9f9f" d="M 615.5,580.5 C 619.04,580.753 622.373,581.419 625.5,582.5C 623.833,582.5 622.167,582.5 620.5,582.5C 619.833,582.5 619.167,582.5 618.5,582.5C 617.5,581.833 616.5,581.167 615.5,580.5 Z"/></g>
<g><path style="opacity:0.117" fill="#f1f1f1" d="M 620.5,582.5 C 622.167,582.5 623.833,582.5 625.5,582.5C 626.833,582.5 628.167,582.5 629.5,582.5C 630.5,583.167 631.5,583.833 632.5,584.5C 628.154,584.666 623.821,584.499 619.5,584C 620.056,583.617 620.389,583.117 620.5,582.5 Z"/></g>
<g><path style="opacity:0.522" fill="#818181" d="M 629.5,582.5 C 632.495,582.294 635.162,582.96 637.5,584.5C 636.5,584.5 635.5,584.5 634.5,584.5C 633.833,584.5 633.167,584.5 632.5,584.5C 631.5,583.833 630.5,583.167 629.5,582.5 Z"/></g>
<g><path style="opacity:0.108" fill="#e9e9e9" d="M 634.5,584.5 C 635.5,584.5 636.5,584.5 637.5,584.5C 641.519,584.646 645.519,584.979 649.5,585.5C 649.5,586.167 649.5,586.833 649.5,587.5C 644.5,587.5 639.5,587.5 634.5,587.5C 634.5,586.5 634.5,585.5 634.5,584.5 Z"/></g>
<g><path style="opacity:0.157" fill="#a7a7a7" d="M 649.5,585.5 C 650.496,585.414 651.329,585.748 652,586.5C 652.5,623.498 652.667,660.498 652.5,697.5C 652.167,697.5 651.833,697.5 651.5,697.5C 652.16,660.485 651.494,623.818 649.5,587.5C 649.5,586.833 649.5,586.167 649.5,585.5 Z"/></g>
<g><path style="opacity:0.071" fill="#898989" d="M 292.5,696.5 C 335.663,697.499 378.997,697.832 422.5,697.5C 379.003,698.499 335.337,698.832 291.5,698.5C 291.328,697.508 291.662,696.842 292.5,696.5 Z"/></g>
<g><path style="opacity:0.071" fill="#747474" d="M 518.5,565.5 C 518.5,609.167 518.5,652.833 518.5,696.5C 518.842,697.338 519.508,697.672 520.5,697.5C 564.167,697.5 607.833,697.5 651.5,697.5C 651.833,697.5 652.167,697.5 652.5,697.5C 630.51,698.833 608.177,699.5 585.5,699.5C 563.167,699.333 540.833,699.167 518.5,699C 517.168,654.402 517.168,609.902 518.5,565.5 Z"/></g>
<g><path style="opacity:0.121" fill="#fdfdfd" d="M 723.5,733.5 C 723.5,748.5 723.5,763.5 723.5,778.5C 554.833,778.5 386.167,778.5 217.5,778.5C 217.5,763.5 217.5,748.5 217.5,733.5C 386.167,733.5 554.833,733.5 723.5,733.5 Z M 218.5,734.5 C 218.5,748.833 218.5,763.167 218.5,777.5C 386.167,777.5 553.833,777.5 721.5,777.5C 721.5,763.167 721.5,748.833 721.5,734.5C 553.833,734.5 386.167,734.5 218.5,734.5 Z"/></g>
<g><path style="opacity:0.443" fill="#909090" d="M 723.5,733.5 C 554.833,733.5 386.167,733.5 217.5,733.5C 217.5,748.5 217.5,763.5 217.5,778.5C 386.167,778.5 554.833,778.5 723.5,778.5C 554.667,779.5 385.667,779.833 216.5,779.5C 216.5,763.833 216.5,748.167 216.5,732.5C 385.667,732.167 554.667,732.5 723.5,733.5 Z"/></g>
<g><path style="opacity:0.294" fill="#e1e1e1" d="M 721.5,814.5 C 722.167,814.5 722.833,814.5 723.5,814.5C 723.5,835.5 723.5,856.5 723.5,877.5C 722.833,877.5 722.167,877.5 721.5,877.5C 721.5,877.167 721.5,876.833 721.5,876.5C 721.5,855.833 721.5,835.167 721.5,814.5 Z"/></g>
<g><path style="opacity:0.051" fill="#c0c0c0" d="M 218.5,814.5 C 218.5,835.167 218.5,855.833 218.5,876.5C 386.167,876.5 553.833,876.5 721.5,876.5C 721.5,876.833 721.5,877.167 721.5,877.5C 553.5,877.5 385.5,877.5 217.5,877.5C 217.169,856.327 217.503,835.327 218.5,814.5 Z"/></g>
<g><path style="opacity:0.051" fill="#a6a6a6" d="M 759.5,509.5 C 759.5,631.833 759.5,754.167 759.5,876.5C 774.833,876.5 790.167,876.5 805.5,876.5C 805.5,877.167 805.5,877.833 805.5,878.5C 789.833,878.5 774.167,878.5 758.5,878.5C 758.167,755.332 758.5,632.332 759.5,509.5 Z"/></g>
<g><path style="opacity:0.341" fill="#949494" d="M 723.5,814.5 C 722.833,814.5 722.167,814.5 721.5,814.5C 553.833,814.5 386.167,814.5 218.5,814.5C 217.503,835.327 217.169,856.327 217.5,877.5C 385.5,877.5 553.5,877.5 721.5,877.5C 722.167,877.5 722.833,877.5 723.5,877.5C 554.667,878.5 385.667,878.833 216.5,878.5C 216.5,856.833 216.5,835.167 216.5,813.5C 385.667,813.167 554.667,813.5 723.5,814.5 Z"/></g>
<g><path style="opacity:0.25" fill="#dcdcdc" d="M 805.5,876.5 C 808.518,876.335 811.518,876.502 814.5,877C 816.667,879.833 819.167,882.333 822,884.5C 822.589,888.444 823.089,892.11 823.5,895.5C 822.979,899.191 822.312,902.857 821.5,906.5C 819.527,908.473 817.527,910.473 815.5,912.5C 604.667,913.833 394,913.833 183.5,912.5C 391.834,912.667 600.167,912.5 808.5,912C 813.383,910.317 816.883,907.15 819,902.5C 823.044,889.581 818.544,881.581 805.5,878.5C 805.5,877.833 805.5,877.167 805.5,876.5 Z"/></g>
</svg>
