<?xml version="1.0" standalone="no"?>
<!DOCTYPE svg PUBLIC "-//W3C//DTD SVG 20010904//EN"
 "http://www.w3.org/TR/2001/REC-SVG-20010904/DTD/svg10.dtd">
<svg version="1.0" xmlns="http://www.w3.org/2000/svg"
 width="414.000000pt" height="414.000000pt" viewBox="0 0 414.000000 414.000000"
 preserveAspectRatio="xMidYMid meet">

<g transform="translate(0.000000,414.000000) scale(0.100000,-0.100000)"
fill="#000000" stroke="none">
<path d="M2012 3719 c-70 -12 -138 -48 -189 -101 -45 -47 -93 -138 -93 -179 0
-39 -19 -55 -95 -78 -156 -49 -340 -155 -486 -283 -54 -47 -61 -50 -86 -39
-172 69 -367 -7 -448 -175 -25 -51 -29 -71 -29 -144 -1 -107 29 -177 105 -251
l51 -50 -18 -92 c-27 -129 -26 -405 0 -534 l18 -93 -50 -47 c-76 -71 -107
-145 -106 -253 0 -72 4 -94 27 -142 79 -162 259 -239 428 -183 49 17 50 17 78
-7 211 -174 314 -237 489 -298 l107 -38 16 -58 c23 -86 52 -135 109 -187 130
-117 329 -118 459 -1 55 50 111 149 111 198 0 17 4 36 8 41 4 6 41 21 82 34
163 51 349 158 475 273 66 61 67 61 101 49 207 -75 417 32 470 238 30 121 -4
240 -96 330 -48 47 -56 60 -49 78 17 46 39 235 39 333 0 101 -22 289 -40 335
-8 21 -4 28 29 55 90 71 144 211 123 322 -23 123 -88 208 -199 260 -54 26 -77
31 -141 31 -48 0 -91 -7 -116 -17 -21 -9 -42 -16 -45 -16 -4 0 -39 27 -77 61
-137 120 -280 203 -444 260 -52 18 -101 37 -107 42 -7 5 -13 24 -13 41 0 80
-93 207 -187 254 -34 18 -58 24 -138 36 -11 2 -44 -1 -73 -5z m175 -100 c82
-40 153 -150 153 -239 0 -90 -68 -197 -155 -243 -57 -31 -173 -30 -231 0 -184
97 -204 333 -39 459 73 56 184 65 272 23z m-444 -354 c36 -104 118 -182 229
-217 73 -22 106 -23 183 -3 111 29 212 123 245 228 6 20 13 37 15 37 2 0 37
-12 77 -26 156 -56 328 -158 448 -267 l42 -39 -30 -31 c-40 -43 -68 -101 -81
-170 -37 -200 123 -396 327 -401 37 0 79 2 94 7 25 7 28 4 37 -30 42 -157 42
-428 1 -584 l-10 -36 -56 10 c-102 17 -217 -19 -293 -93 -130 -127 -140 -338
-21 -473 l29 -34 -42 -40 c-105 -102 -308 -221 -462 -271 l-60 -20 -9 22 c-52
123 -103 182 -194 224 -48 22 -71 27 -142 27 -71 0 -94 -5 -143 -27 -78 -37
-150 -112 -178 -187 l-21 -59 -42 13 c-173 54 -346 152 -469 265 l-57 52 35
41 c56 65 78 136 73 237 -5 100 -31 161 -99 228 -89 87 -197 115 -349 89 -16
-3 -39 192 -39 323 0 185 24 327 54 322 11 -2 54 -4 95 -5 62 0 86 4 135 27
72 33 137 93 173 161 24 45 27 60 27 155 0 115 -13 152 -76 224 l-30 35 47 43
c111 102 273 199 433 259 42 15 79 28 83 29 3 0 13 -20 21 -45z m-736 -290
c29 -9 69 -32 95 -55 125 -109 125 -291 1 -400 -164 -144 -418 -43 -440 174
-13 124 60 236 181 278 63 22 98 22 163 3z m2315 -13 c114 -51 181 -189 149
-309 -28 -102 -125 -187 -228 -200 -165 -19 -321 136 -298 295 9 69 41 127 92
172 80 70 187 86 285 42z m-2276 -1320 c48 -25 110 -90 132 -141 25 -59 20
-156 -11 -217 -48 -94 -129 -146 -232 -147 -79 -1 -129 17 -183 66 -66 62 -86
108 -87 197 0 65 4 82 31 130 32 57 97 111 158 130 47 14 146 5 192 -18z
m2296 -9 c122 -68 172 -228 110 -350 -27 -51 -99 -117 -148 -134 -52 -18 -150
-15 -197 5 -168 73 -216 290 -95 423 67 71 122 94 215 89 46 -3 76 -12 115
-33z m-1143 -659 c61 -33 106 -89 126 -158 19 -62 19 -90 0 -152 -45 -153
-229 -233 -371 -161 -141 71 -192 235 -116 371 30 53 97 108 156 126 55 17
148 5 205 -26z"/>
<path d="M1981 3554 c-188 -94 -121 -373 90 -374 99 0 185 79 195 181 5 46 2
62 -23 109 -23 44 -39 60 -82 82 -67 35 -112 35 -180 2z m176 -98 c71 -77 18
-196 -87 -196 -70 0 -120 53 -120 126 0 29 8 44 40 76 38 38 43 40 87 35 38
-4 54 -12 80 -41z"/>
<path d="M1985 2710 l-80 -80 -142 0 -143 0 0 -143 0 -142 -85 -85 -85 -85 0
-377 0 -378 260 0 260 0 2 178 3 177 95 0 95 0 3 -177 2 -178 260 0 260 0 0
378 0 377 -308 308 c-169 169 -309 307 -312 307 -3 0 -41 -36 -85 -80z m357
-297 l268 -268 0 -322 0 -323 -180 0 -180 0 0 175 0 175 -180 0 -180 0 0 -175
0 -175 -180 0 -180 0 0 322 0 323 267 267 c148 148 270 268 273 268 3 0 125
-120 272 -267z m-522 134 c0 -1 -27 -29 -60 -62 l-60 -59 0 62 0 62 60 0 c33
0 60 -1 60 -3z"/>
<path d="M867 2910 c-110 -33 -167 -167 -118 -275 64 -142 263 -153 346 -20
97 156 -52 348 -228 295z m141 -104 c34 -31 37 -39 37 -86 0 -47 -3 -55 -37
-86 -43 -38 -88 -45 -138 -19 -77 40 -79 168 -2 209 48 27 98 20 140 -18z"/>
<path d="M3120 2893 c-100 -52 -136 -167 -83 -269 57 -110 212 -137 308 -52
99 86 78 261 -39 321 -64 33 -122 33 -186 0z m150 -68 c35 -18 60 -62 60 -105
0 -124 -161 -165 -225 -58 -27 46 -15 105 29 145 40 37 87 43 136 18z"/>
<path d="M845 1582 c-182 -85 -136 -352 65 -379 108 -15 220 91 220 207 0 47
-46 127 -89 155 -54 36 -140 43 -196 17z m146 -79 c95 -56 62 -205 -48 -220
-76 -10 -133 43 -133 125 0 89 101 142 181 95z"/>
<path d="M3122 1579 c-147 -73 -146 -282 3 -355 43 -21 65 -25 100 -22 165 19
242 205 137 330 -56 66 -160 86 -240 47z m148 -74 c35 -18 60 -62 60 -104 0
-107 -126 -159 -202 -84 -99 99 18 252 142 188z"/>
<path d="M1985 921 c-144 -67 -154 -272 -17 -349 107 -60 233 -18 283 93 75
164 -100 333 -266 256z m151 -77 c33 -22 54 -64 54 -109 0 -26 -9 -45 -34 -73
-31 -34 -39 -37 -86 -37 -47 0 -55 3 -86 37 -25 28 -34 47 -34 73 0 43 22 88
52 109 29 21 102 20 134 0z"/>
</g>
</svg>
