<?xml version="1.0" standalone="no"?>
<!DOCTYPE svg PUBLIC "-//W3C//DTD SVG 20010904//EN"
 "http://www.w3.org/TR/2001/REC-SVG-20010904/DTD/svg10.dtd">
<svg version="1.0" xmlns="http://www.w3.org/2000/svg"
 width="512.000000pt" height="512.000000pt" viewBox="0 0 512.000000 512.000000"
 preserveAspectRatio="xMidYMid meet">

<g transform="translate(0.000000,512.000000) scale(0.100000,-0.100000)"
fill="#000000" stroke="none">
<path d="M460 4223 c-98 -34 -170 -107 -204 -206 -14 -43 -16 -191 -16 -1568
l0 -1520 25 -24 24 -25 1976 0 1975 0 0 840 0 840 -1439 0 -1440 0 -3 363 -3
362 -36 65 c-67 122 -161 170 -334 170 l-103 0 -4 243 -3 242 -36 65 c-76 138
-236 203 -379 153z m674 -897 c65 -49 66 -57 66 -431 l0 -335 -160 0 -160 0 0
401 0 401 108 -4 c102 -3 111 -5 146 -32z m66 -1086 l0 -160 -160 0 -160 0 0
160 0 160 160 0 160 0 0 -160z m455 -185 c50 -49 15 -135 -55 -135 -19 0 -40
9 -55 25 -16 15 -25 36 -25 55 0 19 9 40 25 55 15 16 36 25 55 25 19 0 40 -9
55 -25z m320 0 c50 -49 15 -135 -55 -135 -19 0 -40 9 -55 25 -16 15 -25 36
-25 55 0 19 9 40 25 55 15 16 36 25 55 25 19 0 40 -9 55 -25z m320 0 c50 -49
15 -135 -55 -135 -19 0 -40 9 -55 25 -16 15 -25 36 -25 55 0 19 9 40 25 55 15
16 36 25 55 25 19 0 40 -9 55 -25z m1120 0 c50 -49 15 -135 -55 -135 -41 0
-80 39 -80 80 0 41 39 80 80 80 19 0 40 -9 55 -25z m320 0 c50 -49 15 -135
-55 -135 -41 0 -80 39 -80 80 0 41 39 80 80 80 19 0 40 -9 55 -25z m320 0 c50
-49 15 -135 -55 -135 -41 0 -80 39 -80 80 0 41 39 80 80 80 19 0 40 -9 55 -25z
m-2853 -257 c3 -105 8 -130 28 -173 31 -63 91 -124 155 -155 l50 -25 1323 -3
1322 -2 0 -200 0 -200 -1600 0 -1600 0 0 440 0 440 159 0 159 0 4 -122z"/>
<path d="M4400 1720 l0 -840 215 0 216 0 25 25 25 25 -3 697 -3 698 -36 65
c-67 123 -161 170 -335 170 l-104 0 0 -840z"/>
</g>
</svg>
