<?xml version="1.0" encoding="UTF-8"?>
<!DOCTYPE svg PUBLIC "-//W3C//DTD SVG 1.1//EN" "http://www.w3.org/Graphics/SVG/1.1/DTD/svg11.dtd">
<svg xmlns="http://www.w3.org/2000/svg" version="1.1" width="1000px" height="1080px" style="shape-rendering:geometricPrecision; text-rendering:geometricPrecision; image-rendering:optimizeQuality; fill-rule:evenodd; clip-rule:evenodd" xmlns:xlink="http://www.w3.org/1999/xlink">
<g><path style="opacity:0.086" fill="#f6f6f6" d="M 510.5,196.5 C 509.5,196.5 508.5,196.5 507.5,196.5C 416.533,195.821 325.533,195.154 234.5,194.5C 231.559,194.621 228.892,195.287 226.5,196.5C 225.508,196.672 224.842,196.338 224.5,195.5C 227.293,193.08 230.626,192.08 234.5,192.5C 324.492,193.318 414.492,193.818 504.5,194C 506.611,194.845 508.611,195.678 510.5,196.5 Z"/></g>
<g><path style="opacity:0.99" fill="#030303" d="M 507.5,196.5 C 510.212,197.359 512.878,198.525 515.5,200C 532.529,216.695 549.196,233.695 565.5,251C 567.275,252.439 569.275,253.439 571.5,254C 587.035,269.702 602.701,285.202 618.5,300.5C 668.051,299.845 717.384,300.512 766.5,302.5C 781.551,316.047 796.218,330.214 810.5,345C 811.5,345.333 812.5,345.667 813.5,346C 827.167,359.667 840.833,373.333 854.5,387C 871.617,401.949 887.95,417.782 903.5,434.5C 904.911,436.914 906.911,438.581 909.5,439.5C 923.744,452.241 937.577,465.574 951,479.5C 952.289,485.088 952.789,490.755 952.5,496.5C 941.323,513.764 929.656,530.764 917.5,547.5C 916.501,596.33 916.168,645.33 916.5,694.5C 923.574,694.161 930.574,694.661 937.5,696C 939.35,698.018 941.35,699.851 943.5,701.5C 944.833,732.833 944.833,764.167 943.5,795.5C 941.5,798.833 938.833,801.5 935.5,803.5C 644.833,804.833 354.167,804.833 63.5,803.5C 62.6195,802.029 61.2861,801.196 59.5,801C 58.253,799.054 56.9197,797.22 55.5,795.5C 54.1754,764.767 54.1754,734.1 55.5,703.5C 58.9233,700.064 62.59,697.064 66.5,694.5C 71.8333,694.5 77.1667,694.5 82.5,694.5C 82.6667,606.166 82.5,517.833 82,429.5C 81.6174,428.944 81.1174,428.611 80.5,428.5C 69.8688,417.368 59.0354,406.368 48,395.5C 46.7832,389.899 46.2832,384.232 46.5,378.5C 59.1531,364.846 71.8197,351.179 84.5,337.5C 121.5,299.833 158.833,262.5 196.5,225.5C 206.78,216.888 216.447,207.555 225.5,197.5C 226.167,197.5 226.5,197.167 226.5,196.5C 228.892,195.287 231.559,194.621 234.5,194.5C 325.533,195.154 416.533,195.821 507.5,196.5 Z M 244.5,228.5 C 327.167,228.5 409.833,228.5 492.5,228.5C 546.05,280.214 599.55,332.214 653,384.5C 653.667,385.167 653.667,385.833 653,386.5C 648.217,391.454 643.384,396.12 638.5,400.5C 554.5,400.5 470.5,400.5 386.5,400.5C 340.165,353.165 293.165,306.499 245.5,260.5C 238.833,260.5 232.167,260.5 225.5,260.5C 223.956,260.703 222.622,261.37 221.5,262.5C 179.5,304.5 137.5,346.5 95.5,388.5C 93.8333,386.833 92.1667,385.167 90.5,383.5C 142.318,332.016 193.651,280.35 244.5,228.5 Z M 371.5,434.5 C 433.167,434.5 494.833,434.5 556.5,434.5C 576.153,455.102 595.819,475.768 615.5,496.5C 631.799,516.799 649.799,535.466 669.5,552.5C 684.5,552.5 699.5,552.5 714.5,552.5C 714.5,577.5 714.5,602.5 714.5,627.5C 715.833,633.5 719.5,637.167 725.5,638.5C 749.5,638.5 773.5,638.5 797.5,638.5C 803.779,637.552 806.779,633.885 806.5,627.5C 806.5,604.5 806.5,581.5 806.5,558.5C 808.167,556.167 810.167,554.167 812.5,552.5C 836.5,552.5 860.5,552.5 884.5,552.5C 884.5,599.833 884.5,647.167 884.5,694.5C 814.5,694.5 744.5,694.5 674.5,694.5C 674.5,656.167 674.5,617.833 674.5,579.5C 673.499,573.161 669.833,570.161 663.5,570.5C 658.167,570.5 652.833,570.5 647.5,570.5C 643.584,572.194 641.25,575.194 640.5,579.5C 640.5,617.833 640.5,656.167 640.5,694.5C 593.167,694.5 545.833,694.5 498.5,694.5C 498.5,639.5 498.5,584.5 498.5,529.5C 497.814,522.811 494.147,519.811 487.5,520.5C 462.167,520.5 436.833,520.5 411.5,520.5C 408.5,520.833 406.833,522.5 406.5,525.5C 406.5,581.833 406.5,638.167 406.5,694.5C 395.833,694.5 385.167,694.5 374.5,694.5C 374.5,615.5 374.5,536.5 374.5,457.5C 373.814,450.811 370.147,447.811 363.5,448.5C 358.167,448.5 352.833,448.5 347.5,448.5C 345.857,448.48 344.524,449.147 343.5,450.5C 342.201,452.758 341.201,455.092 340.5,457.5C 340.5,536.5 340.5,615.5 340.5,694.5C 265.167,694.5 189.833,694.5 114.5,694.5C 114.5,604.5 114.5,514.5 114.5,424.5C 155.07,384.931 195.404,344.931 235.5,304.5C 278.086,346.419 320.419,388.752 362.5,431.5C 365.544,432.515 368.544,433.515 371.5,434.5 Z M 750.5,336.5 C 783.907,367.405 816.574,399.238 848.5,432C 849.833,432.667 851.167,433.333 852.5,434C 871.667,453.167 890.833,472.333 910,491.5C 910.136,494.763 909.136,497.763 907,500.5C 902.211,506.762 897.378,512.762 892.5,518.5C 824.5,518.5 756.5,518.5 688.5,518.5C 674.325,501.818 659.159,485.818 643,470.5C 633.313,459.648 623.813,448.648 614.5,437.5C 627.487,436.667 640.487,436.167 653.5,436C 655.596,435.263 657.263,434.097 658.5,432.5C 659.552,432.649 660.552,432.483 661.5,432C 672.986,421.014 684.319,409.848 695.5,398.5C 696.474,396.257 696.808,393.924 696.5,391.5C 696.5,386.5 696.5,381.5 696.5,376.5C 696.66,374.801 696.494,373.134 696,371.5C 684.338,359.163 672.172,347.663 659.5,337C 689.832,336.5 720.165,336.333 750.5,336.5 Z M 225.5,389.5 C 232.833,389.5 240.167,389.5 247.5,389.5C 247.5,405.5 247.5,421.5 247.5,437.5C 240.167,437.5 232.833,437.5 225.5,437.5C 225.5,421.5 225.5,405.5 225.5,389.5 Z M 98.5,726.5 C 367.833,726.5 637.167,726.5 906.5,726.5C 908.833,728.167 910.833,730.167 912.5,732.5C 912.5,745.167 912.5,757.833 912.5,770.5C 889.167,770.5 865.833,770.5 842.5,770.5C 840.952,769.206 838.952,768.539 836.5,768.5C 834.048,768.539 832.048,769.206 830.5,770.5C 582.5,770.5 334.5,770.5 86.5,770.5C 86.2953,762.133 86.6287,753.8 87.5,745.5C 88.2188,740.882 88.7188,736.215 89,731.5C 92.2272,729.597 95.3938,727.931 98.5,726.5 Z M 750.5,554.5 C 757.833,554.5 765.167,554.5 772.5,554.5C 772.5,570.5 772.5,586.5 772.5,602.5C 765.167,602.5 757.833,602.5 750.5,602.5C 750.5,586.5 750.5,570.5 750.5,554.5 Z M 442.5,554.5 C 449.167,554.5 455.833,554.5 462.5,554.5C 462.5,600.5 462.5,646.5 462.5,692.5C 455.167,692.5 447.833,692.5 440.5,692.5C 440.333,647.165 440.5,601.832 441,556.5C 441.717,555.956 442.217,555.289 442.5,554.5 Z M 225.5,554.5 C 232.833,554.5 240.167,554.5 247.5,554.5C 247.5,570.833 247.5,587.167 247.5,603.5C 240.167,603.5 232.833,603.5 225.5,603.5C 225.5,587.167 225.5,570.833 225.5,554.5 Z M 554.5,554.5 C 561.833,554.5 569.167,554.5 576.5,554.5C 576.5,570.833 576.5,587.167 576.5,603.5C 569.167,603.5 561.833,603.5 554.5,603.5C 554.5,587.167 554.5,570.833 554.5,554.5 Z"/></g>
<g><path style="opacity:0.282" fill="#c4c4c4" d="M 507.5,196.5 C 508.5,196.5 509.5,196.5 510.5,196.5C 512.593,197.045 514.593,197.878 516.5,199C 549.759,233.095 583.759,266.262 618.5,298.5C 618.5,299.167 618.5,299.833 618.5,300.5C 602.701,285.202 587.035,269.702 571.5,254C 569.275,253.439 567.275,252.439 565.5,251C 549.196,233.695 532.529,216.695 515.5,200C 512.878,198.525 510.212,197.359 507.5,196.5 Z"/></g>
<g><path style="opacity:0.992" fill="#252525" d="M 225.5,197.5 C 216.447,207.555 206.78,216.888 196.5,225.5C 205.553,215.445 215.22,206.112 225.5,197.5 Z"/></g>
<g><path style="opacity:0.071" fill="#dedede" d="M 245.5,260.5 C 293.165,306.499 340.165,353.165 386.5,400.5C 385.448,400.649 384.448,400.483 383.5,400C 336.916,353.917 290.916,307.417 245.5,260.5 Z"/></g>
<g><path style="opacity:0.067" fill="#dcdcdc" d="M 224.5,195.5 C 224.842,196.338 225.508,196.672 226.5,196.5C 226.5,197.167 226.167,197.5 225.5,197.5C 215.22,206.112 205.553,215.445 196.5,225.5C 158.833,262.5 121.5,299.833 84.5,337.5C 72.1874,349.479 59.854,361.479 47.5,373.5C 46.5481,375.045 46.2148,376.712 46.5,378.5C 46.2832,384.232 46.7832,389.899 48,395.5C 59.0354,406.368 69.8688,417.368 80.5,428.5C 79.8333,428.5 79.1667,428.5 78.5,428.5C 67.2016,417.702 56.0349,406.702 45,395.5C 44.3333,388.167 44.3333,380.833 45,373.5C 104.417,313.583 164.25,254.249 224.5,195.5 Z"/></g>
<g><path style="opacity:0.094" fill="#dfdfdf" d="M 244.5,228.5 C 193.651,280.35 142.318,332.016 90.5,383.5C 92.1667,385.167 93.8333,386.833 95.5,388.5C 137.5,346.5 179.5,304.5 221.5,262.5C 222.622,261.37 223.956,260.703 225.5,260.5C 183.451,304.05 140.784,347.217 97.5,390C 96.1667,390.667 94.8333,390.667 93.5,390C 91.9825,388.315 90.3159,386.815 88.5,385.5C 87.1667,384.167 87.1667,382.833 88.5,381.5C 139.266,330.568 190.266,279.734 241.5,229C 242.448,228.517 243.448,228.351 244.5,228.5 Z"/></g>
<g><path style="opacity:0.039" fill="#fcfcfc" d="M 618.5,298.5 C 667.501,298.333 716.501,298.5 765.5,299C 767.233,300.189 768.9,301.356 770.5,302.5C 769.167,302.5 767.833,302.5 766.5,302.5C 717.384,300.512 668.051,299.845 618.5,300.5C 618.5,299.833 618.5,299.167 618.5,298.5 Z"/></g>
<g><path style="opacity:0.094" fill="#e5e5e5" d="M 371.5,434.5 C 368.544,433.515 365.544,432.515 362.5,431.5C 320.419,388.752 278.086,346.419 235.5,304.5C 195.404,344.931 155.07,384.931 114.5,424.5C 114.351,423.448 114.517,422.448 115,421.5C 129.636,406.487 144.469,391.82 159.5,377.5C 162.5,375.167 165.167,372.5 167.5,369.5C 170.5,367.167 173.167,364.5 175.5,361.5C 177.833,359.833 179.833,357.833 181.5,355.5C 181.273,353.067 182.273,351.401 184.5,350.5C 187.643,350.031 189.977,348.364 191.5,345.5C 194.5,343.167 197.167,340.5 199.5,337.5C 201.833,335.833 203.833,333.833 205.5,331.5C 214.583,321.916 223.916,312.416 233.5,303C 234.833,302.333 236.167,302.333 237.5,303C 280.167,345.667 322.833,388.333 365.5,431C 367.167,431.333 368.833,431.667 370.5,432C 371.252,432.671 371.586,433.504 371.5,434.5 Z"/></g>
<g><path style="opacity:0.353" fill="#8d8d8d" d="M 205.5,331.5 C 203.833,333.833 201.833,335.833 199.5,337.5C 200.5,334.5 202.5,332.5 205.5,331.5 Z"/></g>
<g><path style="opacity:0.041" fill="#f3f3f3" d="M 750.5,334.5 C 750.5,335.167 750.5,335.833 750.5,336.5C 720.165,336.333 689.832,336.5 659.5,337C 672.172,347.663 684.338,359.163 696,371.5C 696.494,373.134 696.66,374.801 696.5,376.5C 685.425,362.591 672.592,350.591 658,340.5C 657.187,338.564 656.687,336.564 656.5,334.5C 687.833,334.5 719.167,334.5 750.5,334.5 Z"/></g>
<g><path style="opacity:0.353" fill="#8b8b8b" d="M 199.5,337.5 C 197.167,340.5 194.5,343.167 191.5,345.5C 193.167,341.833 195.833,339.167 199.5,337.5 Z"/></g>
<g><path style="opacity:0.02" fill="#cccccc" d="M 492.5,228.5 C 493.552,228.351 494.552,228.517 495.5,229C 515.5,249 535.5,269 555.5,289C 556.5,289.333 557.5,289.667 558.5,290C 590.081,322.25 622.248,353.75 655,384.5C 651.434,390.095 646.934,395.261 641.5,400C 640.552,400.483 639.552,400.649 638.5,400.5C 643.384,396.12 648.217,391.454 653,386.5C 653.667,385.833 653.667,385.167 653,384.5C 599.55,332.214 546.05,280.214 492.5,228.5 Z"/></g>
<g><path style="opacity:0.353" fill="#8c8c8c" d="M 191.5,345.5 C 189.977,348.364 187.643,350.031 184.5,350.5C 186.55,348.453 188.883,346.786 191.5,345.5 Z"/></g>
<g><path style="opacity:0.992" fill="#2c2c2c" d="M 84.5,337.5 C 71.8197,351.179 59.1531,364.846 46.5,378.5C 46.2148,376.712 46.5481,375.045 47.5,373.5C 59.854,361.479 72.1874,349.479 84.5,337.5 Z"/></g>
<g><path style="opacity:0.118" fill="#adadad" d="M 197.5,354.5 C 196.167,356.833 194.833,359.167 193.5,361.5C 193.217,362.289 192.717,362.956 192,363.5C 191.5,395.165 191.333,426.832 191.5,458.5C 191.167,458.5 190.833,458.5 190.5,458.5C 190.167,425.827 190.5,393.16 191.5,360.5C 192.23,357.103 194.23,355.103 197.5,354.5 Z"/></g>
<g><path style="opacity:0.251" fill="#222222" d="M 197.5,354.5 C 222.167,354.5 246.833,354.5 271.5,354.5C 271.5,354.833 271.5,355.167 271.5,355.5C 247.498,355.333 223.498,355.5 199.5,356C 197.63,358.04 195.63,359.873 193.5,361.5C 194.833,359.167 196.167,356.833 197.5,354.5 Z"/></g>
<g><path style="opacity:0.095" fill="#cccccc" d="M 271.5,355.5 C 271.5,355.167 271.5,354.833 271.5,354.5C 273.833,354.5 276.167,354.5 278.5,354.5C 278.5,355.833 278.5,357.167 278.5,358.5C 277.009,355.909 274.675,354.909 271.5,355.5 Z"/></g>
<g><path style="opacity:0.989" fill="#020202" d="M 271.5,355.5 C 274.675,354.909 277.009,355.909 278.5,358.5C 279.375,360.568 280.541,362.568 282,364.5C 282.5,397.498 282.667,430.498 282.5,463.5C 280.115,466.043 277.448,468.376 274.5,470.5C 250.866,471.47 227.199,471.803 203.5,471.5C 196.719,469.719 192.719,465.386 191.5,458.5C 191.333,426.832 191.5,395.165 192,363.5C 192.717,362.956 193.217,362.289 193.5,361.5C 195.63,359.873 197.63,358.04 199.5,356C 223.498,355.5 247.498,355.333 271.5,355.5 Z M 225.5,389.5 C 225.5,405.5 225.5,421.5 225.5,437.5C 232.833,437.5 240.167,437.5 247.5,437.5C 247.5,421.5 247.5,405.5 247.5,389.5C 240.167,389.5 232.833,389.5 225.5,389.5 Z"/></g>
<g><path style="opacity:0.353" fill="#8c8c8c" d="M 181.5,355.5 C 179.833,357.833 177.833,359.833 175.5,361.5C 176.5,358.5 178.5,356.5 181.5,355.5 Z"/></g>
<g><path style="opacity:0.353" fill="#898989" d="M 175.5,361.5 C 173.167,364.5 170.5,367.167 167.5,369.5C 169.167,365.833 171.833,363.167 175.5,361.5 Z"/></g>
<g><path style="opacity:0.353" fill="#888888" d="M 167.5,369.5 C 165.167,372.5 162.5,375.167 159.5,377.5C 161.167,373.833 163.833,371.167 167.5,369.5 Z"/></g>
<g><path style="opacity:0.026" fill="#f1f1f1" d="M 223.5,386.5 C 232.167,386.5 240.833,386.5 249.5,386.5C 249.5,404.167 249.5,421.833 249.5,439.5C 240.833,439.5 232.167,439.5 223.5,439.5C 223.5,421.833 223.5,404.167 223.5,386.5 Z M 225.5,389.5 C 225.5,405.5 225.5,421.5 225.5,437.5C 232.833,437.5 240.167,437.5 247.5,437.5C 247.5,421.5 247.5,405.5 247.5,389.5C 240.167,389.5 232.833,389.5 225.5,389.5 Z"/></g>
<g><path style="opacity:0.094" fill="#d2d2d2" d="M 696.5,391.5 C 696.808,393.924 696.474,396.257 695.5,398.5C 684.319,409.848 672.986,421.014 661.5,432C 660.552,432.483 659.552,432.649 658.5,432.5C 657.167,432.5 655.833,432.5 654.5,432.5C 656.042,431.837 657.709,431.17 659.5,430.5C 671.113,418.887 682.779,407.221 694.5,395.5C 695.172,394.051 695.839,392.718 696.5,391.5 Z"/></g>
<g><path style="opacity:0.024" fill="#cdcdcd" d="M 750.5,334.5 C 784.216,365.713 817.216,397.88 849.5,431C 850.5,431.333 851.5,431.667 852.5,432C 872.333,451.833 892.167,471.667 912,491.5C 912.667,492.5 912.667,493.5 912,494.5C 910.066,498.759 907.732,502.759 905,506.5C 901.309,509.958 898.142,513.791 895.5,518C 894.552,518.483 893.552,518.649 892.5,518.5C 897.378,512.762 902.211,506.762 907,500.5C 909.136,497.763 910.136,494.763 910,491.5C 890.833,472.333 871.667,453.167 852.5,434C 851.167,433.333 849.833,432.667 848.5,432C 816.574,399.238 783.907,367.405 750.5,336.5C 750.5,335.833 750.5,335.167 750.5,334.5 Z"/></g>
<g><path style="opacity:0.502" fill="#7e7e7e" d="M 903.5,434.5 C 906.089,435.419 908.089,437.086 909.5,439.5C 906.911,438.581 904.911,436.914 903.5,434.5 Z"/></g>
<g><path style="opacity:0.065" fill="#e0e0e0" d="M 766.5,302.5 C 767.833,302.5 769.167,302.5 770.5,302.5C 798.66,329.43 826.66,356.597 854.5,384C 855.833,384.667 857.167,385.333 858.5,386C 875.833,403.333 893.167,420.667 910.5,438C 911.833,438.667 913.167,439.333 914.5,440C 927.667,453.167 940.833,466.333 954,479.5C 954.667,484.833 954.667,490.167 954,495.5C 953.79,497.058 953.29,498.391 952.5,499.5C 952.5,498.5 952.5,497.5 952.5,496.5C 952.789,490.755 952.289,485.088 951,479.5C 937.577,465.574 923.744,452.241 909.5,439.5C 908.089,437.086 906.089,435.419 903.5,434.5C 887.95,417.782 871.617,401.949 854.5,387C 840.833,373.333 827.167,359.667 813.5,346C 812.5,345.667 811.5,345.333 810.5,345C 796.218,330.214 781.551,316.047 766.5,302.5 Z"/></g>
<g><path style="opacity:0.094" fill="#dedede" d="M 347.5,448.5 C 345.823,451.025 344.323,453.691 343,456.5C 342.329,457.252 341.496,457.586 340.5,457.5C 341.201,455.092 342.201,452.758 343.5,450.5C 344.524,449.147 345.857,448.48 347.5,448.5 Z"/></g>
<g><path style="opacity:0.094" fill="#d9d9d9" d="M 363.5,448.5 C 370.147,447.811 373.814,450.811 374.5,457.5C 373.504,457.586 372.671,457.252 372,456.5C 370.547,452.209 367.713,449.542 363.5,448.5 Z"/></g>
<g><path style="opacity:0.105" fill="#efefef" d="M 190.5,458.5 C 190.833,458.5 191.167,458.5 191.5,458.5C 192.719,465.386 196.719,469.719 203.5,471.5C 203.5,471.833 203.5,472.167 203.5,472.5C 194.691,472.024 190.358,467.357 190.5,458.5 Z"/></g>
<g><path style="opacity:0.065" fill="#cecece" d="M 282.5,463.5 C 282.076,468.538 279.41,470.871 274.5,470.5C 277.448,468.376 280.115,466.043 282.5,463.5 Z"/></g>
<g><path style="opacity:0.072" fill="#e4e4e4" d="M 654.5,432.5 C 655.833,432.5 657.167,432.5 658.5,432.5C 657.263,434.097 655.596,435.263 653.5,436C 640.487,436.167 627.487,436.667 614.5,437.5C 623.813,448.648 633.313,459.648 643,470.5C 659.159,485.818 674.325,501.818 688.5,518.5C 687.448,518.649 686.448,518.483 685.5,518C 671.087,501.584 655.921,485.751 640,470.5C 639.667,469.5 639.333,468.5 639,467.5C 628.075,457.246 617.908,446.413 608.5,435C 624.071,435.128 639.404,434.295 654.5,432.5 Z"/></g>
<g><path style="opacity:0.012" fill="#bdbdbd" d="M 274.5,470.5 C 251.19,472.49 227.524,473.157 203.5,472.5C 203.5,472.167 203.5,471.833 203.5,471.5C 227.199,471.803 250.866,471.47 274.5,470.5 Z"/></g>
<g><path style="opacity:0.094" fill="#e5e5e5" d="M 556.5,434.5 C 557.552,434.351 558.552,434.517 559.5,435C 569.759,444.588 579.259,454.755 588,465.5C 603.754,480.584 618.754,496.251 633,512.5C 633.333,513.5 633.667,514.5 634,515.5C 646.423,527.42 658.256,539.753 669.5,552.5C 649.799,535.466 631.799,516.799 615.5,496.5C 595.819,475.768 576.153,455.102 556.5,434.5 Z"/></g>
<g><path style="opacity:0.318" fill="#bbbbbb" d="M 952.5,496.5 C 952.5,497.5 952.5,498.5 952.5,499.5C 950.896,502.943 949.062,506.277 947,509.5C 942,515.833 937,522.167 932,528.5C 929,533.5 926,538.5 923,543.5C 921.629,545.041 920.129,546.375 918.5,547.5C 918.167,547.5 917.833,547.5 917.5,547.5C 929.656,530.764 941.323,513.764 952.5,496.5 Z"/></g>
<g><path style="opacity:0.118" fill="#e0e0e0" d="M 411.5,520.5 C 410.833,523.167 409.167,524.833 406.5,525.5C 406.833,522.5 408.5,520.833 411.5,520.5 Z"/></g>
<g><path style="opacity:0.094" fill="#e2e2e2" d="M 529.5,520.5 C 526.297,521.681 523.297,523.347 520.5,525.5C 520.48,523.857 521.147,522.524 522.5,521.5C 524.743,520.526 527.076,520.192 529.5,520.5 Z"/></g>
<g><path style="opacity:0.991" fill="#030303" d="M 200.5,520.5 C 224.167,520.5 247.833,520.5 271.5,520.5C 276.167,523.167 279.833,526.833 282.5,531.5C 282.5,562.833 282.5,594.167 282.5,625.5C 280.801,630.032 277.801,633.532 273.5,636C 261.053,637.127 248.553,637.627 236,637.5C 224.833,637.333 213.667,637.167 202.5,637C 196.171,635.171 192.504,631.004 191.5,624.5C 191.333,593.165 191.5,561.832 192,530.5C 193.978,526.362 196.811,523.029 200.5,520.5 Z M 225.5,554.5 C 225.5,570.833 225.5,587.167 225.5,603.5C 232.833,603.5 240.167,603.5 247.5,603.5C 247.5,587.167 247.5,570.833 247.5,554.5C 240.167,554.5 232.833,554.5 225.5,554.5 Z"/></g>
<g><path style="opacity:0.993" fill="#030303" d="M 529.5,520.5 C 553.5,520.5 577.5,520.5 601.5,520.5C 605.52,523.358 608.686,527.025 611,531.5C 611.667,562.833 611.667,594.167 611,625.5C 609.141,631.36 605.307,635.193 599.5,637C 576.833,637.667 554.167,637.667 531.5,637C 526.406,635.401 522.739,632.234 520.5,627.5C 520.5,593.5 520.5,559.5 520.5,525.5C 523.297,523.347 526.297,521.681 529.5,520.5 Z M 554.5,554.5 C 554.5,570.833 554.5,587.167 554.5,603.5C 561.833,603.5 569.167,603.5 576.5,603.5C 576.5,587.167 576.5,570.833 576.5,554.5C 569.167,554.5 561.833,554.5 554.5,554.5 Z"/></g>
<g><path style="opacity:0.131" fill="#bcbcbc" d="M 200.5,520.5 C 196.811,523.029 193.978,526.362 192,530.5C 191.5,561.832 191.333,593.165 191.5,624.5C 191.167,624.5 190.833,624.5 190.5,624.5C 190.333,592.832 190.5,561.165 191,529.5C 191.166,523.164 194.333,520.164 200.5,520.5 Z"/></g>
<g><path style="opacity:0.012" fill="#efefef" d="M 271.5,520.5 C 273.527,520.338 275.527,520.505 277.5,521C 277.167,521.333 276.833,521.667 276.5,522C 280.029,524.331 282.029,527.497 282.5,531.5C 279.833,526.833 276.167,523.167 271.5,520.5 Z"/></g>
<g><path style="opacity:0.094" fill="#d6d6d6" d="M 487.5,520.5 C 494.147,519.811 497.814,522.811 498.5,529.5C 497.504,529.586 496.671,529.252 496,528.5C 494.547,524.209 491.713,521.542 487.5,520.5 Z"/></g>
<g><path style="opacity:0.08" fill="#f4f4f4" d="M 601.5,520.5 C 605.782,520.757 609.116,522.757 611.5,526.5C 612.667,560.162 612.833,593.828 612,627.5C 609.808,632.359 606.308,635.859 601.5,638C 576.493,638.833 551.493,638.666 526.5,637.5C 521.581,635.991 519.581,632.658 520.5,627.5C 522.739,632.234 526.406,635.401 531.5,637C 554.167,637.667 576.833,637.667 599.5,637C 605.307,635.193 609.141,631.36 611,625.5C 611.667,594.167 611.667,562.833 611,531.5C 608.686,527.025 605.52,523.358 601.5,520.5 Z"/></g>
<g><path style="opacity:0.039" fill="#ececec" d="M 78.5,428.5 C 79.1667,428.5 79.8333,428.5 80.5,428.5C 81.1174,428.611 81.6174,428.944 82,429.5C 82.5,517.833 82.6667,606.166 82.5,694.5C 77.1667,694.5 71.8333,694.5 66.5,694.5C 61.403,695.583 57.7363,698.583 55.5,703.5C 54.1754,734.1 54.1754,764.767 55.5,795.5C 56.9197,797.22 58.253,799.054 59.5,801C 61.2861,801.196 62.6195,802.029 63.5,803.5C 354.167,804.833 644.833,804.833 935.5,803.5C 938.833,801.5 941.5,798.833 943.5,795.5C 944.833,764.167 944.833,732.833 943.5,701.5C 941.35,699.851 939.35,698.018 937.5,696C 930.574,694.661 923.574,694.161 916.5,694.5C 916.168,645.33 916.501,596.33 917.5,547.5C 917.833,547.5 918.167,547.5 918.5,547.5C 918.5,595.833 918.5,644.167 918.5,692.5C 924.509,692.334 930.509,692.501 936.5,693C 939.965,695.463 943.131,698.296 946,701.5C 946.667,732.833 946.667,764.167 946,795.5C 943.793,800.704 939.96,804.204 934.5,806C 644.5,806.667 354.5,806.667 64.5,806C 59.04,804.204 55.2067,800.704 53,795.5C 52.3333,764.167 52.3333,732.833 53,701.5C 55.8688,698.296 59.0354,695.463 62.5,693C 68.1569,692.501 73.8236,692.334 79.5,692.5C 79.8305,604.429 79.4972,516.429 78.5,428.5 Z M 98.5,726.5 C 367.833,726.5 637.167,726.5 906.5,726.5C 908.833,728.167 910.833,730.167 912.5,732.5C 912.5,745.167 912.5,757.833 912.5,770.5C 889.167,770.5 865.833,770.5 842.5,770.5C 840.952,769.206 838.952,768.539 836.5,768.5C 834.048,768.539 832.048,769.206 830.5,770.5C 582.5,770.5 334.5,770.5 86.5,770.5C 86.2953,762.133 86.6287,753.8 87.5,745.5C 88.2188,740.882 88.7188,736.215 89,731.5C 92.2272,729.597 95.3938,727.931 98.5,726.5 Z M 750.5,554.5 C 750.5,570.5 750.5,586.5 750.5,602.5C 757.833,602.5 765.167,602.5 772.5,602.5C 772.5,586.5 772.5,570.5 772.5,554.5C 765.167,554.5 757.833,554.5 750.5,554.5 Z M 442.5,554.5 C 442.217,555.289 441.717,555.956 441,556.5C 440.5,601.832 440.333,647.165 440.5,692.5C 447.833,692.5 455.167,692.5 462.5,692.5C 462.5,646.5 462.5,600.5 462.5,554.5C 455.833,554.5 449.167,554.5 442.5,554.5 Z M 225.5,554.5 C 225.5,570.833 225.5,587.167 225.5,603.5C 232.833,603.5 240.167,603.5 247.5,603.5C 247.5,587.167 247.5,570.833 247.5,554.5C 240.167,554.5 232.833,554.5 225.5,554.5 Z M 554.5,554.5 C 554.5,570.833 554.5,587.167 554.5,603.5C 561.833,603.5 569.167,603.5 576.5,603.5C 576.5,587.167 576.5,570.833 576.5,554.5C 569.167,554.5 561.833,554.5 554.5,554.5 Z"/></g>
<g><path style="opacity:0.004" fill="#e5e5e5" d="M 98.5,726.5 C 95.3938,727.931 92.2272,729.597 89,731.5C 88.7188,736.215 88.2188,740.882 87.5,745.5C 86.1958,740.63 86.1958,735.63 87.5,730.5C 89.1667,729.167 90.8333,727.833 92.5,726.5C 94.4159,727.248 96.4159,727.248 98.5,726.5 Z"/></g>
<g><path style="opacity:0.024" fill="#d5d5d5" d="M 906.5,726.5 C 910.167,726.833 912.167,728.833 912.5,732.5C 910.833,730.167 908.833,728.167 906.5,726.5 Z"/></g>
<g><path style="opacity:0.024" fill="#cbcbcb" d="M 842.5,770.5 C 838.5,770.5 834.5,770.5 830.5,770.5C 832.048,769.206 834.048,768.539 836.5,768.5C 838.952,768.539 840.952,769.206 842.5,770.5 Z"/></g>
<g><path style="opacity:0.988" fill="#3b3b3b" d="M 66.5,694.5 C 62.59,697.064 58.9233,700.064 55.5,703.5C 57.7363,698.583 61.403,695.583 66.5,694.5 Z"/></g>
<g><path style="opacity:0.078" fill="#f3f3f3" d="M 190.5,624.5 C 190.833,624.5 191.167,624.5 191.5,624.5C 192.504,631.004 196.171,635.171 202.5,637C 213.667,637.167 224.833,637.333 236,637.5C 248.553,637.627 261.053,637.127 273.5,636C 277.801,633.532 280.801,630.032 282.5,625.5C 281.704,631.147 278.704,635.314 273.5,638C 249.5,638.667 225.5,638.667 201.5,638C 194.668,636.008 191.001,631.508 190.5,624.5 Z"/></g>
<g><path style="opacity:0.078" fill="#d5d5d5" d="M 806.5,627.5 C 806.779,633.885 803.779,637.552 797.5,638.5C 801.197,635.463 804.197,631.797 806.5,627.5 Z"/></g>
<g><path style="opacity:0.069" fill="#d5d5d5" d="M 714.5,627.5 C 716.776,627.756 717.943,629.09 718,631.5C 719.637,633.81 721.804,635.31 724.5,636C 725.252,636.671 725.586,637.504 725.5,638.5C 719.5,637.167 715.833,633.5 714.5,627.5 Z"/></g>
<g><path style="opacity:0.129" fill="#d2d2d2" d="M 647.5,570.5 C 645.823,573.025 644.323,575.691 643,578.5C 642.329,579.252 641.496,579.586 640.5,579.5C 641.25,575.194 643.584,572.194 647.5,570.5 Z"/></g>
<g><path style="opacity:0.18" fill="#cacaca" d="M 663.5,570.5 C 669.833,570.161 673.499,573.161 674.5,579.5C 673.504,579.586 672.671,579.252 672,578.5C 670.547,574.209 667.713,571.542 663.5,570.5 Z"/></g>
<g><path style="opacity:0.078" fill="#f9f9f9" d="M 441.5,552.5 C 449.167,552.5 456.833,552.5 464.5,552.5C 464.5,599.833 464.5,647.167 464.5,694.5C 455.833,694.5 447.167,694.5 438.5,694.5C 438.333,648.165 438.5,601.832 439,555.5C 440.045,554.627 440.878,553.627 441.5,552.5 Z M 442.5,554.5 C 442.217,555.289 441.717,555.956 441,556.5C 440.5,601.832 440.333,647.165 440.5,692.5C 447.833,692.5 455.167,692.5 462.5,692.5C 462.5,646.5 462.5,600.5 462.5,554.5C 455.833,554.5 449.167,554.5 442.5,554.5 Z"/></g>
<g><path style="opacity:0.027" fill="#d6d6d6" d="M 812.5,552.5 C 810.167,554.167 808.167,556.167 806.5,558.5C 806.833,554.833 808.833,552.833 812.5,552.5 Z"/></g>
<g><path style="opacity:0.004" fill="#fbfbfb" d="M 748.5,552.5 C 757.167,552.5 765.833,552.5 774.5,552.5C 774.5,569.833 774.5,587.167 774.5,604.5C 765.833,604.5 757.167,604.5 748.5,604.5C 748.5,587.167 748.5,569.833 748.5,552.5 Z M 750.5,554.5 C 750.5,570.5 750.5,586.5 750.5,602.5C 757.833,602.5 765.167,602.5 772.5,602.5C 772.5,586.5 772.5,570.5 772.5,554.5C 765.167,554.5 757.833,554.5 750.5,554.5 Z"/></g>
<g><path style="opacity:0.01" fill="#fafafa" d="M 223.5,552.5 C 232.167,552.5 240.833,552.5 249.5,552.5C 249.5,570.167 249.5,587.833 249.5,605.5C 240.833,605.5 232.167,605.5 223.5,605.5C 223.5,587.833 223.5,570.167 223.5,552.5 Z M 225.5,554.5 C 225.5,570.833 225.5,587.167 225.5,603.5C 232.833,603.5 240.167,603.5 247.5,603.5C 247.5,587.167 247.5,570.833 247.5,554.5C 240.167,554.5 232.833,554.5 225.5,554.5 Z"/></g>
<g><path style="opacity:0.078" fill="#eeeeee" d="M 552.5,552.5 C 561.167,552.5 569.833,552.5 578.5,552.5C 578.5,570.167 578.5,587.833 578.5,605.5C 569.833,605.5 561.167,605.5 552.5,605.5C 552.5,587.833 552.5,570.167 552.5,552.5 Z M 554.5,554.5 C 554.5,570.833 554.5,587.167 554.5,603.5C 561.833,603.5 569.167,603.5 576.5,603.5C 576.5,587.167 576.5,570.833 576.5,554.5C 569.167,554.5 561.833,554.5 554.5,554.5 Z"/></g>
</svg>
