<?xml version="1.0" encoding="UTF-8"?>
<!DOCTYPE svg PUBLIC "-//W3C//DTD SVG 1.1//EN" "http://www.w3.org/Graphics/SVG/1.1/DTD/svg11.dtd">
<svg xmlns="http://www.w3.org/2000/svg" version="1.1" width="1000px" height="827px" style="shape-rendering:geometricPrecision; text-rendering:geometricPrecision; image-rendering:optimizeQuality; fill-rule:evenodd; clip-rule:evenodd" xmlns:xlink="http://www.w3.org/1999/xlink">
<g><path style="opacity:1" fill="#fefefe" d="M -0.5,-0.5 C 332.833,-0.5 666.167,-0.5 999.5,-0.5C 999.5,275.167 999.5,550.833 999.5,826.5C 666.167,826.5 332.833,826.5 -0.5,826.5C -0.5,550.833 -0.5,275.167 -0.5,-0.5 Z"/></g>
<g><path style="opacity:1" fill="#434848" d="M 679.5,117.5 C 710.784,147.117 741.45,177.45 771.5,208.5C 770.85,208.804 770.183,209.137 769.5,209.5C 767.109,206.886 764.275,204.886 761,203.5C 760.647,205.074 759.98,206.741 759,208.5C 757.833,207.333 756.667,206.167 755.5,205C 760.782,201.995 760.782,198.828 755.5,195.5C 752.521,195.436 750.521,197.102 749.5,200.5C 748.5,200.167 747.833,199.5 747.5,198.5C 747.156,197.317 747.822,196.484 749.5,196C 746.999,194.582 747.332,193.582 750.5,193C 749.5,192.667 748.5,192.333 747.5,192C 746.531,186.769 744.698,186.603 742,191.5C 741.5,191 741,190.5 740.5,190C 741.453,188.045 742.787,186.378 744.5,185C 742.333,181.5 739.5,178.667 736,176.5C 735.667,176.833 735.333,177.167 735,177.5C 734.161,173.329 731.828,170.329 728,168.5C 727.667,168.833 727.333,169.167 727,169.5C 726.161,165.329 723.828,162.329 720,160.5C 719.667,160.833 719.333,161.167 719,161.5C 718.667,160.5 718.333,159.5 718,158.5C 716.287,159.878 714.953,161.545 714,163.5C 713.167,162 712,160.833 710.5,160C 711.126,159.25 711.626,158.416 712,157.5C 712.419,158.672 713.085,159.672 714,160.5C 715.872,159.176 716.705,157.676 716.5,156C 714.241,154.285 712.074,152.452 710,150.5C 708.287,151.878 706.953,153.545 706,155.5C 705.167,154 704,152.833 702.5,152C 704.23,150.148 705.396,150.314 706,152.5C 709.619,149.28 708.952,146.613 704,144.5C 702.984,145.634 702.317,145.301 702,143.5C 701.641,146.544 700.974,146.878 700,144.5C 698.627,144.404 697.127,144.57 695.5,145C 697.221,143.473 699.221,142.473 701.5,142C 699.699,141.683 699.366,141.016 700.5,140C 698.97,137.803 697.136,136.97 695,137.5C 694.333,134.833 693.667,134.833 693,137.5C 688.347,136.73 688.514,135.563 693.5,134C 691.699,133.683 691.366,133.016 692.5,132C 689.902,129.119 686.902,126.786 683.5,125C 684.654,124.086 684.487,123.253 683,122.5C 681.488,123.257 680.154,124.257 679,125.5C 677.513,124.747 677.346,123.914 678.5,123C 674.551,122.193 674.551,121.693 678.5,121.5C 678.67,120.178 678.337,119.011 677.5,118C 678.094,117.536 678.761,117.369 679.5,117.5 Z"/></g>
<g><path style="opacity:1" fill="#3c4041" d="M 623.5,113.5 C 626.564,113.144 629.231,113.977 631.5,116C 726,210.5 820.5,305 915,399.5C 916.5,406 914,408.5 907.5,407C 813.986,313.32 720.32,219.82 626.5,126.5C 534.193,217.304 441.86,309.137 349.5,402C 344.16,402.989 341.66,400.822 342,395.5C 436.035,301.632 529.868,207.632 623.5,113.5 Z"/></g>
<g><path style="opacity:1" fill="#3b4040" d="M 679.5,117.5 C 678.761,117.369 678.094,117.536 677.5,118C 678.337,119.011 678.67,120.178 678.5,121.5C 674.551,121.693 674.551,122.193 678.5,123C 677.346,123.914 677.513,124.747 679,125.5C 680.154,124.257 681.488,123.257 683,122.5C 684.487,123.253 684.654,124.086 683.5,125C 686.902,126.786 689.902,129.119 692.5,132C 691.366,133.016 691.699,133.683 693.5,134C 688.514,135.563 688.347,136.73 693,137.5C 693.667,134.833 694.333,134.833 695,137.5C 697.136,136.97 698.97,137.803 700.5,140C 699.366,141.016 699.699,141.683 701.5,142C 699.221,142.473 697.221,143.473 695.5,145C 697.127,144.57 698.627,144.404 700,144.5C 700.974,146.878 701.641,146.544 702,143.5C 702.317,145.301 702.984,145.634 704,144.5C 708.952,146.613 709.619,149.28 706,152.5C 705.396,150.314 704.23,150.148 702.5,152C 704,152.833 705.167,154 706,155.5C 706.953,153.545 708.287,151.878 710,150.5C 712.074,152.452 714.241,154.285 716.5,156C 716.705,157.676 715.872,159.176 714,160.5C 713.085,159.672 712.419,158.672 712,157.5C 711.626,158.416 711.126,159.25 710.5,160C 712,160.833 713.167,162 714,163.5C 714.953,161.545 716.287,159.878 718,158.5C 718.333,159.5 718.667,160.5 719,161.5C 719.333,161.167 719.667,160.833 720,160.5C 723.828,162.329 726.161,165.329 727,169.5C 727.333,169.167 727.667,168.833 728,168.5C 731.828,170.329 734.161,173.329 735,177.5C 735.333,177.167 735.667,176.833 736,176.5C 739.5,178.667 742.333,181.5 744.5,185C 742.787,186.378 741.453,188.045 740.5,190C 741,190.5 741.5,191 742,191.5C 744.698,186.603 746.531,186.769 747.5,192C 748.5,192.333 749.5,192.667 750.5,193C 747.332,193.582 746.999,194.582 749.5,196C 747.822,196.484 747.156,197.317 747.5,198.5C 706.188,157.521 664.854,116.521 623.5,75.5C 520.347,178.153 417.347,280.986 314.5,384C 308.143,385.481 305.643,382.981 307,376.5C 411.905,271.26 516.739,166.76 621.5,63C 622.833,62.3333 624.167,62.3333 625.5,63C 644.397,80.3966 662.397,98.5632 679.5,117.5 Z"/></g>
<g><path style="opacity:1" fill="#454849" d="M 427.5,236.5 C 369.833,237.833 312.167,237.833 254.5,236.5C 312.167,235.167 369.833,235.167 427.5,236.5 Z"/></g>
<g><path style="opacity:1" fill="#3c4041" d="M 265.5,251.5 C 270.813,251.644 272.979,254.31 272,259.5C 264.167,268 256.333,276.5 248.5,285C 242.667,285.833 240.167,283.333 241,277.5C 249.061,268.609 257.228,259.943 265.5,251.5 Z"/></g>
<g><path style="opacity:1" fill="#3c3f40" d="M 349.5,255.5 C 355.665,254.829 358.165,257.496 357,263.5C 349.5,271.667 342,279.833 334.5,288C 328,289.5 325.5,287 327,280.5C 334.707,272.296 342.207,263.963 349.5,255.5 Z"/></g>
<g><path style="opacity:1" fill="#3c4041" d="M 307.5,253.5 C 314.515,253.688 316.349,257.021 313,263.5C 305.846,271.621 298.346,279.454 290.5,287C 283.772,286.906 281.939,283.74 285,277.5C 292.739,269.658 300.239,261.658 307.5,253.5 Z"/></g>
<g><path style="opacity:1" fill="#3d4142" d="M 771.5,208.5 C 827.465,263.965 883.299,319.632 939,375.5C 940.5,382 938,384.5 931.5,383C 870.632,322.299 809.965,261.465 749.5,200.5C 750.521,197.102 752.521,195.436 755.5,195.5C 760.782,198.828 760.782,201.995 755.5,205C 756.667,206.167 757.833,207.333 759,208.5C 759.98,206.741 760.647,205.074 761,203.5C 764.275,204.886 767.109,206.886 769.5,209.5C 770.183,209.137 770.85,208.804 771.5,208.5 Z"/></g>
<g><path style="opacity:1" fill="#3c4040" d="M 392.5,257.5 C 398.448,256.283 400.948,258.617 400,264.5C 392.167,273 384.333,281.5 376.5,290C 369.755,290.593 367.588,287.76 370,281.5C 377.338,273.329 384.838,265.329 392.5,257.5 Z"/></g>
<g><path style="opacity:1" fill="#3c4040" d="M 227.5,294.5 C 233.499,294.002 235.666,296.669 234,302.5C 226.5,310.667 219,318.833 211.5,327C 205,328.5 202.5,326 204,319.5C 211.84,311.134 219.674,302.801 227.5,294.5 Z"/></g>
<g><path style="opacity:1" fill="#3b3f40" d="M 269.5,296.5 C 276,295.499 278.5,298.165 277,304.5C 269.683,312.651 262.183,320.651 254.5,328.5C 248.038,330.54 245.538,328.206 247,321.5C 254.707,313.296 262.207,304.963 269.5,296.5 Z"/></g>
<g><path style="opacity:1" fill="#3c4041" d="M 355.5,299.5 C 362.141,299.476 364.307,302.476 362,308.5C 354.531,316.97 346.698,325.137 338.5,333C 333.178,333.34 331.011,330.84 332,325.5C 340.04,316.963 347.874,308.296 355.5,299.5 Z"/></g>
<g><path style="opacity:1" fill="#3c4041" d="M 311.5,298.5 C 317.938,296.784 320.772,299.117 320,305.5C 312.167,314 304.333,322.5 296.5,331C 290.667,331.833 288.167,329.333 289,323.5C 296.729,315.276 304.229,306.943 311.5,298.5 Z"/></g>
<g><path style="opacity:1" fill="#393d3e" d="M 548.5,319.5 C 598.501,319.333 648.501,319.5 698.5,320C 699,320.5 699.5,321 700,321.5C 700.667,383.833 700.667,446.167 700,508.5C 699.5,509 699,509.5 698.5,510C 648.5,510.667 598.5,510.667 548.5,510C 548,509.5 547.5,509 547,508.5C 546.333,446.167 546.333,383.833 547,321.5C 547.717,320.956 548.217,320.289 548.5,319.5 Z"/></g>
<g><path style="opacity:1" fill="#fefefe" d="M 689.5,499.5 C 667.5,499.5 645.5,499.5 623.5,499.5C 623.5,469.5 623.5,439.5 623.5,409.5C 639.675,409.83 655.675,409.496 671.5,408.5C 675.96,406.262 676.627,403.096 673.5,399C 656.503,398.5 639.503,398.333 622.5,398.5C 622.667,381.497 622.5,364.497 622,347.5C 620.334,344.621 617.834,343.788 614.5,345C 613.619,345.708 612.953,346.542 612.5,347.5C 611.503,363.992 611.17,380.658 611.5,397.5C 593.5,397.5 575.5,397.5 557.5,397.5C 557.5,375.167 557.5,352.833 557.5,330.5C 601.5,330.5 645.5,330.5 689.5,330.5C 689.5,386.833 689.5,443.167 689.5,499.5 Z"/></g>
<g><path style="opacity:1" fill="#3c4041" d="M 254.5,236.5 C 312.167,237.833 369.833,237.833 427.5,236.5C 431.473,239.54 431.473,242.706 427.5,246C 370.833,246.333 314.167,246.667 257.5,247C 197.5,307 137.5,367 77.5,427C 182.5,427.333 287.5,427.667 392.5,428C 394.673,430.698 395.006,433.531 393.5,436.5C 393.44,435.957 393.107,435.624 392.5,435.5C 282.373,436.165 172.373,436.831 62.5,437.5C 60.5221,436.683 59.5221,435.183 59.5,433C 60.2007,430.62 61.3674,428.453 63,426.5C 126.926,363.408 190.76,300.074 254.5,236.5 Z"/></g>
<g><path style="opacity:1" fill="#c9cbcb" d="M 689.5,500.5 C 689.5,500.167 689.5,499.833 689.5,499.5C 689.5,443.167 689.5,386.833 689.5,330.5C 645.5,330.5 601.5,330.5 557.5,330.5C 557.5,352.833 557.5,375.167 557.5,397.5C 557.167,397.5 556.833,397.5 556.5,397.5C 556.5,374.833 556.5,352.167 556.5,329.5C 601.167,329.5 645.833,329.5 690.5,329.5C 690.832,386.669 690.499,443.669 689.5,500.5 Z"/></g>
<g><path style="opacity:1" fill="#3b3f40" d="M 189.5,337.5 C 196.931,336.76 199.098,339.76 196,346.5C 188.385,354.237 180.885,362.071 173.5,370C 167.498,370.993 165.332,368.493 167,362.5C 174.707,354.296 182.207,345.963 189.5,337.5 Z"/></g>
<g><path style="opacity:1" fill="#3d4141" d="M 233.5,338.5 C 238.813,338.644 240.979,341.31 240,346.5C 232.167,355 224.333,363.5 216.5,372C 210.667,372.833 208.167,370.333 209,364.5C 217.061,355.609 225.228,346.943 233.5,338.5 Z"/></g>
<g><path style="opacity:1" fill="#3c4041" d="M 317.5,342.5 C 323.989,341.632 326.489,344.299 325,350.5C 317.5,358.667 310,366.833 302.5,375C 296,376.5 293.5,374 295,367.5C 302.707,359.296 310.207,350.963 317.5,342.5 Z"/></g>
<g><path style="opacity:1" fill="#3c4041" d="M 275.5,340.5 C 282.515,340.688 284.349,344.021 281,350.5C 273.385,358.237 265.885,366.071 258.5,374C 253.178,374.34 251.011,371.84 252,366.5C 260.04,357.963 267.874,349.296 275.5,340.5 Z"/></g>
<g><path style="opacity:1" fill="#3b3f40" d="M 237.5,383.5 C 244,382.499 246.5,385.165 245,391.5C 237.833,399.333 230.667,407.167 223.5,415C 216.6,418.098 213.766,415.931 215,408.5C 222.707,400.296 230.207,391.963 237.5,383.5 Z"/></g>
<g><path style="opacity:1" fill="#3c4040" d="M 320.5,386.5 C 325.813,386.644 327.979,389.31 327,394.5C 319.167,403 311.333,411.5 303.5,420C 297.667,420.833 295.167,418.333 296,412.5C 304.061,403.609 312.228,394.943 320.5,386.5 Z"/></g>
<g><path style="opacity:1" fill="#3b3f40" d="M 195.5,381.5 C 201.499,381.002 203.666,383.669 202,389.5C 194.5,397.667 187,405.833 179.5,414C 172.069,415.234 169.902,412.4 173,405.5C 180.338,397.329 187.838,389.329 195.5,381.5 Z"/></g>
<g><path style="opacity:1" fill="#a2a3a3" d="M 612.5,347.5 C 612.5,364.5 612.5,381.5 612.5,398.5C 593.659,398.83 574.993,398.497 556.5,397.5C 556.833,397.5 557.167,397.5 557.5,397.5C 575.5,397.5 593.5,397.5 611.5,397.5C 611.17,380.658 611.503,363.992 612.5,347.5 Z"/></g>
<g><path style="opacity:1" fill="#3c4041" d="M 152.5,379.5 C 159.241,379.39 161.408,382.39 159,388.5C 151.833,396.333 144.667,404.167 137.5,412C 131.24,414.412 128.407,412.245 129,405.5C 137.04,396.963 144.874,388.296 152.5,379.5 Z"/></g>
<g><path style="opacity:1" fill="#3b3f40" d="M 147.5,473.5 C 147.5,528.167 147.5,582.833 147.5,637.5C 162.676,637.829 177.676,637.496 192.5,636.5C 192.333,586.166 192.5,535.832 193,485.5C 193.833,484.667 194.667,483.833 195.5,483C 248.5,482.333 301.5,482.333 354.5,483C 358.5,486.333 358.5,489.667 354.5,493C 304.168,493.5 253.834,493.667 203.5,493.5C 202.507,501.65 202.174,509.983 202.5,518.5C 255.5,518.5 308.5,518.5 361.5,518.5C 364.332,520.407 365.166,523.073 364,526.5C 363.25,527.126 362.416,527.626 361.5,528C 308.834,528.5 256.168,528.667 203.5,528.5C 202.515,532.634 202.182,536.968 202.5,541.5C 255.167,541.5 307.833,541.5 360.5,541.5C 364.254,542.828 365.421,545.494 364,549.5C 363.184,550.823 362.017,551.489 360.5,551.5C 307.833,551.5 255.167,551.5 202.5,551.5C 202.182,556.032 202.515,560.366 203.5,564.5C 256.572,564.171 309.572,564.505 362.5,565.5C 363.117,565.611 363.617,565.944 364,566.5C 365.421,570.506 364.254,573.172 360.5,574.5C 307.833,574.5 255.167,574.5 202.5,574.5C 202.182,579.032 202.515,583.366 203.5,587.5C 256.168,587.333 308.834,587.5 361.5,588C 364.379,589.666 365.212,592.166 364,595.5C 363.292,596.381 362.458,597.047 361.5,597.5C 308.5,597.5 255.5,597.5 202.5,597.5C 202.182,602.032 202.515,606.366 203.5,610.5C 256.168,610.333 308.834,610.5 361.5,611C 365.436,614.159 365.436,617.492 361.5,621C 308.834,621.5 256.168,621.667 203.5,621.5C 202.512,626.64 202.179,631.974 202.5,637.5C 266.833,637.5 331.167,637.5 395.5,637.5C 395.5,585.833 395.5,534.167 395.5,482.5C 397.407,479.668 400.073,478.834 403.5,480C 404.823,480.816 405.489,481.983 405.5,483.5C 405.5,534.833 405.5,586.167 405.5,637.5C 552.167,637.5 698.833,637.5 845.5,637.5C 845.5,556.833 845.5,476.167 845.5,395.5C 848.255,391.96 851.421,391.627 855,394.5C 855.667,477.833 855.667,561.167 855,644.5C 854.167,645.333 853.333,646.167 852.5,647C 634.306,647.168 416.139,647.668 198,648.5C 178.864,647.685 159.698,647.185 140.5,647C 139.333,646.5 138.5,645.667 138,644.5C 137.333,587.5 137.333,530.5 138,473.5C 139.666,470.621 142.166,469.788 145.5,471C 146.381,471.708 147.047,472.542 147.5,473.5 Z"/></g>
<g><path style="opacity:1" fill="#3c4040" d="M 280.5,385.5 C 286.496,384.333 288.996,386.666 288,392.5C 280.167,401 272.333,409.5 264.5,418C 257.755,418.593 255.588,415.76 258,409.5C 265.338,401.329 272.838,393.329 280.5,385.5 Z"/></g>
<g><path style="opacity:1" fill="#fbfbfb" d="M 556.5,408.5 C 575.167,408.5 593.833,408.5 612.5,408.5C 612.5,439.167 612.5,469.833 612.5,500.5C 593.833,500.5 575.167,500.5 556.5,500.5C 556.5,469.833 556.5,439.167 556.5,408.5 Z"/></g>
<g><path style="opacity:1" fill="#eaebec" d="M 671.5,408.5 C 655.675,409.496 639.675,409.83 623.5,409.5C 623.5,439.5 623.5,469.5 623.5,499.5C 645.5,499.5 667.5,499.5 689.5,499.5C 689.5,499.833 689.5,500.167 689.5,500.5C 667.167,500.5 644.833,500.5 622.5,500.5C 622.5,469.833 622.5,439.167 622.5,408.5C 638.833,408.5 655.167,408.5 671.5,408.5 Z"/></g>
<g><path style="opacity:1" fill="#494c4d" d="M 393.5,436.5 C 392.711,436.783 392.044,437.283 391.5,438C 281.666,438.833 171.999,438.666 62.5,437.5C 172.373,436.831 282.373,436.165 392.5,435.5C 393.107,435.624 393.44,435.957 393.5,436.5 Z"/></g>
<g><path style="opacity:1" fill="#a6a8a9" d="M 147.5,473.5 C 148.499,527.664 148.832,581.997 148.5,636.5C 163.167,636.5 177.833,636.5 192.5,636.5C 177.676,637.496 162.676,637.829 147.5,637.5C 147.5,582.833 147.5,528.167 147.5,473.5 Z"/></g>
<g><path style="opacity:1" fill="#b8bab9" d="M 203.5,493.5 C 203.5,501.5 203.5,509.5 203.5,517.5C 256.336,517.168 309.003,517.501 361.5,518.5C 308.5,518.5 255.5,518.5 202.5,518.5C 202.174,509.983 202.507,501.65 203.5,493.5 Z"/></g>
<g><path style="opacity:1" fill="#cbccce" d="M 203.5,528.5 C 203.5,532.5 203.5,536.5 203.5,540.5C 256.003,540.168 308.336,540.501 360.5,541.5C 307.833,541.5 255.167,541.5 202.5,541.5C 202.182,536.968 202.515,532.634 203.5,528.5 Z"/></g>
<g><path style="opacity:1" fill="#c4c4c4" d="M 360.5,551.5 C 308.336,552.499 256.003,552.832 203.5,552.5C 203.5,556.167 203.5,559.833 203.5,563.5C 203.5,563.833 203.5,564.167 203.5,564.5C 202.515,560.366 202.182,556.032 202.5,551.5C 255.167,551.5 307.833,551.5 360.5,551.5 Z"/></g>
<g><path style="opacity:1" fill="#dcdddf" d="M 203.5,564.5 C 203.5,564.167 203.5,563.833 203.5,563.5C 256.844,562.838 309.844,563.504 362.5,565.5C 309.572,564.505 256.572,564.171 203.5,564.5 Z"/></g>
<g><path style="opacity:1" fill="#b5b9ba" d="M 360.5,574.5 C 308.336,575.499 256.003,575.832 203.5,575.5C 203.5,579.5 203.5,583.5 203.5,587.5C 202.515,583.366 202.182,579.032 202.5,574.5C 255.167,574.5 307.833,574.5 360.5,574.5 Z"/></g>
<g><path style="opacity:1" fill="#a6a8a7" d="M 361.5,597.5 C 309.003,598.499 256.336,598.832 203.5,598.5C 203.5,602.5 203.5,606.5 203.5,610.5C 202.515,606.366 202.182,602.032 202.5,597.5C 255.5,597.5 308.5,597.5 361.5,597.5 Z"/></g>
<g><path style="opacity:1" fill="#b9bbbc" d="M 395.5,482.5 C 395.5,534.167 395.5,585.833 395.5,637.5C 331.167,637.5 266.833,637.5 202.5,637.5C 202.179,631.974 202.512,626.64 203.5,621.5C 203.5,626.5 203.5,631.5 203.5,636.5C 267.167,636.5 330.833,636.5 394.5,636.5C 394.168,584.997 394.501,533.664 395.5,482.5 Z"/></g>
<g><path style="opacity:1" fill="#b1b2b3" d="M 845.5,395.5 C 845.5,476.167 845.5,556.833 845.5,637.5C 698.833,637.5 552.167,637.5 405.5,637.5C 405.5,586.167 405.5,534.833 405.5,483.5C 406.499,534.331 406.832,585.331 406.5,636.5C 552.5,636.5 698.5,636.5 844.5,636.5C 844.167,555.998 844.501,475.665 845.5,395.5 Z"/></g>
<g><path style="opacity:1" fill="#333738" d="M 67.5,660.5 C 351.833,660.5 636.167,660.5 920.5,660.5C 694.667,661.5 468.667,661.833 242.5,661.5C 214.5,661.5 186.5,661.5 158.5,661.5C 127.984,661.19 97.817,661.523 68,662.5C 67.5357,661.906 67.369,661.239 67.5,660.5 Z"/></g>
<g><path style="opacity:1" fill="#3c4041" d="M 67.5,660.5 C 67.369,661.239 67.5357,661.906 68,662.5C 97.817,661.523 127.984,661.19 158.5,661.5C 157.4,662.558 156.066,663.392 154.5,664C 154.833,664.333 155.167,664.667 155.5,665C 151.833,665.333 148.167,665.667 144.5,666C 144.833,666.333 145.167,666.667 145.5,667C 143.048,667.29 140.715,667.956 138.5,669C 144.016,669.173 149.349,669.673 154.5,670.5C 124.831,670.667 95.1648,670.5 65.5,670C 61.1767,665.793 61.8433,662.626 67.5,660.5 Z"/></g>
<g><path style="opacity:1" fill="#46494a" d="M 158.5,661.5 C 186.5,661.5 214.5,661.5 242.5,661.5C 241.391,662.29 240.058,662.79 238.5,663C 239.035,665.109 240.035,665.609 241.5,664.5C 243.776,665.213 246.109,665.713 248.5,666C 247.167,666.333 245.833,666.667 244.5,667C 245.833,667.667 245.833,668.333 244.5,669C 240.975,669.179 237.641,669.679 234.5,670.5C 228.833,670.5 223.167,670.5 217.5,670.5C 219.631,669.686 221.964,669.186 224.5,669C 224.167,668.667 223.833,668.333 223.5,668C 217.107,666.17 210.274,665.004 203,664.5C 190.818,664.918 178.984,666.085 167.5,668C 166.748,668.671 166.414,669.504 166.5,670.5C 162.5,670.5 158.5,670.5 154.5,670.5C 149.349,669.673 144.016,669.173 138.5,669C 140.715,667.956 143.048,667.29 145.5,667C 145.167,666.667 144.833,666.333 144.5,666C 148.167,665.667 151.833,665.333 155.5,665C 155.167,664.667 154.833,664.333 154.5,664C 156.066,663.392 157.4,662.558 158.5,661.5 Z"/></g>
<g><path style="opacity:1" fill="#3b3f40" d="M 920.5,660.5 C 924.146,661.462 925.313,663.795 924,667.5C 923.722,668.416 923.222,669.082 922.5,669.5C 922.44,668.957 922.107,668.624 921.5,668.5C 696.706,669.166 472.039,669.832 247.5,670.5C 243.167,670.5 238.833,670.5 234.5,670.5C 237.641,669.679 240.975,669.179 244.5,669C 245.833,668.333 245.833,667.667 244.5,667C 245.833,666.667 247.167,666.333 248.5,666C 246.109,665.713 243.776,665.213 241.5,664.5C 240.035,665.609 239.035,665.109 238.5,663C 240.058,662.79 241.391,662.29 242.5,661.5C 468.667,661.833 694.667,661.5 920.5,660.5 Z"/></g>
<g><path style="opacity:1" fill="#515455" d="M 217.5,670.5 C 200.5,670.5 183.5,670.5 166.5,670.5C 166.414,669.504 166.748,668.671 167.5,668C 178.984,666.085 190.818,664.918 203,664.5C 210.274,665.004 217.107,666.17 223.5,668C 223.833,668.333 224.167,668.667 224.5,669C 221.964,669.186 219.631,669.686 217.5,670.5 Z"/></g>
<g><path style="opacity:1" fill="#323637" d="M 922.5,669.5 C 697.667,670.5 472.667,670.833 247.5,670.5C 472.039,669.832 696.706,669.166 921.5,668.5C 922.107,668.624 922.44,668.957 922.5,669.5 Z"/></g>
</svg>
