<?xml version="1.0" encoding="UTF-8"?>
<!DOCTYPE svg PUBLIC "-//W3C//DTD SVG 1.1//EN" "http://www.w3.org/Graphics/SVG/1.1/DTD/svg11.dtd">
<svg xmlns="http://www.w3.org/2000/svg" version="1.1" width="1000px" height="1080px" style="shape-rendering:geometricPrecision; text-rendering:geometricPrecision; image-rendering:optimizeQuality; fill-rule:evenodd; clip-rule:evenodd" xmlns:xlink="http://www.w3.org/1999/xlink">
<g><path style="opacity:0.992" fill="#020202" d="M 883.5,322.5 C 883.5,321.833 883.167,321.5 882.5,321.5C 882.44,320.957 882.107,320.624 881.5,320.5C 880.5,518.166 880.167,715.832 880.5,913.5C 899.167,913.5 917.833,913.5 936.5,913.5C 948.642,917.121 952.142,924.788 947,936.5C 945.039,939.135 942.539,940.969 939.5,942C 645.833,942.667 352.167,942.667 58.5,942C 49.6428,936.429 47.4761,928.929 52,919.5C 54.5096,916.335 57.6763,914.335 61.5,913.5C 80.5,913.5 99.5,913.5 118.5,913.5C 118.833,719.832 118.5,526.166 117.5,332.5C 116.893,332.624 116.56,332.957 116.5,333.5C 112.777,334.297 109.11,335.297 105.5,336.5C 93.5486,340.428 81.5486,344.261 69.5,348C 60.1532,350.576 53.6532,347.41 50,338.5C 49.3333,307.5 49.3333,276.5 50,245.5C 51.4669,242.734 53.3002,240.234 55.5,238C 236.295,179.291 417.295,120.958 598.5,63C 606.528,60.2114 614.694,58.0447 623,56.5C 627.902,56.6962 632.402,58.1962 636.5,61C 739.912,120.455 843.079,180.288 946,240.5C 947,242.167 948,243.833 949,245.5C 949.667,276.5 949.667,307.5 949,338.5C 944.957,347.413 938.124,350.58 928.5,348C 913.77,338.97 898.77,330.47 883.5,322.5 Z M 506.5,210.5 C 506.5,317.833 506.5,425.167 506.5,532.5C 490.5,532.5 474.5,532.5 458.5,532.5C 457.934,530.922 456.934,529.588 455.5,528.5C 454.833,449.833 454.167,371.167 453.5,292.5C 450.488,285.626 445.155,282.96 437.5,284.5C 427.035,284.999 417.368,287.665 408.5,292.5C 405.918,292.025 403.918,292.692 402.5,294.5C 399.753,294.187 397.086,294.52 394.5,295.5C 390.055,296.632 386.055,298.299 382.5,300.5C 379.918,300.025 377.918,300.692 376.5,302.5C 376.167,302.5 375.833,302.5 375.5,302.5C 373.076,302.192 370.743,302.526 368.5,303.5C 366.025,303.964 364.025,304.964 362.5,306.5C 359.753,306.187 357.086,306.52 354.5,307.5C 348.065,309.301 342.065,311.634 336.5,314.5C 327.05,316.202 317.717,318.536 308.5,321.5C 302.065,323.301 296.065,325.634 290.5,328.5C 281.05,330.202 271.717,332.536 262.5,335.5C 254.07,337.968 246.07,340.968 238.5,344.5C 235.753,344.187 233.086,344.52 230.5,345.5C 226.055,346.632 222.055,348.299 218.5,350.5C 212.25,351.229 206.25,352.896 200.5,355.5C 199.248,357.001 198.248,358.668 197.5,360.5C 196.5,417.829 196.167,475.163 196.5,532.5C 180.5,532.5 164.5,532.5 148.5,532.5C 148.5,463.833 148.5,395.167 148.5,326.5C 153.291,323.225 158.625,320.892 164.5,319.5C 278.624,282.817 392.624,246.484 506.5,210.5 Z M 610.5,142.5 C 607.753,142.187 605.086,142.52 602.5,143.5C 590.074,147.303 578.074,151.636 566.5,156.5C 563.918,156.025 561.918,156.692 560.5,158.5C 557.753,158.187 555.086,158.52 552.5,159.5C 538.076,163.97 524.076,168.97 510.5,174.5C 507.753,174.187 505.086,174.52 502.5,175.5C 488.076,179.97 474.076,184.97 460.5,190.5C 457.918,190.025 455.918,190.692 454.5,192.5C 451.753,192.187 449.086,192.52 446.5,193.5C 432.008,197.991 418.008,202.991 404.5,208.5C 401.99,208.054 399.99,208.72 398.5,210.5C 394.763,210.745 391.097,211.411 387.5,212.5C 373.956,217.237 360.289,221.57 346.5,225.5C 344.668,226.057 343.335,227.057 342.5,228.5C 339.753,228.187 337.086,228.52 334.5,229.5C 313.477,236.395 292.811,243.228 272.5,250C 261.953,252.707 251.953,256.207 242.5,260.5C 237.836,260.181 233.836,261.514 230.5,264.5C 228.473,264.338 226.473,264.505 224.5,265C 212.169,269.35 199.835,273.35 187.5,277C 186.944,277.383 186.611,277.883 186.5,278.5C 184.473,278.338 182.473,278.505 180.5,279C 165.417,283.524 150.751,288.691 136.5,294.5C 133.753,294.187 131.086,294.52 128.5,295.5C 114.076,299.97 100.076,304.97 86.5,310.5C 84.5,310.5 82.5,310.5 80.5,310.5C 80.1673,295.152 80.5006,279.819 81.5,264.5C 82.5,263.5 83.5,262.5 84.5,261.5C 262.466,204.181 440.799,147.181 619.5,90.5C 621.641,90.6132 623.475,91.2799 625,92.5C 625.333,92.1667 625.667,91.8333 626,91.5C 722.752,147.46 819.585,203.293 916.5,259C 917.191,260.067 917.691,261.234 918,262.5C 918.5,276.496 918.667,290.496 918.5,304.5C 911.952,301.893 905.619,298.726 899.5,295C 810.648,243.743 721.981,192.243 633.5,140.5C 627.289,138.353 620.955,138.02 614.5,139.5C 612.668,140.057 611.335,141.057 610.5,142.5 Z M 684.5,300.5 C 637.167,300.5 589.833,300.5 542.5,300.5C 541.833,298.5 540.5,297.167 538.5,296.5C 538.5,265.833 538.5,235.167 538.5,204.5C 540.308,203.082 540.975,201.082 540.5,198.5C 560.861,192.291 580.861,185.791 600.5,179C 606.904,177.81 613.237,176.31 619.5,174.5C 625.556,175.6 631.223,177.766 636.5,181C 652.167,190.167 667.833,199.333 683.5,208.5C 684.5,239.159 684.833,269.826 684.5,300.5 Z M 719.5,228.5 C 763.69,253.756 807.357,279.756 850.5,306.5C 850.5,318.5 850.5,330.5 850.5,342.5C 827.154,329.008 803.654,315.675 780,302.5C 773.983,300.558 767.817,300.058 761.5,301C 758.705,302.793 756.205,304.96 754,307.5C 752.506,382.418 752.006,457.418 752.5,532.5C 741.167,532.5 729.833,532.5 718.5,532.5C 718.167,430.999 718.501,329.665 719.5,228.5 Z M 422.5,322.5 C 422.5,392.5 422.5,462.5 422.5,532.5C 357.833,532.5 293.167,532.5 228.5,532.5C 228.5,481.833 228.5,431.167 228.5,380.5C 231.898,380.82 235.232,380.487 238.5,379.5C 300.082,361.082 361.416,342.082 422.5,322.5 Z M 684.5,454.5 C 635.833,454.5 587.167,454.5 538.5,454.5C 538.5,415.833 538.5,377.167 538.5,338.5C 540.035,337.156 541.368,335.489 542.5,333.5C 589.829,332.5 637.162,332.167 684.5,332.5C 684.5,373.167 684.5,413.833 684.5,454.5 Z M 684.5,912.5 C 637.167,912.5 589.833,912.5 542.5,912.5C 541.833,910.5 540.5,909.167 538.5,908.5C 538.5,872.5 538.5,836.5 538.5,800.5C 540.753,799.257 542.753,797.59 544.5,795.5C 591.162,794.5 637.829,794.167 684.5,794.5C 684.5,833.833 684.5,873.167 684.5,912.5 Z M 850.5,712.5 C 850.5,779.167 850.5,845.833 850.5,912.5C 828.5,912.5 806.5,912.5 784.5,912.5C 784.5,845.833 784.5,779.167 784.5,712.5C 806.5,712.5 828.5,712.5 850.5,712.5 Z M 716.5,640.5 C 761.167,640.5 805.833,640.5 850.5,640.5C 850.5,653.833 850.5,667.167 850.5,680.5C 821.833,680.5 793.167,680.5 764.5,680.5C 759.694,680.286 756.027,682.286 753.5,686.5C 752.5,761.83 752.167,837.164 752.5,912.5C 740.5,912.5 728.5,912.5 716.5,912.5C 716.5,821.833 716.5,731.167 716.5,640.5 Z M 684.5,762.5 C 635.833,762.5 587.167,762.5 538.5,762.5C 538.5,723.167 538.5,683.833 538.5,644.5C 540.078,643.934 541.412,642.934 542.5,641.5C 589.829,640.5 637.162,640.167 684.5,640.5C 684.5,681.167 684.5,721.833 684.5,762.5 Z M 148.5,640.5 C 231.515,639.944 314.515,640.61 397.5,642.5C 413.823,641.589 430.156,640.923 446.5,640.5C 466.506,641.167 486.506,641.834 506.5,642.5C 506.5,732.5 506.5,822.5 506.5,912.5C 479.825,912.833 453.158,912.5 426.5,911.5C 425.5,910.5 424.5,909.5 423.5,908.5C 422.5,836.836 422.167,765.17 422.5,693.5C 423.224,683.882 418.891,679.548 409.5,680.5C 355.167,680.5 300.833,680.5 246.5,680.5C 239.884,679.448 235.551,682.114 233.5,688.5C 232.5,763.164 232.167,837.83 232.5,912.5C 204.5,912.5 176.5,912.5 148.5,912.5C 148.5,821.833 148.5,731.167 148.5,640.5 Z M 264.5,712.5 C 306.5,712.5 348.5,712.5 390.5,712.5C 390.5,779.167 390.5,845.833 390.5,912.5C 348.5,912.5 306.5,912.5 264.5,912.5C 264.5,845.833 264.5,779.167 264.5,712.5 Z M 148.5,564.5 C 267.833,564.5 387.167,564.5 506.5,564.5C 506.5,578.5 506.5,592.5 506.5,606.5C 492.791,605.852 479.458,606.519 466.5,608.5C 421.499,608.333 376.499,608.5 331.5,609C 329.833,611 328.167,611 326.5,609C 267.168,608.5 207.834,608.333 148.5,608.5C 148.5,593.833 148.5,579.167 148.5,564.5 Z M 720.5,565.5 C 763.167,565.5 805.833,565.5 848.5,565.5C 848.5,579.167 848.5,592.833 848.5,606.5C 807.452,606.977 766.452,606.477 725.5,605C 723.667,603.167 721.833,601.333 720,599.5C 718.265,588.082 718.432,576.749 720.5,565.5 Z M 684.5,608.5 C 637.167,608.5 589.833,608.5 542.5,608.5C 541.833,606.5 540.5,605.167 538.5,604.5C 538.5,567.167 538.5,529.833 538.5,492.5C 540.753,491.257 542.753,489.59 544.5,487.5C 591.162,486.5 637.829,486.167 684.5,486.5C 684.5,527.167 684.5,567.833 684.5,608.5 Z M 785.5,344.5 C 806.445,356.273 827.279,368.273 848,380.5C 848.5,430.832 848.667,481.166 848.5,531.5C 827.5,531.5 806.5,531.5 785.5,531.5C 785.5,469.167 785.5,406.833 785.5,344.5 Z"/></g>
<g><path style="opacity:0.234" fill="#fefefe" d="M 507.5,207.5 C 507.833,316.001 507.499,424.335 506.5,532.5C 506.5,425.167 506.5,317.833 506.5,210.5C 506.167,209.833 505.833,209.167 505.5,208.5C 506.167,208.167 506.833,207.833 507.5,207.5 Z"/></g>
<g><path style="opacity:0.031" fill="#eeeeee" d="M 883.5,323.5 C 883.5,323.167 883.5,322.833 883.5,322.5C 898.77,330.47 913.77,338.97 928.5,348C 938.124,350.58 944.957,347.413 949,338.5C 949.667,307.5 949.667,276.5 949,245.5C 948,243.833 947,242.167 946,240.5C 843.079,180.288 739.912,120.455 636.5,61C 632.402,58.1962 627.902,56.6962 623,56.5C 614.694,58.0447 606.528,60.2114 598.5,63C 417.295,120.958 236.295,179.291 55.5,238C 53.3002,240.234 51.4669,242.734 50,245.5C 49.3333,276.5 49.3333,307.5 50,338.5C 53.6532,347.41 60.1532,350.576 69.5,348C 81.5486,344.261 93.5486,340.428 105.5,336.5C 105.842,337.338 106.508,337.672 107.5,337.5C 93.5544,342.813 79.2211,347.146 64.5,350.5C 56.6564,349.836 51.1564,345.836 48,338.5C 47.3333,307.5 47.3333,276.5 48,245.5C 49.7098,241.781 52.2098,238.614 55.5,236C 244.465,174.401 433.799,113.901 623.5,54.5C 625.167,54.6667 626.833,54.8333 628.5,55C 733.5,115.333 838.5,175.667 943.5,236C 946.79,238.614 949.29,241.781 951,245.5C 951.667,276.5 951.667,307.5 951,338.5C 946.832,348 939.665,351.834 929.5,350C 913.941,341.392 898.607,332.559 883.5,323.5 Z M 610.5,142.5 C 607.753,142.187 605.086,142.52 602.5,143.5C 590.074,147.303 578.074,151.636 566.5,156.5C 563.918,156.025 561.918,156.692 560.5,158.5C 557.753,158.187 555.086,158.52 552.5,159.5C 538.076,163.97 524.076,168.97 510.5,174.5C 507.753,174.187 505.086,174.52 502.5,175.5C 488.076,179.97 474.076,184.97 460.5,190.5C 457.918,190.025 455.918,190.692 454.5,192.5C 451.753,192.187 449.086,192.52 446.5,193.5C 432.008,197.991 418.008,202.991 404.5,208.5C 401.99,208.054 399.99,208.72 398.5,210.5C 394.763,210.745 391.097,211.411 387.5,212.5C 373.956,217.237 360.289,221.57 346.5,225.5C 344.668,226.057 343.335,227.057 342.5,228.5C 339.753,228.187 337.086,228.52 334.5,229.5C 313.477,236.395 292.811,243.228 272.5,250C 261.953,252.707 251.953,256.207 242.5,260.5C 237.836,260.181 233.836,261.514 230.5,264.5C 228.473,264.338 226.473,264.505 224.5,265C 212.169,269.35 199.835,273.35 187.5,277C 186.944,277.383 186.611,277.883 186.5,278.5C 184.473,278.338 182.473,278.505 180.5,279C 165.417,283.524 150.751,288.691 136.5,294.5C 133.753,294.187 131.086,294.52 128.5,295.5C 114.076,299.97 100.076,304.97 86.5,310.5C 84.5,310.5 82.5,310.5 80.5,310.5C 80.1673,295.152 80.5006,279.819 81.5,264.5C 82.5,263.5 83.5,262.5 84.5,261.5C 262.466,204.181 440.799,147.181 619.5,90.5C 621.641,90.6132 623.475,91.2799 625,92.5C 625.333,92.1667 625.667,91.8333 626,91.5C 722.752,147.46 819.585,203.293 916.5,259C 917.191,260.067 917.691,261.234 918,262.5C 918.5,276.496 918.667,290.496 918.5,304.5C 911.952,301.893 905.619,298.726 899.5,295C 810.648,243.743 721.981,192.243 633.5,140.5C 627.289,138.353 620.955,138.02 614.5,139.5C 612.668,140.057 611.335,141.057 610.5,142.5 Z M 684.5,300.5 C 637.167,300.5 589.833,300.5 542.5,300.5C 541.833,298.5 540.5,297.167 538.5,296.5C 538.5,265.833 538.5,235.167 538.5,204.5C 540.308,203.082 540.975,201.082 540.5,198.5C 560.861,192.291 580.861,185.791 600.5,179C 606.904,177.81 613.237,176.31 619.5,174.5C 625.556,175.6 631.223,177.766 636.5,181C 652.167,190.167 667.833,199.333 683.5,208.5C 684.5,239.159 684.833,269.826 684.5,300.5 Z"/></g>
<g><path style="opacity:0.048" fill="#e8e8e8" d="M 610.5,142.5 C 611.335,141.057 612.668,140.057 614.5,139.5C 620.955,138.02 627.289,138.353 633.5,140.5C 721.981,192.243 810.648,243.743 899.5,295C 905.619,298.726 911.952,301.893 918.5,304.5C 918.667,290.496 918.5,276.496 918,262.5C 917.691,261.234 917.191,260.067 916.5,259C 819.585,203.293 722.752,147.46 626,91.5C 625.667,91.8333 625.333,92.1667 625,92.5C 623.475,91.2799 621.641,90.6132 619.5,90.5C 440.799,147.181 262.466,204.181 84.5,261.5C 83.5,262.5 82.5,263.5 81.5,264.5C 80.5006,279.819 80.1673,295.152 80.5,310.5C 82.5,310.5 84.5,310.5 86.5,310.5C 84.4606,311.578 82.294,312.578 80,313.5C 79.5001,295.836 79.3334,278.17 79.5,260.5C 260.106,203.222 440.606,145.556 621,87.5C 720.35,144.095 819.517,201.095 918.5,258.5C 919.833,274.833 919.833,291.167 918.5,307.5C 823.5,252.667 728.5,197.833 633.5,143C 630.263,141.032 626.763,139.865 623,139.5C 618.798,140.402 614.632,141.402 610.5,142.5 Z M 684.5,300.5 C 637.167,300.5 589.833,300.5 542.5,300.5C 541.833,298.5 540.5,297.167 538.5,296.5C 538.5,265.833 538.5,235.167 538.5,204.5C 540.308,203.082 540.975,201.082 540.5,198.5C 560.861,192.291 580.861,185.791 600.5,179C 606.904,177.81 613.237,176.31 619.5,174.5C 625.556,175.6 631.223,177.766 636.5,181C 652.167,190.167 667.833,199.333 683.5,208.5C 684.5,239.159 684.833,269.826 684.5,300.5 Z"/></g>
<g><path style="opacity:0.078" fill="#f2f2f2" d="M 404.5,208.5 C 402.786,209.738 400.786,210.405 398.5,210.5C 399.99,208.72 401.99,208.054 404.5,208.5 Z"/></g>
<g><path style="opacity:0.167" fill="#f0f0f0" d="M 454.5,192.5 C 438.113,198.406 421.447,203.739 404.5,208.5C 418.008,202.991 432.008,197.991 446.5,193.5C 449.086,192.52 451.753,192.187 454.5,192.5 Z"/></g>
<g><path style="opacity:0.13" fill="#f6f6f6" d="M 460.5,190.5 C 458.786,191.738 456.786,192.405 454.5,192.5C 455.918,190.692 457.918,190.025 460.5,190.5 Z"/></g>
<g><path style="opacity:0.194" fill="#f2f2f2" d="M 510.5,174.5 C 494.113,180.406 477.447,185.739 460.5,190.5C 474.076,184.97 488.076,179.97 502.5,175.5C 505.086,174.52 507.753,174.187 510.5,174.5 Z"/></g>
<g><path style="opacity:0.125" fill="#eaeaea" d="M 686.5,300.5 C 685.833,300.5 685.167,300.5 684.5,300.5C 684.833,269.826 684.5,239.159 683.5,208.5C 667.833,199.333 652.167,190.167 636.5,181C 631.223,177.766 625.556,175.6 619.5,174.5C 613.237,176.31 606.904,177.81 600.5,179C 580.861,185.791 560.861,192.291 540.5,198.5C 540.975,201.082 540.308,203.082 538.5,204.5C 538.5,202.167 538.5,199.833 538.5,197.5C 565.904,188.532 593.404,179.865 621,171.5C 642.843,182.839 664.343,194.839 685.5,207.5C 686.5,238.493 686.833,269.493 686.5,300.5 Z"/></g>
<g><path style="opacity:0.176" fill="#f2f2f2" d="M 560.5,158.5 C 544.113,164.406 527.447,169.739 510.5,174.5C 524.076,168.97 538.076,163.97 552.5,159.5C 555.086,158.52 557.753,158.187 560.5,158.5 Z"/></g>
<g><path style="opacity:0.125" fill="#f6f6f6" d="M 566.5,156.5 C 564.786,157.738 562.786,158.405 560.5,158.5C 561.918,156.692 563.918,156.025 566.5,156.5 Z"/></g>
<g><path style="opacity:0.146" fill="#efefef" d="M 610.5,142.5 C 596.106,147.741 581.44,152.408 566.5,156.5C 578.074,151.636 590.074,147.303 602.5,143.5C 605.086,142.52 607.753,142.187 610.5,142.5 Z"/></g>
<g><path style="opacity:0.13" fill="#f0f0f0" d="M 398.5,210.5 C 380.103,217.076 361.436,223.076 342.5,228.5C 343.335,227.057 344.668,226.057 346.5,225.5C 360.289,221.57 373.956,217.237 387.5,212.5C 391.097,211.411 394.763,210.745 398.5,210.5 Z"/></g>
<g><path style="opacity:0.014" fill="#fcfcfc" d="M 719.5,227.5 C 719.5,227.833 719.5,228.167 719.5,228.5C 718.501,329.665 718.167,430.999 718.5,532.5C 717.833,532.5 717.167,532.5 716.5,532.5C 716.333,430.166 716.5,327.833 717,225.5C 717.708,226.381 718.542,227.047 719.5,227.5 Z"/></g>
<g><path style="opacity:0.212" fill="#efefef" d="M 342.5,228.5 C 309.457,239.735 276.124,250.402 242.5,260.5C 251.953,256.207 261.953,252.707 272.5,250C 292.811,243.228 313.477,236.395 334.5,229.5C 337.086,228.52 339.753,228.187 342.5,228.5 Z"/></g>
<g><path style="opacity:0.146" fill="#e6e6e6" d="M 505.5,208.5 C 505.833,209.167 506.167,209.833 506.5,210.5C 392.624,246.484 278.624,282.817 164.5,319.5C 158.625,320.892 153.291,323.225 148.5,326.5C 148.5,325.167 148.5,323.833 148.5,322.5C 267.501,284.5 386.501,246.5 505.5,208.5 Z"/></g>
<g><path style="opacity:0.016" fill="#f1f1f1" d="M 242.5,260.5 C 238.784,262.405 234.784,263.739 230.5,264.5C 233.836,261.514 237.836,260.181 242.5,260.5 Z"/></g>
<g><path style="opacity:0.032" fill="#efefef" d="M 230.5,264.5 C 216.113,269.739 201.446,274.406 186.5,278.5C 186.611,277.883 186.944,277.383 187.5,277C 199.835,273.35 212.169,269.35 224.5,265C 226.473,264.505 228.473,264.338 230.5,264.5 Z"/></g>
<g><path style="opacity:0.167" fill="#f0f0f0" d="M 186.5,278.5 C 170.107,284.408 153.44,289.741 136.5,294.5C 150.751,288.691 165.417,283.524 180.5,279C 182.473,278.505 184.473,278.338 186.5,278.5 Z"/></g>
<g><path style="opacity:0.105" fill="#f3f3f3" d="M 408.5,292.5 C 406.786,293.738 404.786,294.405 402.5,294.5C 403.918,292.692 405.918,292.025 408.5,292.5 Z"/></g>
<g><path style="opacity:0.188" fill="#ececec" d="M 719.5,227.5 C 763.366,252.596 807.032,277.929 850.5,303.5C 850.5,304.5 850.5,305.5 850.5,306.5C 807.357,279.756 763.69,253.756 719.5,228.5C 719.5,228.167 719.5,227.833 719.5,227.5 Z"/></g>
<g><path style="opacity:0.253" fill="#fafafa" d="M 458.5,532.5 C 456.833,532.5 455.167,532.5 453.5,532.5C 453.833,453.998 453.499,375.665 452.5,297.5C 449.349,287.036 442.349,283.202 431.5,286C 423.896,288.48 416.229,290.647 408.5,292.5C 417.368,287.665 427.035,284.999 437.5,284.5C 445.155,282.96 450.488,285.626 453.5,292.5C 454.167,371.167 454.833,449.833 455.5,528.5C 456.934,529.588 457.934,530.922 458.5,532.5 Z"/></g>
<g><path style="opacity:0.157" fill="#f1f1f1" d="M 402.5,294.5 C 396.107,297.072 389.441,299.072 382.5,300.5C 386.055,298.299 390.055,296.632 394.5,295.5C 397.086,294.52 399.753,294.187 402.5,294.5 Z"/></g>
<g><path style="opacity:0.273" fill="#fcfcfc" d="M 538.5,296.5 C 540.5,297.167 541.833,298.5 542.5,300.5C 541.167,300.5 539.833,300.5 538.5,300.5C 538.5,299.167 538.5,297.833 538.5,296.5 Z"/></g>
<g><path style="opacity:0.125" fill="#ececec" d="M 382.5,300.5 C 380.786,301.738 378.786,302.405 376.5,302.5C 377.918,300.692 379.918,300.025 382.5,300.5 Z"/></g>
<g><path style="opacity:0.251" fill="#747474" d="M 538.5,197.5 C 538.5,199.833 538.5,202.167 538.5,204.5C 538.5,235.167 538.5,265.833 538.5,296.5C 538.5,297.833 538.5,299.167 538.5,300.5C 539.833,300.5 541.167,300.5 542.5,300.5C 589.833,300.5 637.167,300.5 684.5,300.5C 685.167,300.5 685.833,300.5 686.5,300.5C 637.003,301.499 587.336,301.832 537.5,301.5C 537.168,266.663 537.502,231.996 538.5,197.5 Z"/></g>
<g><path style="opacity:0.161" fill="#f2f2f2" d="M 136.5,294.5 C 120.127,300.433 103.46,305.766 86.5,310.5C 100.076,304.97 114.076,299.97 128.5,295.5C 131.086,294.52 133.753,294.187 136.5,294.5 Z"/></g>
<g><path style="opacity:0.749" fill="#a1a1a1" d="M 507.5,207.5 C 508.499,315.999 508.833,424.665 508.5,533.5C 489.833,533.5 471.167,533.5 452.5,533.5C 452.5,454.833 452.5,376.167 452.5,297.5C 453.499,375.665 453.833,453.998 453.5,532.5C 455.167,532.5 456.833,532.5 458.5,532.5C 474.5,532.5 490.5,532.5 506.5,532.5C 507.499,424.335 507.833,316.001 507.5,207.5 Z"/></g>
<g><path style="opacity:0.288" fill="#666666" d="M 850.5,303.5 C 851.826,317.339 851.826,331.339 850.5,345.5C 849.893,345.376 849.56,345.043 849.5,344.5C 850.338,344.158 850.672,343.492 850.5,342.5C 850.5,330.5 850.5,318.5 850.5,306.5C 850.5,305.5 850.5,304.5 850.5,303.5 Z"/></g>
<g><path style="opacity:0.141" fill="#efefef" d="M 375.5,302.5 C 371.498,304.61 367.165,305.943 362.5,306.5C 364.025,304.964 366.025,303.964 368.5,303.5C 370.743,302.526 373.076,302.192 375.5,302.5 Z"/></g>
<g><path style="opacity:0.161" fill="#f0f0f0" d="M 362.5,306.5 C 354.112,309.769 345.445,312.435 336.5,314.5C 342.065,311.634 348.065,309.301 354.5,307.5C 357.086,306.52 359.753,306.187 362.5,306.5 Z"/></g>
<g><path style="opacity:0.114" fill="#f0f0f0" d="M 850.5,342.5 C 850.672,343.492 850.338,344.158 849.5,344.5C 825.194,330.679 800.861,316.845 776.5,303C 766.322,299.013 758.822,301.846 754,311.5C 753.5,385.499 753.333,459.499 753.5,533.5C 740.989,533.829 728.655,533.495 716.5,532.5C 717.167,532.5 717.833,532.5 718.5,532.5C 729.833,532.5 741.167,532.5 752.5,532.5C 752.006,457.418 752.506,382.418 754,307.5C 756.205,304.96 758.705,302.793 761.5,301C 767.817,300.058 773.983,300.558 780,302.5C 803.654,315.675 827.154,329.008 850.5,342.5 Z"/></g>
<g><path style="opacity:0.214" fill="#f2f2f2" d="M 336.5,314.5 C 321.45,319.767 306.117,324.434 290.5,328.5C 296.065,325.634 302.065,323.301 308.5,321.5C 317.717,318.536 327.05,316.202 336.5,314.5 Z"/></g>
<g><path style="opacity:0.244" fill="#969696" d="M 882.5,321.5 C 881.5,518.333 881.167,715.333 881.5,912.5C 900.008,912.17 918.341,912.503 936.5,913.5C 917.833,913.5 899.167,913.5 880.5,913.5C 880.167,715.832 880.5,518.166 881.5,320.5C 882.107,320.624 882.44,320.957 882.5,321.5 Z"/></g>
<g><path style="opacity:0.652" fill="#8a8a8a" d="M 686.5,331.5 C 637.167,331.5 587.833,331.5 538.5,331.5C 538.5,333.833 538.5,336.167 538.5,338.5C 538.5,377.167 538.5,415.833 538.5,454.5C 587.167,454.5 635.833,454.5 684.5,454.5C 685.167,454.5 685.833,454.5 686.5,454.5C 637.003,455.499 587.336,455.832 537.5,455.5C 537.5,413.833 537.5,372.167 537.5,330.5C 587.336,330.168 637.003,330.501 686.5,331.5 Z"/></g>
<g><path style="opacity:0.19" fill="#f6f6f6" d="M 686.5,331.5 C 686.5,372.5 686.5,413.5 686.5,454.5C 685.833,454.5 685.167,454.5 684.5,454.5C 684.5,413.833 684.5,373.167 684.5,332.5C 637.162,332.167 589.829,332.5 542.5,333.5C 541.368,335.489 540.035,337.156 538.5,338.5C 538.5,336.167 538.5,333.833 538.5,331.5C 587.833,331.5 637.167,331.5 686.5,331.5 Z"/></g>
<g><path style="opacity:0.311" fill="#dfdfdf" d="M 422.5,322.5 C 361.416,342.082 300.082,361.082 238.5,379.5C 235.232,380.487 231.898,380.82 228.5,380.5C 228.5,431.167 228.5,481.833 228.5,532.5C 293.167,532.5 357.833,532.5 422.5,532.5C 357.669,533.499 292.669,533.832 227.5,533.5C 227.167,482.162 227.5,430.829 228.5,379.5C 292.615,359.74 356.782,340.073 421,320.5C 422.03,320.836 422.53,321.503 422.5,322.5 Z"/></g>
<g><path style="opacity:0.198" fill="#f2f2f2" d="M 290.5,328.5 C 273.443,334.406 256.11,339.739 238.5,344.5C 246.07,340.968 254.07,337.968 262.5,335.5C 271.717,332.536 281.05,330.202 290.5,328.5 Z"/></g>
<g><path style="opacity:0.572" fill="#969696" d="M 116.5,333.5 C 116.56,332.957 116.893,332.624 117.5,332.5C 118.5,526.166 118.833,719.832 118.5,913.5C 99.5,913.5 80.5,913.5 61.5,913.5C 79.9925,912.503 98.6592,912.17 117.5,912.5C 117.833,719.333 117.5,526.333 116.5,333.5 Z"/></g>
<g><path style="opacity:0.251" fill="#8d8d8d" d="M 148.5,322.5 C 148.5,323.833 148.5,325.167 148.5,326.5C 148.5,395.167 148.5,463.833 148.5,532.5C 164.5,532.5 180.5,532.5 196.5,532.5C 196.833,532.5 197.167,532.5 197.5,532.5C 181.008,533.497 164.342,533.83 147.5,533.5C 147.167,462.998 147.501,392.665 148.5,322.5 Z"/></g>
<g><path style="opacity:0.004" fill="#e4e4e4" d="M 882.5,321.5 C 883.167,321.5 883.5,321.833 883.5,322.5C 883.5,322.833 883.5,323.167 883.5,323.5C 882.5,519.333 882.167,715.333 882.5,911.5C 901.503,911.333 920.503,911.5 939.5,912C 950.685,917.186 953.852,925.353 949,936.5C 946.408,939.762 943.241,942.262 939.5,944C 646.167,944.667 352.833,944.667 59.5,944C 45.1673,935.666 43.834,925.666 55.5,914C 57.5,913 59.5,912 61.5,911C 79.4969,910.5 97.4969,910.333 115.5,910.5C 115.45,718.814 115.116,527.148 114.5,335.5C 112.271,336.577 109.937,337.244 107.5,337.5C 106.508,337.672 105.842,337.338 105.5,336.5C 109.11,335.297 112.777,334.297 116.5,333.5C 117.5,526.333 117.833,719.333 117.5,912.5C 98.6592,912.17 79.9925,912.503 61.5,913.5C 57.6763,914.335 54.5096,916.335 52,919.5C 47.4761,928.929 49.6428,936.429 58.5,942C 352.167,942.667 645.833,942.667 939.5,942C 942.539,940.969 945.039,939.135 947,936.5C 952.142,924.788 948.642,917.121 936.5,913.5C 918.341,912.503 900.008,912.17 881.5,912.5C 881.167,715.333 881.5,518.333 882.5,321.5 Z M 684.5,912.5 C 637.167,912.5 589.833,912.5 542.5,912.5C 541.833,910.5 540.5,909.167 538.5,908.5C 538.5,872.5 538.5,836.5 538.5,800.5C 540.753,799.257 542.753,797.59 544.5,795.5C 591.162,794.5 637.829,794.167 684.5,794.5C 684.5,833.833 684.5,873.167 684.5,912.5 Z M 850.5,712.5 C 850.5,779.167 850.5,845.833 850.5,912.5C 828.5,912.5 806.5,912.5 784.5,912.5C 784.5,845.833 784.5,779.167 784.5,712.5C 806.5,712.5 828.5,712.5 850.5,712.5 Z M 716.5,640.5 C 761.167,640.5 805.833,640.5 850.5,640.5C 850.5,653.833 850.5,667.167 850.5,680.5C 821.833,680.5 793.167,680.5 764.5,680.5C 759.694,680.286 756.027,682.286 753.5,686.5C 752.5,761.83 752.167,837.164 752.5,912.5C 740.5,912.5 728.5,912.5 716.5,912.5C 716.5,821.833 716.5,731.167 716.5,640.5 Z M 684.5,762.5 C 635.833,762.5 587.167,762.5 538.5,762.5C 538.5,723.167 538.5,683.833 538.5,644.5C 540.078,643.934 541.412,642.934 542.5,641.5C 589.829,640.5 637.162,640.167 684.5,640.5C 684.5,681.167 684.5,721.833 684.5,762.5 Z M 148.5,640.5 C 231.515,639.944 314.515,640.61 397.5,642.5C 413.823,641.589 430.156,640.923 446.5,640.5C 466.506,641.167 486.506,641.834 506.5,642.5C 506.5,732.5 506.5,822.5 506.5,912.5C 479.825,912.833 453.158,912.5 426.5,911.5C 425.5,910.5 424.5,909.5 423.5,908.5C 422.5,836.836 422.167,765.17 422.5,693.5C 423.224,683.882 418.891,679.548 409.5,680.5C 355.167,680.5 300.833,680.5 246.5,680.5C 239.884,679.448 235.551,682.114 233.5,688.5C 232.5,763.164 232.167,837.83 232.5,912.5C 204.5,912.5 176.5,912.5 148.5,912.5C 148.5,821.833 148.5,731.167 148.5,640.5 Z M 264.5,712.5 C 306.5,712.5 348.5,712.5 390.5,712.5C 390.5,779.167 390.5,845.833 390.5,912.5C 348.5,912.5 306.5,912.5 264.5,912.5C 264.5,845.833 264.5,779.167 264.5,712.5 Z M 148.5,564.5 C 267.833,564.5 387.167,564.5 506.5,564.5C 506.5,578.5 506.5,592.5 506.5,606.5C 492.791,605.852 479.458,606.519 466.5,608.5C 421.499,608.333 376.499,608.5 331.5,609C 329.833,611 328.167,611 326.5,609C 267.168,608.5 207.834,608.333 148.5,608.5C 148.5,593.833 148.5,579.167 148.5,564.5 Z M 720.5,565.5 C 718.432,576.749 718.265,588.082 720,599.5C 721.833,601.333 723.667,603.167 725.5,605C 766.452,606.477 807.452,606.977 848.5,606.5C 848.5,592.833 848.5,579.167 848.5,565.5C 805.833,565.5 763.167,565.5 720.5,565.5 Z M 684.5,608.5 C 637.167,608.5 589.833,608.5 542.5,608.5C 541.833,606.5 540.5,605.167 538.5,604.5C 538.5,567.167 538.5,529.833 538.5,492.5C 540.753,491.257 542.753,489.59 544.5,487.5C 591.162,486.5 637.829,486.167 684.5,486.5C 684.5,527.167 684.5,567.833 684.5,608.5 Z M 785.5,344.5 C 785.5,406.833 785.5,469.167 785.5,531.5C 806.5,531.5 827.5,531.5 848.5,531.5C 848.667,481.166 848.5,430.832 848,380.5C 827.279,368.273 806.445,356.273 785.5,344.5 Z"/></g>
<g><path style="opacity:0.253" fill="#fcfcfc" d="M 538.5,908.5 C 540.5,909.167 541.833,910.5 542.5,912.5C 541.167,912.5 539.833,912.5 538.5,912.5C 538.5,911.167 538.5,909.833 538.5,908.5 Z"/></g>
<g><path style="opacity:0.266" fill="#f6f6f6" d="M 686.5,793.5 C 686.5,833.167 686.5,872.833 686.5,912.5C 685.833,912.5 685.167,912.5 684.5,912.5C 684.5,873.167 684.5,833.833 684.5,794.5C 637.829,794.167 591.162,794.5 544.5,795.5C 542.753,797.59 540.753,799.257 538.5,800.5C 538.5,798.167 538.5,795.833 538.5,793.5C 587.833,793.5 637.167,793.5 686.5,793.5 Z"/></g>
<g><path style="opacity:0.753" fill="#919191" d="M 686.5,793.5 C 637.167,793.5 587.833,793.5 538.5,793.5C 538.5,795.833 538.5,798.167 538.5,800.5C 538.5,836.5 538.5,872.5 538.5,908.5C 538.5,909.833 538.5,911.167 538.5,912.5C 539.833,912.5 541.167,912.5 542.5,912.5C 589.833,912.5 637.167,912.5 684.5,912.5C 685.167,912.5 685.833,912.5 686.5,912.5C 637.003,913.499 587.336,913.832 537.5,913.5C 537.5,873.167 537.5,832.833 537.5,792.5C 587.336,792.168 637.003,792.501 686.5,793.5 Z"/></g>
<g><path style="opacity:0.251" fill="#cecece" d="M 850.5,712.5 C 828.5,712.5 806.5,712.5 784.5,712.5C 784.5,779.167 784.5,845.833 784.5,912.5C 806.5,912.5 828.5,912.5 850.5,912.5C 828.34,913.497 806.006,913.831 783.5,913.5C 783.5,845.833 783.5,778.167 783.5,710.5C 806.192,709.844 828.525,710.511 850.5,712.5 Z"/></g>
<g><path style="opacity:0.252" fill="#6b6b6b" d="M 264.5,710.5 C 264.5,711.167 264.5,711.833 264.5,712.5C 264.5,779.167 264.5,845.833 264.5,912.5C 306.5,912.5 348.5,912.5 390.5,912.5C 390.833,912.5 391.167,912.5 391.5,912.5C 349.003,913.499 306.337,913.832 263.5,913.5C 263.167,845.665 263.501,777.998 264.5,710.5 Z"/></g>
<g><path style="opacity:0.251" fill="#e9e9e9" d="M 764.5,680.5 C 759.857,682.979 756.357,686.645 754,691.5C 753.5,765.499 753.333,839.499 753.5,913.5C 740.989,913.829 728.655,913.495 716.5,912.5C 728.5,912.5 740.5,912.5 752.5,912.5C 752.167,837.164 752.5,761.83 753.5,686.5C 756.027,682.286 759.694,680.286 764.5,680.5 Z"/></g>
<g><path style="opacity:0.257" fill="#a8a8a8" d="M 421.5,693.5 C 421.833,693.5 422.167,693.5 422.5,693.5C 422.167,765.17 422.5,836.836 423.5,908.5C 424.5,909.5 425.5,910.5 426.5,911.5C 453.158,912.5 479.825,912.833 506.5,912.5C 506.833,912.5 507.167,912.5 507.5,912.5C 479.005,913.498 450.338,913.831 421.5,913.5C 421.5,840.167 421.5,766.833 421.5,693.5 Z"/></g>
<g><path style="opacity:0.749" fill="#929292" d="M 234.5,692.5 C 234.5,766.167 234.5,839.833 234.5,913.5C 205.662,913.831 176.995,913.498 148.5,912.5C 176.5,912.5 204.5,912.5 232.5,912.5C 233.167,839.167 233.833,765.833 234.5,692.5 Z"/></g>
<g><path style="opacity:0.256" fill="#a1a1a1" d="M 850.5,680.5 C 850.5,667.167 850.5,653.833 850.5,640.5C 805.833,640.5 761.167,640.5 716.5,640.5C 761.154,638.505 806.154,637.838 851.5,638.5C 851.829,652.677 851.496,666.677 850.5,680.5 Z"/></g>
<g><path style="opacity:0.251" fill="#f6f6f6" d="M 686.5,639.5 C 686.5,680.5 686.5,721.5 686.5,762.5C 685.833,762.5 685.167,762.5 684.5,762.5C 684.5,721.833 684.5,681.167 684.5,640.5C 637.162,640.167 589.829,640.5 542.5,641.5C 541.412,642.934 540.078,643.934 538.5,644.5C 538.5,642.833 538.5,641.167 538.5,639.5C 587.833,639.5 637.167,639.5 686.5,639.5 Z"/></g>
<g><path style="opacity:0.252" fill="#737373" d="M 507.5,912.5 C 507.5,821.5 507.5,730.5 507.5,639.5C 387.666,639.167 267.999,639.5 148.5,640.5C 148.5,731.167 148.5,821.833 148.5,912.5C 147.501,821.335 147.167,730.002 147.5,638.5C 267.833,638.5 388.167,638.5 508.5,638.5C 508.833,730.002 508.499,821.335 507.5,912.5 Z M 148.5,640.5 C 231.515,639.944 314.515,640.61 397.5,642.5C 413.823,641.589 430.156,640.923 446.5,640.5C 466.506,641.167 486.506,641.834 506.5,642.5C 506.5,732.5 506.5,822.5 506.5,912.5C 479.825,912.833 453.158,912.5 426.5,911.5C 425.5,910.5 424.5,909.5 423.5,908.5C 422.5,836.836 422.167,765.17 422.5,693.5C 423.224,683.882 418.891,679.548 409.5,680.5C 355.167,680.5 300.833,680.5 246.5,680.5C 239.884,679.448 235.551,682.114 233.5,688.5C 232.5,763.164 232.167,837.83 232.5,912.5C 204.5,912.5 176.5,912.5 148.5,912.5C 148.5,821.833 148.5,731.167 148.5,640.5 Z M 264.5,712.5 C 306.5,712.5 348.5,712.5 390.5,712.5C 390.5,779.167 390.5,845.833 390.5,912.5C 348.5,912.5 306.5,912.5 264.5,912.5C 264.5,845.833 264.5,779.167 264.5,712.5 Z"/></g>
<g><path style="opacity:0.233" fill="#e7e7e7" d="M 324.5,796.5 C 314.224,801.068 311.057,808.735 315,819.5C 317.179,822.011 319.679,824.178 322.5,826C 338.167,826.667 353.833,826.667 369.5,826C 378.174,822.363 381.34,815.863 379,806.5C 376.919,801.584 373.419,798.25 368.5,796.5C 373.306,796.286 376.973,798.286 379.5,802.5C 380.833,809.167 380.833,815.833 379.5,822.5C 377.695,824.903 375.362,826.57 372.5,827.5C 355.167,828.833 337.833,828.833 320.5,827.5C 317.638,826.57 315.305,824.903 313.5,822.5C 312.167,815.833 312.167,809.167 313.5,802.5C 316.027,798.286 319.694,796.286 324.5,796.5 Z"/></g>
<g><path style="opacity:0.978" fill="#050505" d="M 324.5,796.5 C 339.167,796.5 353.833,796.5 368.5,796.5C 373.419,798.25 376.919,801.584 379,806.5C 381.34,815.863 378.174,822.363 369.5,826C 353.833,826.667 338.167,826.667 322.5,826C 319.679,824.178 317.179,822.011 315,819.5C 311.057,808.735 314.224,801.068 324.5,796.5 Z"/></g>
<g><path style="opacity:0.252" fill="#f2f2f2" d="M 264.5,710.5 C 306.833,710.5 349.167,710.5 391.5,710.5C 391.5,777.833 391.5,845.167 391.5,912.5C 391.167,912.5 390.833,912.5 390.5,912.5C 390.5,845.833 390.5,779.167 390.5,712.5C 348.5,712.5 306.5,712.5 264.5,712.5C 264.5,711.833 264.5,711.167 264.5,710.5 Z"/></g>
<g><path style="opacity:0.248" fill="#fcfcfc" d="M 246.5,680.5 C 240.235,682.098 236.235,686.098 234.5,692.5C 233.833,765.833 233.167,839.167 232.5,912.5C 232.167,837.83 232.5,763.164 233.5,688.5C 235.551,682.114 239.884,679.448 246.5,680.5 Z"/></g>
<g><path style="opacity:0.163" fill="#f0f0f0" d="M 409.5,680.5 C 418.891,679.548 423.224,683.882 422.5,693.5C 422.167,693.5 421.833,693.5 421.5,693.5C 420.247,686.582 416.247,682.248 409.5,680.5 Z"/></g>
<g><path style="opacity:0.256" fill="#fefefe" d="M 148.5,640.5 C 267.999,639.5 387.666,639.167 507.5,639.5C 507.5,730.5 507.5,821.5 507.5,912.5C 507.167,912.5 506.833,912.5 506.5,912.5C 506.5,822.5 506.5,732.5 506.5,642.5C 486.506,641.834 466.506,641.167 446.5,640.5C 430.156,640.923 413.823,641.589 397.5,642.5C 314.515,640.61 231.515,639.944 148.5,640.5 Z"/></g>
<g><path style="opacity:0.751" fill="#8b8b8b" d="M 686.5,639.5 C 637.167,639.5 587.833,639.5 538.5,639.5C 538.5,641.167 538.5,642.833 538.5,644.5C 538.5,683.833 538.5,723.167 538.5,762.5C 587.167,762.5 635.833,762.5 684.5,762.5C 685.167,762.5 685.833,762.5 686.5,762.5C 637.003,763.499 587.336,763.832 537.5,763.5C 537.5,721.833 537.5,680.167 537.5,638.5C 587.336,638.168 637.003,638.501 686.5,639.5 Z"/></g>
<g><path style="opacity:0.196" fill="#fafafa" d="M 538.5,604.5 C 540.5,605.167 541.833,606.5 542.5,608.5C 541.167,608.5 539.833,608.5 538.5,608.5C 538.5,607.167 538.5,605.833 538.5,604.5 Z"/></g>
<g><path style="opacity:0.112" fill="#fcfcfc" d="M 716.5,563.5 C 761.167,563.5 805.833,563.5 850.5,563.5C 850.5,578.5 850.5,593.5 850.5,608.5C 805.833,608.5 761.167,608.5 716.5,608.5C 716.5,593.5 716.5,578.5 716.5,563.5 Z M 720.5,565.5 C 718.432,576.749 718.265,588.082 720,599.5C 721.833,601.333 723.667,603.167 725.5,605C 766.452,606.477 807.452,606.977 848.5,606.5C 848.5,592.833 848.5,579.167 848.5,565.5C 805.833,565.5 763.167,565.5 720.5,565.5 Z"/></g>
<g><path style="opacity:0.251" fill="#fefefe" d="M 148.5,564.5 C 267.999,563.5 387.666,563.167 507.5,563.5C 507.5,578.5 507.5,593.5 507.5,608.5C 493.833,608.5 480.167,608.5 466.5,608.5C 479.458,606.519 492.791,605.852 506.5,606.5C 506.5,592.5 506.5,578.5 506.5,564.5C 387.167,564.5 267.833,564.5 148.5,564.5 Z"/></g>
<g><path style="opacity:0.216" fill="#8f8f8f" d="M 850.5,379.5 C 851.499,430.664 851.832,481.997 851.5,533.5C 828.661,533.831 805.994,533.497 783.5,532.5C 805.833,532.5 828.167,532.5 850.5,532.5C 850.5,481.5 850.5,430.5 850.5,379.5 Z"/></g>
<g><path style="opacity:0.271" fill="#f6f6f6" d="M 686.5,485.5 C 686.5,526.5 686.5,567.5 686.5,608.5C 685.833,608.5 685.167,608.5 684.5,608.5C 684.5,567.833 684.5,527.167 684.5,486.5C 637.829,486.167 591.162,486.5 544.5,487.5C 542.753,489.59 540.753,491.257 538.5,492.5C 538.5,490.167 538.5,487.833 538.5,485.5C 587.833,485.5 637.167,485.5 686.5,485.5 Z"/></g>
<g><path style="opacity:0.753" fill="#8b8b8b" d="M 686.5,485.5 C 637.167,485.5 587.833,485.5 538.5,485.5C 538.5,487.833 538.5,490.167 538.5,492.5C 538.5,529.833 538.5,567.167 538.5,604.5C 538.5,605.833 538.5,607.167 538.5,608.5C 539.833,608.5 541.167,608.5 542.5,608.5C 589.833,608.5 637.167,608.5 684.5,608.5C 685.167,608.5 685.833,608.5 686.5,608.5C 637.003,609.499 587.336,609.832 537.5,609.5C 537.5,567.833 537.5,526.167 537.5,484.5C 587.336,484.168 637.003,484.501 686.5,485.5 Z"/></g>
<g><path style="opacity:0.251" fill="#ededed" d="M 218.5,350.5 C 214.009,352.516 209.342,354.349 204.5,356C 201.567,358.264 199.4,361.098 198,364.5C 197.5,420.499 197.333,476.499 197.5,532.5C 197.167,532.5 196.833,532.5 196.5,532.5C 196.167,475.163 196.5,417.829 197.5,360.5C 198.248,358.668 199.248,357.001 200.5,355.5C 206.25,352.896 212.25,351.229 218.5,350.5 Z"/></g>
<g><path style="opacity:0.13" fill="#f2f2f2" d="M 238.5,344.5 C 232.107,347.072 225.441,349.072 218.5,350.5C 222.055,348.299 226.055,346.632 230.5,345.5C 233.086,344.52 235.753,344.187 238.5,344.5 Z"/></g>
<g><path style="opacity:0.032" fill="#f4f4f4" d="M 850.5,379.5 C 850.5,430.5 850.5,481.5 850.5,532.5C 828.167,532.5 805.833,532.5 783.5,532.5C 783.167,469.163 783.5,405.83 784.5,342.5C 806.527,354.845 828.527,367.179 850.5,379.5 Z M 785.5,344.5 C 785.5,406.833 785.5,469.167 785.5,531.5C 806.5,531.5 827.5,531.5 848.5,531.5C 848.667,481.166 848.5,430.832 848,380.5C 827.279,368.273 806.445,356.273 785.5,344.5 Z"/></g>
</svg>
