<?xml version="1.0" encoding="UTF-8"?>
<!DOCTYPE svg PUBLIC "-//W3C//DTD SVG 1.1//EN" "http://www.w3.org/Graphics/SVG/1.1/DTD/svg11.dtd">
<svg xmlns="http://www.w3.org/2000/svg" version="1.1" width="1000px" height="1080px" style="shape-rendering:geometricPrecision; text-rendering:geometricPrecision; image-rendering:optimizeQuality; fill-rule:evenodd; clip-rule:evenodd" xmlns:xlink="http://www.w3.org/1999/xlink">
<g><path style="opacity:0.985" fill="#141615" d="M 463.5,140.5 C 463.5,147.5 463.5,154.5 463.5,161.5C 425.833,161.5 388.167,161.5 350.5,161.5C 350.5,154.5 350.5,147.5 350.5,140.5C 369.333,141.037 387.999,140.371 406.5,138.5C 425.455,140.28 444.455,140.947 463.5,140.5 Z"/></g>
<g><path style="opacity:0.25" fill="#a3a5a4" d="M 463.5,140.5 C 464.492,147.648 464.825,154.981 464.5,162.5C 426.33,162.832 388.33,162.499 350.5,161.5C 388.167,161.5 425.833,161.5 463.5,161.5C 463.5,154.5 463.5,147.5 463.5,140.5 Z"/></g>
<g><path style="opacity:0.251" fill="#7f7f7f" d="M 363.5,178.5 C 363.5,196.167 363.5,213.833 363.5,231.5C 392.167,231.5 420.833,231.5 449.5,231.5C 449.5,213.833 449.5,196.167 449.5,178.5C 450.497,196.326 450.83,214.326 450.5,232.5C 421.167,232.5 391.833,232.5 362.5,232.5C 362.17,214.326 362.503,196.326 363.5,178.5 Z"/></g>
<g><path style="opacity:0.995" fill="#131514" d="M 363.5,178.5 C 392.167,178.5 420.833,178.5 449.5,178.5C 449.5,196.167 449.5,213.833 449.5,231.5C 420.833,231.5 392.167,231.5 363.5,231.5C 363.5,213.833 363.5,196.167 363.5,178.5 Z"/></g>
<g><path style="opacity:0.02" fill="#e2e2e2" d="M 310.5,248.5 C 310.167,249.5 309.5,250.167 308.5,250.5C 308.5,249.167 309.167,248.5 310.5,248.5 Z"/></g>
<g><path style="opacity:1" fill="#141615" d="M 310.5,248.5 C 432.167,248.5 553.833,248.5 675.5,248.5C 608.837,319.163 541.837,389.496 474.5,459.5C 350.207,460.496 225.874,460.83 101.5,460.5C 116.131,445.368 130.965,430.368 146,415.5C 146.464,414.906 146.631,414.239 146.5,413.5C 165.5,395.167 184.167,376.5 202.5,357.5C 220.53,340.47 237.864,322.803 254.5,304.5C 255.5,304.167 256.167,303.5 256.5,302.5C 258.773,302.043 260.106,300.71 260.5,298.5C 261.5,298.167 262.167,297.5 262.5,296.5C 263.5,296.167 264.167,295.5 264.5,294.5C 265.5,294.167 266.167,293.5 266.5,292.5C 267.5,292.167 268.167,291.5 268.5,290.5C 269.5,290.167 270.167,289.5 270.5,288.5C 271.5,288.167 272.167,287.5 272.5,286.5C 273.5,286.167 274.167,285.5 274.5,284.5C 275.5,284.167 276.167,283.5 276.5,282.5C 277.5,282.167 278.167,281.5 278.5,280.5C 279.5,280.167 280.167,279.5 280.5,278.5C 281.5,278.167 282.167,277.5 282.5,276.5C 283.5,276.167 284.167,275.5 284.5,274.5C 285.5,274.167 286.167,273.5 286.5,272.5C 287.5,272.167 288.167,271.5 288.5,270.5C 289.5,270.167 290.167,269.5 290.5,268.5C 291.5,268.167 292.167,267.5 292.5,266.5C 293.5,266.167 294.167,265.5 294.5,264.5C 295.5,264.167 296.167,263.5 296.5,262.5C 297.5,262.167 298.167,261.5 298.5,260.5C 299.5,260.167 300.167,259.5 300.5,258.5C 301.5,258.167 302.167,257.5 302.5,256.5C 303.5,256.167 304.167,255.5 304.5,254.5C 305.5,254.167 306.167,253.5 306.5,252.5C 307.5,252.167 308.167,251.5 308.5,250.5C 309.5,250.167 310.167,249.5 310.5,248.5 Z"/></g>
<g><path style="opacity:0.004" fill="#dfdfdf" d="M 698.5,250.5 C 699.833,250.5 700.5,251.167 700.5,252.5C 699.5,252.167 698.833,251.5 698.5,250.5 Z"/></g>
<g><path style="opacity:0.02" fill="#e0e0e0" d="M 308.5,250.5 C 308.167,251.5 307.5,252.167 306.5,252.5C 306.5,251.167 307.167,250.5 308.5,250.5 Z"/></g>
<g><path style="opacity:0.996" fill="#141615" d="M 698.5,250.5 C 698.833,251.5 699.5,252.167 700.5,252.5C 700.833,253.5 701.5,254.167 702.5,254.5C 702.833,255.5 703.5,256.167 704.5,256.5C 768.833,324.5 833.167,392.5 897.5,460.5C 763.332,460.833 629.332,460.5 495.5,459.5C 495.557,458.391 495.89,457.391 496.5,456.5C 497.5,456.167 498.167,455.5 498.5,454.5C 499.5,454.167 500.167,453.5 500.5,452.5C 501.5,452.167 502.167,451.5 502.5,450.5C 513.505,439.495 524.172,428.161 534.5,416.5C 535.5,416.167 536.167,415.5 536.5,414.5C 537.5,414.167 538.167,413.5 538.5,412.5C 539.5,412.167 540.167,411.5 540.5,410.5C 541.5,410.167 542.167,409.5 542.5,408.5C 543.5,408.167 544.167,407.5 544.5,406.5C 545.5,406.167 546.167,405.5 546.5,404.5C 547.5,404.167 548.167,403.5 548.5,402.5C 549.5,402.167 550.167,401.5 550.5,400.5C 551.5,400.167 552.167,399.5 552.5,398.5C 554.802,395.197 557.468,392.197 560.5,389.5C 565.23,385.773 569.23,381.44 572.5,376.5C 573.5,376.167 574.167,375.5 574.5,374.5C 575.5,374.167 576.167,373.5 576.5,372.5C 577.5,372.167 578.167,371.5 578.5,370.5C 579.5,370.167 580.167,369.5 580.5,368.5C 581.5,368.167 582.167,367.5 582.5,366.5C 583.5,366.167 584.167,365.5 584.5,364.5C 585.5,364.167 586.167,363.5 586.5,362.5C 587.5,362.167 588.167,361.5 588.5,360.5C 589.5,360.167 590.167,359.5 590.5,358.5C 593.47,354.528 596.804,350.862 600.5,347.5C 605.23,343.773 609.23,339.44 612.5,334.5C 613.5,334.167 614.167,333.5 614.5,332.5C 615.5,332.167 616.167,331.5 616.5,330.5C 617.5,330.167 618.167,329.5 618.5,328.5C 619.5,328.167 620.167,327.5 620.5,326.5C 621.5,326.167 622.167,325.5 622.5,324.5C 623.5,324.167 624.167,323.5 624.5,322.5C 625.5,322.167 626.167,321.5 626.5,320.5C 627.5,320.167 628.167,319.5 628.5,318.5C 629.5,318.167 630.167,317.5 630.5,316.5C 631.5,316.167 632.167,315.5 632.5,314.5C 640.196,306.806 647.529,298.806 654.5,290.5C 655.5,290.167 656.167,289.5 656.5,288.5C 657.5,288.167 658.167,287.5 658.5,286.5C 659.5,286.167 660.167,285.5 660.5,284.5C 661.5,284.167 662.167,283.5 662.5,282.5C 663.5,282.167 664.167,281.5 664.5,280.5C 665.5,280.167 666.167,279.5 666.5,278.5C 667.5,278.167 668.167,277.5 668.5,276.5C 669.5,276.167 670.167,275.5 670.5,274.5C 677.426,266.571 684.759,258.905 692.5,251.5C 694.396,250.534 696.396,250.201 698.5,250.5 Z M 744.5,366.5 C 744.839,371.197 745.506,375.863 746.5,380.5C 745.156,386.525 743.822,392.525 742.5,398.5C 740.952,398.821 740.285,399.821 740.5,401.5C 740.5,401.833 740.5,402.167 740.5,402.5C 738.952,402.821 738.285,403.821 738.5,405.5C 737.449,406.222 736.782,407.222 736.5,408.5C 735.167,408.5 734.5,409.167 734.5,410.5C 731.167,412.5 728.5,415.167 726.5,418.5C 725.167,418.5 724.5,419.167 724.5,420.5C 724.167,420.5 723.833,420.5 723.5,420.5C 721.821,420.285 720.821,420.952 720.5,422.5C 716.781,424.688 712.781,426.355 708.5,427.5C 700.528,428.498 692.528,428.831 684.5,428.5C 679.616,425.048 674.282,422.048 668.5,419.5C 652.333,406.165 645.999,389.165 649.5,368.5C 650.833,365.833 652.167,363.167 653.5,360.5C 652.467,371.73 652.467,383.064 653.5,394.5C 656.672,398.841 659.339,403.508 661.5,408.5C 667.143,416.826 674.809,419.826 684.5,417.5C 702.098,402.695 707.098,384.361 699.5,362.5C 695.35,354.342 689.683,347.342 682.5,341.5C 679.232,340.513 675.898,340.18 672.5,340.5C 672.721,339.265 673.388,338.265 674.5,337.5C 685.936,330.479 697.936,329.146 710.5,333.5C 714.5,335.5 718.5,337.5 722.5,339.5C 727.5,344.5 732.5,349.5 737.5,354.5C 739.382,358.955 741.715,362.955 744.5,366.5 Z M 672.5,340.5 C 671.167,342.5 669.833,344.5 668.5,346.5C 667.167,346.5 666.5,347.167 666.5,348.5C 665.167,348.5 664.5,349.167 664.5,350.5C 663.167,350.5 662.5,351.167 662.5,352.5C 660.952,352.821 660.285,353.821 660.5,355.5C 660.5,355.833 660.5,356.167 660.5,356.5C 659.2,357.108 657.867,357.775 656.5,358.5C 655.833,358.167 655.167,357.833 654.5,357.5C 658.421,351.574 663.088,346.241 668.5,341.5C 669.689,340.571 671.022,340.238 672.5,340.5 Z"/></g>
<g><path style="opacity:0.004" fill="#e7e7e7" d="M 700.5,252.5 C 701.833,252.5 702.5,253.167 702.5,254.5C 701.5,254.167 700.833,253.5 700.5,252.5 Z"/></g>
<g><path style="opacity:0.02" fill="#e4e4e4" d="M 306.5,252.5 C 306.167,253.5 305.5,254.167 304.5,254.5C 304.5,253.167 305.167,252.5 306.5,252.5 Z"/></g>
<g><path style="opacity:0.02" fill="#e6e6e6" d="M 304.5,254.5 C 304.167,255.5 303.5,256.167 302.5,256.5C 302.5,255.167 303.167,254.5 304.5,254.5 Z"/></g>
<g><path style="opacity:0.004" fill="#f0f0f0" d="M 702.5,254.5 C 703.833,254.5 704.5,255.167 704.5,256.5C 703.5,256.167 702.833,255.5 702.5,254.5 Z"/></g>
<g><path style="opacity:0.02" fill="#e9e9e9" d="M 302.5,256.5 C 302.167,257.5 301.5,258.167 300.5,258.5C 300.5,257.167 301.167,256.5 302.5,256.5 Z"/></g>
<g><path style="opacity:0.02" fill="#e6e6e6" d="M 300.5,258.5 C 300.167,259.5 299.5,260.167 298.5,260.5C 298.5,259.167 299.167,258.5 300.5,258.5 Z"/></g>
<g><path style="opacity:0.02" fill="#eeeeee" d="M 298.5,260.5 C 298.167,261.5 297.5,262.167 296.5,262.5C 296.5,261.167 297.167,260.5 298.5,260.5 Z"/></g>
<g><path style="opacity:0.02" fill="#ededed" d="M 296.5,262.5 C 296.167,263.5 295.5,264.167 294.5,264.5C 294.5,263.167 295.167,262.5 296.5,262.5 Z"/></g>
<g><path style="opacity:0.02" fill="#ededed" d="M 294.5,264.5 C 294.167,265.5 293.5,266.167 292.5,266.5C 292.5,265.167 293.167,264.5 294.5,264.5 Z"/></g>
<g><path style="opacity:0.02" fill="#eeeeee" d="M 292.5,266.5 C 292.167,267.5 291.5,268.167 290.5,268.5C 290.5,267.167 291.167,266.5 292.5,266.5 Z"/></g>
<g><path style="opacity:0.02" fill="#f4f4f4" d="M 290.5,268.5 C 290.167,269.5 289.5,270.167 288.5,270.5C 288.5,269.167 289.167,268.5 290.5,268.5 Z"/></g>
<g><path style="opacity:0.02" fill="#f4f4f4" d="M 288.5,270.5 C 288.167,271.5 287.5,272.167 286.5,272.5C 286.5,271.167 287.167,270.5 288.5,270.5 Z"/></g>
<g><path style="opacity:0.02" fill="#f5f5f5" d="M 286.5,272.5 C 286.167,273.5 285.5,274.167 284.5,274.5C 284.5,273.167 285.167,272.5 286.5,272.5 Z"/></g>
<g><path style="opacity:0.02" fill="#f5f5f5" d="M 284.5,274.5 C 284.167,275.5 283.5,276.167 282.5,276.5C 282.5,275.167 283.167,274.5 284.5,274.5 Z"/></g>
<g><path style="opacity:0.02" fill="#b7b9b8" d="M 670.5,274.5 C 670.167,275.5 669.5,276.167 668.5,276.5C 668.5,275.167 669.167,274.5 670.5,274.5 Z"/></g>
<g><path style="opacity:0.014" fill="#f6f6f6" d="M 282.5,276.5 C 282.167,277.5 281.5,278.167 280.5,278.5C 280.5,277.167 281.167,276.5 282.5,276.5 Z"/></g>
<g><path style="opacity:0.02" fill="#c6c8c7" d="M 668.5,276.5 C 668.167,277.5 667.5,278.167 666.5,278.5C 666.5,277.167 667.167,276.5 668.5,276.5 Z"/></g>
<g><path style="opacity:0.02" fill="#d1d3d2" d="M 666.5,278.5 C 666.167,279.5 665.5,280.167 664.5,280.5C 664.5,279.167 665.167,278.5 666.5,278.5 Z"/></g>
<g><path style="opacity:0.02" fill="#f5f5f5" d="M 280.5,278.5 C 280.167,279.5 279.5,280.167 278.5,280.5C 278.5,279.167 279.167,278.5 280.5,278.5 Z"/></g>
<g><path style="opacity:0.02" fill="#fbfbfb" d="M 278.5,280.5 C 278.167,281.5 277.5,282.167 276.5,282.5C 276.5,281.167 277.167,280.5 278.5,280.5 Z"/></g>
<g><path style="opacity:0.02" fill="#dbdbdb" d="M 664.5,280.5 C 664.167,281.5 663.5,282.167 662.5,282.5C 662.5,281.167 663.167,280.5 664.5,280.5 Z"/></g>
<g><path style="opacity:0.02" fill="#f8f8f8" d="M 276.5,282.5 C 276.167,283.5 275.5,284.167 274.5,284.5C 274.5,283.167 275.167,282.5 276.5,282.5 Z"/></g>
<g><path style="opacity:0.02" fill="#e8e8e8" d="M 662.5,282.5 C 662.167,283.5 661.5,284.167 660.5,284.5C 660.5,283.167 661.167,282.5 662.5,282.5 Z"/></g>
<g><path style="opacity:0.012" fill="#f9f9f9" d="M 274.5,284.5 C 274.167,285.5 273.5,286.167 272.5,286.5C 272.5,285.167 273.167,284.5 274.5,284.5 Z"/></g>
<g><path style="opacity:0.02" fill="#f2f2f2" d="M 660.5,284.5 C 660.167,285.5 659.5,286.167 658.5,286.5C 658.5,285.167 659.167,284.5 660.5,284.5 Z"/></g>
<g><path style="opacity:0.02" fill="#f9f9f9" d="M 272.5,286.5 C 272.167,287.5 271.5,288.167 270.5,288.5C 270.5,287.167 271.167,286.5 272.5,286.5 Z"/></g>
<g><path style="opacity:0.02" fill="#f4f5f5" d="M 658.5,286.5 C 658.167,287.5 657.5,288.167 656.5,288.5C 656.5,287.167 657.167,286.5 658.5,286.5 Z"/></g>
<g><path style="opacity:0.014" fill="#fcfcfc" d="M 270.5,288.5 C 270.167,289.5 269.5,290.167 268.5,290.5C 268.5,289.167 269.167,288.5 270.5,288.5 Z"/></g>
<g><path style="opacity:0.012" fill="#fcfcfc" d="M 656.5,288.5 C 656.167,289.5 655.5,290.167 654.5,290.5C 654.5,289.167 655.167,288.5 656.5,288.5 Z"/></g>
<g><path style="opacity:0.012" fill="#fafbfa" d="M 268.5,290.5 C 268.167,291.5 267.5,292.167 266.5,292.5C 266.5,291.167 267.167,290.5 268.5,290.5 Z"/></g>
<g><path style="opacity:0.02" fill="#fafcfb" d="M 266.5,292.5 C 266.167,293.5 265.5,294.167 264.5,294.5C 264.5,293.167 265.167,292.5 266.5,292.5 Z"/></g>
<g><path style="opacity:0.087" fill="#e2e2e2" d="M 675.5,248.5 C 676.793,250.364 676.793,252.364 675.5,254.5C 649.203,282.131 622.537,309.464 595.5,336.5C 594.684,338.287 593.684,339.954 592.5,341.5C 568.402,365.501 544.735,389.834 521.5,414.5C 520.833,415.833 520.167,417.167 519.5,418.5C 505.167,432.833 490.833,447.167 476.5,461.5C 351.001,462.832 225.667,462.832 100.5,461.5C 224.834,461.667 349.167,461.5 473.5,461C 474.056,460.617 474.389,460.117 474.5,459.5C 541.837,389.496 608.837,319.163 675.5,248.5 Z"/></g>
<g><path style="opacity:0.014" fill="#fdfefd" d="M 264.5,294.5 C 264.167,295.5 263.5,296.167 262.5,296.5C 262.5,295.167 263.167,294.5 264.5,294.5 Z"/></g>
<g><path style="opacity:0.014" fill="#fefffe" d="M 262.5,296.5 C 262.167,297.5 261.5,298.167 260.5,298.5C 260.5,297.167 261.167,296.5 262.5,296.5 Z"/></g>
<g><path style="opacity:0.014" fill="#dadada" d="M 260.5,298.5 C 260.106,300.71 258.773,302.043 256.5,302.5C 257.167,300.5 258.5,299.167 260.5,298.5 Z"/></g>
<g><path style="opacity:0.014" fill="#fefefe" d="M 256.5,302.5 C 256.167,303.5 255.5,304.167 254.5,304.5C 254.5,303.167 255.167,302.5 256.5,302.5 Z"/></g>
<g><path style="opacity:0.051" fill="#ebebeb" d="M 654.5,290.5 C 647.529,298.806 640.196,306.806 632.5,314.5C 632.351,313.448 632.517,312.448 633,311.5C 639.725,303.941 646.891,296.941 654.5,290.5 Z"/></g>
<g><path style="opacity:0.024" fill="#aaabaa" d="M 632.5,314.5 C 632.167,315.5 631.5,316.167 630.5,316.5C 630.5,315.167 631.167,314.5 632.5,314.5 Z"/></g>
<g><path style="opacity:0.02" fill="#bababa" d="M 630.5,316.5 C 630.167,317.5 629.5,318.167 628.5,318.5C 628.5,317.167 629.167,316.5 630.5,316.5 Z"/></g>
<g><path style="opacity:0.02" fill="#c9caca" d="M 628.5,318.5 C 628.167,319.5 627.5,320.167 626.5,320.5C 626.5,319.167 627.167,318.5 628.5,318.5 Z"/></g>
<g><path style="opacity:0.02" fill="#d4d6d5" d="M 626.5,320.5 C 626.167,321.5 625.5,322.167 624.5,322.5C 624.5,321.167 625.167,320.5 626.5,320.5 Z"/></g>
<g><path style="opacity:0.02" fill="#d9dad9" d="M 624.5,322.5 C 624.167,323.5 623.5,324.167 622.5,324.5C 622.5,323.167 623.167,322.5 624.5,322.5 Z"/></g>
<g><path style="opacity:0.02" fill="#e6e6e6" d="M 622.5,324.5 C 622.167,325.5 621.5,326.167 620.5,326.5C 620.5,325.167 621.167,324.5 622.5,324.5 Z"/></g>
<g><path style="opacity:0.02" fill="#f2f3f2" d="M 620.5,326.5 C 620.167,327.5 619.5,328.167 618.5,328.5C 618.5,327.167 619.167,326.5 620.5,326.5 Z"/></g>
<g><path style="opacity:0.012" fill="#fafcfb" d="M 618.5,328.5 C 618.167,329.5 617.5,330.167 616.5,330.5C 616.5,329.167 617.167,328.5 618.5,328.5 Z"/></g>
<g><path style="opacity:0.014" fill="#fcfdfc" d="M 616.5,330.5 C 616.167,331.5 615.5,332.167 614.5,332.5C 614.5,331.167 615.167,330.5 616.5,330.5 Z"/></g>
<g><path style="opacity:0.014" fill="#fdfdfd" d="M 614.5,332.5 C 614.167,333.5 613.5,334.167 612.5,334.5C 612.5,333.167 613.167,332.5 614.5,332.5 Z"/></g>
<g><path style="opacity:0.014" fill="#e8e9e8" d="M 612.5,334.5 C 609.23,339.44 605.23,343.773 600.5,347.5C 603.436,342.229 607.436,337.896 612.5,334.5 Z"/></g>
<g><path style="opacity:0.308" fill="#eeeeee" d="M 744.5,366.5 C 741.715,362.955 739.382,358.955 737.5,354.5C 732.5,349.5 727.5,344.5 722.5,339.5C 718.5,337.5 714.5,335.5 710.5,333.5C 697.936,329.146 685.936,330.479 674.5,337.5C 673.388,338.265 672.721,339.265 672.5,340.5C 675.898,340.18 679.232,340.513 682.5,341.5C 689.683,347.342 695.35,354.342 699.5,362.5C 707.098,384.361 702.098,402.695 684.5,417.5C 674.809,419.826 667.143,416.826 661.5,408.5C 659.339,403.508 656.672,398.841 653.5,394.5C 652.467,383.064 652.467,371.73 653.5,360.5C 652.167,363.167 650.833,365.833 649.5,368.5C 645.999,389.165 652.333,406.165 668.5,419.5C 674.282,422.048 679.616,425.048 684.5,428.5C 656.451,419.43 643.617,400.096 646,370.5C 657.008,335.578 680.174,323.078 715.5,333C 730.364,339.695 740.031,350.862 744.5,366.5 Z M 672.5,340.5 C 671.167,342.5 669.833,344.5 668.5,346.5C 667.167,346.5 666.5,347.167 666.5,348.5C 665.167,348.5 664.5,349.167 664.5,350.5C 663.167,350.5 662.5,351.167 662.5,352.5C 660.952,352.821 660.285,353.821 660.5,355.5C 660.5,355.833 660.5,356.167 660.5,356.5C 659.2,357.108 657.867,357.775 656.5,358.5C 655.833,358.167 655.167,357.833 654.5,357.5C 658.421,351.574 663.088,346.241 668.5,341.5C 669.689,340.571 671.022,340.238 672.5,340.5 Z"/></g>
<g><path style="opacity:0.047" fill="#fafafa" d="M 664.5,350.5 C 664.167,351.5 663.5,352.167 662.5,352.5C 662.5,351.167 663.167,350.5 664.5,350.5 Z"/></g>
<g><path style="opacity:0.071" fill="#eaeaea" d="M 666.5,348.5 C 666.167,349.5 665.5,350.167 664.5,350.5C 664.5,349.167 665.167,348.5 666.5,348.5 Z"/></g>
<g><path style="opacity:0.071" fill="#f2f2f2" d="M 668.5,346.5 C 668.167,347.5 667.5,348.167 666.5,348.5C 666.5,347.167 667.167,346.5 668.5,346.5 Z"/></g>
<g><path style="opacity:0.995" fill="#151616" d="M 660.5,356.5 C 660.5,356.167 660.5,355.833 660.5,355.5C 661.906,355.027 662.573,354.027 662.5,352.5C 663.5,352.167 664.167,351.5 664.5,350.5C 665.5,350.167 666.167,349.5 666.5,348.5C 667.5,348.167 668.167,347.5 668.5,346.5C 670.595,345.588 672.595,344.421 674.5,343C 676.167,342.333 677.833,342.333 679.5,343C 695.689,353.89 702.189,369.056 699,388.5C 696.128,401.369 688.794,410.702 677,416.5C 661.857,408.58 654.023,395.914 653.5,378.5C 653.993,370.511 656.326,363.178 660.5,356.5 Z"/></g>
<g><path style="opacity:0.055" fill="#e5e7e6" d="M 662.5,352.5 C 662.573,354.027 661.906,355.027 660.5,355.5C 660.285,353.821 660.952,352.821 662.5,352.5 Z"/></g>
<g><path style="opacity:0.014" fill="#e3e3e3" d="M 254.5,304.5 C 237.864,322.803 220.53,340.47 202.5,357.5C 202.5,357.167 202.5,356.833 202.5,356.5C 219.167,338.5 236.5,321.167 254.5,304.5 Z"/></g>
<g><path style="opacity:0.027" fill="#bcbcbc" d="M 590.5,358.5 C 590.167,359.5 589.5,360.167 588.5,360.5C 588.5,359.167 589.167,358.5 590.5,358.5 Z"/></g>
<g><path style="opacity:0.02" fill="#c8c8c8" d="M 588.5,360.5 C 588.167,361.5 587.5,362.167 586.5,362.5C 586.5,361.167 587.167,360.5 588.5,360.5 Z"/></g>
<g><path style="opacity:0.02" fill="#d5d5d5" d="M 586.5,362.5 C 586.167,363.5 585.5,364.167 584.5,364.5C 584.5,363.167 585.167,362.5 586.5,362.5 Z"/></g>
<g><path style="opacity:0.02" fill="#dedede" d="M 584.5,364.5 C 584.167,365.5 583.5,366.167 582.5,366.5C 582.5,365.167 583.167,364.5 584.5,364.5 Z"/></g>
<g><path style="opacity:0.02" fill="#eaeaea" d="M 582.5,366.5 C 582.167,367.5 581.5,368.167 580.5,368.5C 580.5,367.167 581.167,366.5 582.5,366.5 Z"/></g>
<g><path style="opacity:0.02" fill="#f5f5f5" d="M 580.5,368.5 C 580.167,369.5 579.5,370.167 578.5,370.5C 578.5,369.167 579.167,368.5 580.5,368.5 Z"/></g>
<g><path style="opacity:0.02" fill="#f9f9f9" d="M 578.5,370.5 C 578.167,371.5 577.5,372.167 576.5,372.5C 576.5,371.167 577.167,370.5 578.5,370.5 Z"/></g>
<g><path style="opacity:0.014" fill="#fbfbfb" d="M 576.5,372.5 C 576.167,373.5 575.5,374.167 574.5,374.5C 574.5,373.167 575.167,372.5 576.5,372.5 Z"/></g>
<g><path style="opacity:0.014" fill="#fefefe" d="M 574.5,374.5 C 574.167,375.5 573.5,376.167 572.5,376.5C 572.5,375.167 573.167,374.5 574.5,374.5 Z"/></g>
<g><path style="opacity:0.012" fill="#e7e7e7" d="M 572.5,376.5 C 569.23,381.44 565.23,385.773 560.5,389.5C 563.436,384.229 567.436,379.896 572.5,376.5 Z"/></g>
<g><path style="opacity:0.034" fill="#f9fafa" d="M 202.5,356.5 C 202.5,356.833 202.5,357.167 202.5,357.5C 184.167,376.5 165.5,395.167 146.5,413.5C 146.5,413.167 146.5,412.833 146.5,412.5C 164.5,393.167 183.167,374.5 202.5,356.5 Z"/></g>
<g><path style="opacity:0.02" fill="#aaaaaa" d="M 552.5,398.5 C 552.167,399.5 551.5,400.167 550.5,400.5C 550.5,399.167 551.167,398.5 552.5,398.5 Z"/></g>
<g><path style="opacity:0.282" fill="#7f8180" d="M 742.5,398.5 C 742.573,400.027 741.906,401.027 740.5,401.5C 740.285,399.821 740.952,398.821 742.5,398.5 Z"/></g>
<g><path style="opacity:0.02" fill="#bababa" d="M 550.5,400.5 C 550.167,401.5 549.5,402.167 548.5,402.5C 548.5,401.167 549.167,400.5 550.5,400.5 Z"/></g>
<g><path style="opacity:0.02" fill="#c3c3c3" d="M 548.5,402.5 C 548.167,403.5 547.5,404.167 546.5,404.5C 546.5,403.167 547.167,402.5 548.5,402.5 Z"/></g>
<g><path style="opacity:0.094" fill="#c7c8c7" d="M 740.5,402.5 C 740.068,403.71 739.401,404.71 738.5,405.5C 738.285,403.821 738.952,402.821 740.5,402.5 Z"/></g>
<g><path style="opacity:0.02" fill="#d2d2d2" d="M 546.5,404.5 C 546.167,405.5 545.5,406.167 544.5,406.5C 544.5,405.167 545.167,404.5 546.5,404.5 Z"/></g>
<g><path style="opacity:0.02" fill="#e0e0e0" d="M 544.5,406.5 C 544.167,407.5 543.5,408.167 542.5,408.5C 542.5,407.167 543.167,406.5 544.5,406.5 Z"/></g>
<g><path style="opacity:0.02" fill="#e6e6e6" d="M 542.5,408.5 C 542.167,409.5 541.5,410.167 540.5,410.5C 540.5,409.167 541.167,408.5 542.5,408.5 Z"/></g>
<g><path style="opacity:0.071" fill="#e5e6e6" d="M 736.5,408.5 C 736.167,409.5 735.5,410.167 734.5,410.5C 734.5,409.167 735.167,408.5 736.5,408.5 Z"/></g>
<g><path style="opacity:0.02" fill="#f2f2f2" d="M 540.5,410.5 C 540.167,411.5 539.5,412.167 538.5,412.5C 538.5,411.167 539.167,410.5 540.5,410.5 Z"/></g>
<g><path style="opacity:0.012" fill="#fafafa" d="M 538.5,412.5 C 538.167,413.5 537.5,414.167 536.5,414.5C 536.5,413.167 537.167,412.5 538.5,412.5 Z"/></g>
<g><path style="opacity:0.012" fill="#fafafa" d="M 536.5,414.5 C 536.167,415.5 535.5,416.167 534.5,416.5C 534.5,415.167 535.167,414.5 536.5,414.5 Z"/></g>
<g><path style="opacity:0.055" fill="#e0e0e0" d="M 734.5,410.5 C 732.855,414.145 730.188,416.812 726.5,418.5C 728.5,415.167 731.167,412.5 734.5,410.5 Z"/></g>
<g><path style="opacity:0.094" fill="#dcdcdc" d="M 726.5,418.5 C 726.167,419.5 725.5,420.167 724.5,420.5C 724.5,419.167 725.167,418.5 726.5,418.5 Z"/></g>
<g><path style="opacity:0.047" fill="#eff1f0" d="M 723.5,420.5 C 723.027,421.906 722.027,422.573 720.5,422.5C 720.821,420.952 721.821,420.285 723.5,420.5 Z"/></g>
<g><path style="opacity:0.017" fill="#efefef" d="M 704.5,256.5 C 705.552,256.351 706.552,256.517 707.5,257C 713.667,263.167 719.833,269.333 726,275.5C 754.892,307.729 784.892,339.062 816,369.5C 825.927,381.43 836.594,392.764 848,403.5C 864.598,422.1 881.932,440.1 900,457.5C 900.725,459.157 900.225,460.157 898.5,460.5C 898.167,460.5 897.833,460.5 897.5,460.5C 833.167,392.5 768.833,324.5 704.5,256.5 Z"/></g>
<g><path style="opacity:0.041" fill="#e8e9e9" d="M 534.5,416.5 C 524.172,428.161 513.505,439.495 502.5,450.5C 502.238,449.022 502.571,447.689 503.5,446.5C 513.571,436.094 523.904,426.094 534.5,416.5 Z"/></g>
<g><path style="opacity:0.038" fill="#e5e5e5" d="M 146.5,412.5 C 146.5,412.833 146.5,413.167 146.5,413.5C 146.631,414.239 146.464,414.906 146,415.5C 130.965,430.368 116.131,445.368 101.5,460.5C 101.167,460.5 100.833,460.5 100.5,460.5C 100.238,459.022 100.571,457.689 101.5,456.5C 116.237,441.428 131.237,426.762 146.5,412.5 Z"/></g>
<g><path style="opacity:0.027" fill="#e9e9e9" d="M 502.5,450.5 C 502.167,451.5 501.5,452.167 500.5,452.5C 500.5,451.167 501.167,450.5 502.5,450.5 Z"/></g>
<g><path style="opacity:0.02" fill="#f1f1f1" d="M 500.5,452.5 C 500.167,453.5 499.5,454.167 498.5,454.5C 498.5,453.167 499.167,452.5 500.5,452.5 Z"/></g>
<g><path style="opacity:0.02" fill="#f5f6f5" d="M 498.5,454.5 C 498.167,455.5 497.5,456.167 496.5,456.5C 496.5,455.167 497.167,454.5 498.5,454.5 Z"/></g>
<g><path style="opacity:0.016" fill="#b3b4b3" d="M 496.5,456.5 C 495.89,457.391 495.557,458.391 495.5,459.5C 494.833,459.5 494.5,459.833 494.5,460.5C 493.957,460.44 493.624,460.107 493.5,459.5C 493.879,457.787 494.879,456.787 496.5,456.5 Z"/></g>
<g><path style="opacity:0.748" fill="#040404" d="M 474.5,459.5 C 474.389,460.117 474.056,460.617 473.5,461C 349.167,461.5 224.834,461.667 100.5,461.5C 100.5,461.167 100.5,460.833 100.5,460.5C 100.833,460.5 101.167,460.5 101.5,460.5C 225.874,460.83 350.207,460.496 474.5,459.5 Z"/></g>
<g><path style="opacity:0.749" fill="#3a3a3a" d="M 495.5,459.5 C 629.332,460.5 763.332,460.833 897.5,460.5C 897.833,460.5 898.167,460.5 898.5,460.5C 831.503,461.833 764.17,462.5 696.5,462.5C 628.83,462.5 561.497,461.833 494.5,460.5C 494.5,459.833 494.833,459.5 495.5,459.5 Z"/></g>
<g><path style="opacity:0.249" fill="#eeefef" d="M 536.5,477.5 C 642.999,476.501 749.665,476.167 856.5,476.5C 856.5,604.5 856.5,732.5 856.5,860.5C 749.665,860.833 642.999,860.499 536.5,859.5C 642.833,859.5 749.167,859.5 855.5,859.5C 855.5,732.167 855.5,604.833 855.5,477.5C 749.833,477.5 644.167,477.5 538.5,477.5C 537.833,477.5 537.167,477.5 536.5,477.5 Z"/></g>
<g><path style="opacity:1" fill="#141615" d="M 536.5,477.5 C 537.167,477.5 537.833,477.5 538.5,477.5C 643.665,478.499 748.999,478.833 854.5,478.5C 854.5,605.167 854.5,731.833 854.5,858.5C 748.5,858.5 642.5,858.5 536.5,858.5C 536.5,731.5 536.5,604.5 536.5,477.5 Z M 783.5,712.5 C 795.167,712.5 806.833,712.5 818.5,712.5C 818.5,719.833 818.5,727.167 818.5,734.5C 736.5,734.5 654.5,734.5 572.5,734.5C 572.5,727.167 572.5,719.833 572.5,712.5C 584.167,712.5 595.833,712.5 607.5,712.5C 608.499,658.669 608.832,604.669 608.5,550.5C 666.5,550.5 724.5,550.5 782.5,550.5C 782.168,604.669 782.501,658.669 783.5,712.5 Z M 805.5,752.5 C 806.833,761.833 806.833,771.167 805.5,780.5C 733.167,780.5 660.833,780.5 588.5,780.5C 588.5,771.167 588.5,761.833 588.5,752.5C 660.833,752.5 733.167,752.5 805.5,752.5 Z"/></g>
<g><path style="opacity:0.748" fill="#212322" d="M 538.5,477.5 C 644.167,477.5 749.833,477.5 855.5,477.5C 855.5,604.833 855.5,732.167 855.5,859.5C 749.167,859.5 642.833,859.5 536.5,859.5C 536.5,859.167 536.5,858.833 536.5,858.5C 642.5,858.5 748.5,858.5 854.5,858.5C 854.5,731.833 854.5,605.167 854.5,478.5C 748.999,478.833 643.665,478.499 538.5,477.5 Z"/></g>
<g><path style="opacity:0.251" fill="#fefefe" d="M 607.5,549.5 C 666.167,549.5 724.833,549.5 783.5,549.5C 783.5,603.833 783.5,658.167 783.5,712.5C 782.501,658.669 782.168,604.669 782.5,550.5C 724.5,550.5 666.5,550.5 608.5,550.5C 608.832,604.669 608.499,658.669 607.5,712.5C 607.5,658.167 607.5,603.833 607.5,549.5 Z"/></g>
<g><path style="opacity:0.749" fill="#e8eae9" d="M 607.5,549.5 C 607.5,549.167 607.5,548.833 607.5,548.5C 666.5,548.5 725.5,548.5 784.5,548.5C 784.5,602.833 784.5,657.167 784.5,711.5C 796.345,711.172 808.012,711.505 819.5,712.5C 819.167,712.5 818.833,712.5 818.5,712.5C 806.833,712.5 795.167,712.5 783.5,712.5C 783.5,658.167 783.5,603.833 783.5,549.5C 724.833,549.5 666.167,549.5 607.5,549.5 Z"/></g>
<g><path style="opacity:0.724" fill="#b4b4b4" d="M 684.5,570.5 C 666.5,570.5 648.5,570.5 630.5,570.5C 639.141,569.168 648.141,568.502 657.5,568.5C 666.859,568.502 675.859,569.168 684.5,570.5 Z"/></g>
<g><path style="opacity:0.996" fill="#181919" d="M 630.5,570.5 C 648.5,570.5 666.5,570.5 684.5,570.5C 684.5,591.167 684.5,611.833 684.5,632.5C 666.5,632.5 648.5,632.5 630.5,632.5C 630.5,611.833 630.5,591.167 630.5,570.5 Z"/></g>
<g><path style="opacity:0.243" fill="#f2f3f3" d="M 706.5,568.5 C 725.167,568.5 743.833,568.5 762.5,568.5C 762.5,589.833 762.5,611.167 762.5,632.5C 743.833,632.5 725.167,632.5 706.5,632.5C 706.5,611.167 706.5,589.833 706.5,568.5 Z"/></g>
<g><path style="opacity:0.996" fill="#131514" d="M 707.5,570.5 C 725.167,570.5 742.833,570.5 760.5,570.5C 760.5,590.833 760.5,611.167 760.5,631.5C 742.833,631.5 725.167,631.5 707.5,631.5C 707.5,611.167 707.5,590.833 707.5,570.5 Z"/></g>
<g><path style="opacity:0.744" fill="#838584" d="M 707.5,570.5 C 725.326,569.503 743.326,569.17 761.5,569.5C 761.831,590.34 761.497,611.007 760.5,631.5C 760.5,611.167 760.5,590.833 760.5,570.5C 742.833,570.5 725.167,570.5 707.5,570.5 Z"/></g>
<g><path style="opacity:0.25" fill="#757575" d="M 630.5,655.5 C 673.997,654.501 717.663,654.168 761.5,654.5C 761.83,673.674 761.497,692.674 760.5,711.5C 760.5,692.833 760.5,674.167 760.5,655.5C 717.167,655.5 673.833,655.5 630.5,655.5 Z"/></g>
<g><path style="opacity:0.245" fill="#d7d8d8" d="M 761.5,654.5 C 762.497,673.659 762.83,692.993 762.5,712.5C 718.33,712.832 674.33,712.499 630.5,711.5C 673.833,711.5 717.167,711.5 760.5,711.5C 761.497,692.674 761.83,673.674 761.5,654.5 Z"/></g>
<g><path style="opacity:0.749" fill="#0e0f0f" d="M 630.5,655.5 C 673.833,655.5 717.167,655.5 760.5,655.5C 760.5,674.167 760.5,692.833 760.5,711.5C 717.167,711.5 673.833,711.5 630.5,711.5C 630.5,692.833 630.5,674.167 630.5,655.5 Z"/></g>
<g><path style="opacity:1" fill="#141615" d="M 632.5,656.5 C 674.833,656.5 717.167,656.5 759.5,656.5C 759.5,674.5 759.5,692.5 759.5,710.5C 717.167,710.5 674.833,710.5 632.5,710.5C 632.5,692.5 632.5,674.5 632.5,656.5 Z"/></g>
<g><path style="opacity:0.251" fill="#878887" d="M 607.5,548.5 C 607.5,548.833 607.5,549.167 607.5,549.5C 607.5,603.833 607.5,658.167 607.5,712.5C 595.833,712.5 584.167,712.5 572.5,712.5C 572.5,719.833 572.5,727.167 572.5,734.5C 572.5,734.833 572.5,735.167 572.5,735.5C 571.508,727.684 571.174,719.684 571.5,711.5C 583.167,711.5 594.833,711.5 606.5,711.5C 606.168,656.997 606.501,602.664 607.5,548.5 Z"/></g>
<g><path style="opacity:0.251" fill="#fdfdfd" d="M 818.5,712.5 C 818.833,712.5 819.167,712.5 819.5,712.5C 819.5,720.167 819.5,727.833 819.5,735.5C 737.167,735.5 654.833,735.5 572.5,735.5C 572.5,735.167 572.5,734.833 572.5,734.5C 654.5,734.5 736.5,734.5 818.5,734.5C 818.5,727.167 818.5,719.833 818.5,712.5 Z"/></g>
<g><path style="opacity:0.501" fill="#fbfcfc" d="M 805.5,750.5 C 805.5,751.167 805.5,751.833 805.5,752.5C 733.167,752.5 660.833,752.5 588.5,752.5C 588.5,761.833 588.5,771.167 588.5,780.5C 586.526,770.889 585.859,760.889 586.5,750.5C 659.5,750.5 732.5,750.5 805.5,750.5 Z"/></g>
<g><path style="opacity:1" fill="#7c7e7d" d="M 805.5,750.5 C 732.5,750.5 659.5,750.5 586.5,750.5C 585.859,760.889 586.526,770.889 588.5,780.5C 660.833,780.5 733.167,780.5 805.5,780.5C 732.335,781.499 659.002,781.833 585.5,781.5C 585.5,770.833 585.5,760.167 585.5,749.5C 659.002,749.167 732.335,749.501 805.5,750.5 Z"/></g>
<g><path style="opacity:0.533" fill="#525353" d="M 139.5,478.5 C 139.5,605.167 139.5,731.833 139.5,858.5C 266.167,858.5 392.833,858.5 519.5,858.5C 519.5,731.833 519.5,605.167 519.5,478.5C 520.5,605.666 520.833,732.999 520.5,860.5C 393.167,860.5 265.833,860.5 138.5,860.5C 138.167,732.999 138.5,605.666 139.5,478.5 Z M 485.5,752.5 C 486.494,761.652 486.827,770.985 486.5,780.5C 423.833,780.5 361.167,780.5 298.5,780.5C 298.5,771.167 298.5,761.833 298.5,752.5C 360.833,752.5 423.167,752.5 485.5,752.5 Z M 172.5,630.5 C 172.5,701.167 172.5,771.833 172.5,842.5C 166.5,842.5 160.5,842.5 154.5,842.5C 154.5,771.833 154.5,701.167 154.5,630.5C 160.5,630.5 166.5,630.5 172.5,630.5 Z M 182.5,628.5 C 210.5,628.5 238.5,628.5 266.5,628.5C 266.5,699.833 266.5,771.167 266.5,842.5C 238.5,842.5 210.5,842.5 182.5,842.5C 182.5,771.167 182.5,699.833 182.5,628.5 Z M 466.5,550.5 C 466.5,604.5 466.5,658.5 466.5,712.5C 476.5,712.5 486.5,712.5 496.5,712.5C 496.5,720.167 496.5,727.833 496.5,735.5C 427.833,736.833 359.167,736.833 290.5,735.5C 289.432,734.566 288.099,734.232 286.5,734.5C 286.5,727.167 286.5,719.833 286.5,712.5C 296.5,712.5 306.5,712.5 316.5,712.5C 316.5,658.5 316.5,604.5 316.5,550.5C 366.5,550.5 416.5,550.5 466.5,550.5 Z"/></g>
<g><path style="opacity:0.998" fill="#141615" d="M 139.5,478.5 C 266.167,478.5 392.833,478.5 519.5,478.5C 519.5,605.167 519.5,731.833 519.5,858.5C 392.833,858.5 266.167,858.5 139.5,858.5C 139.5,731.833 139.5,605.167 139.5,478.5 Z M 485.5,752.5 C 486.494,761.652 486.827,770.985 486.5,780.5C 423.833,780.5 361.167,780.5 298.5,780.5C 298.5,771.167 298.5,761.833 298.5,752.5C 360.833,752.5 423.167,752.5 485.5,752.5 Z M 172.5,630.5 C 172.5,701.167 172.5,771.833 172.5,842.5C 166.5,842.5 160.5,842.5 154.5,842.5C 154.5,771.833 154.5,701.167 154.5,630.5C 160.5,630.5 166.5,630.5 172.5,630.5 Z M 182.5,628.5 C 210.5,628.5 238.5,628.5 266.5,628.5C 266.5,699.833 266.5,771.167 266.5,842.5C 238.5,842.5 210.5,842.5 182.5,842.5C 182.5,771.167 182.5,699.833 182.5,628.5 Z M 466.5,550.5 C 466.5,604.5 466.5,658.5 466.5,712.5C 476.5,712.5 486.5,712.5 496.5,712.5C 496.5,720.167 496.5,727.833 496.5,735.5C 427.833,736.833 359.167,736.833 290.5,735.5C 289.432,734.566 288.099,734.232 286.5,734.5C 286.5,727.167 286.5,719.833 286.5,712.5C 296.5,712.5 306.5,712.5 316.5,712.5C 316.5,658.5 316.5,604.5 316.5,550.5C 366.5,550.5 416.5,550.5 466.5,550.5 Z"/></g>
<g><path style="opacity:0.505" fill="#fbfcfc" d="M 485.5,752.5 C 423.167,752.5 360.833,752.5 298.5,752.5C 298.5,761.833 298.5,771.167 298.5,780.5C 296.526,770.889 295.859,760.889 296.5,750.5C 359.842,749.837 422.842,750.504 485.5,752.5 Z"/></g>
<g><path style="opacity:0.078" fill="#f9f9f9" d="M 284.5,712.5 C 285.167,712.5 285.833,712.5 286.5,712.5C 286.5,719.833 286.5,727.167 286.5,734.5C 288.099,734.232 289.432,734.566 290.5,735.5C 288.5,735.5 286.5,735.5 284.5,735.5C 284.5,727.833 284.5,720.167 284.5,712.5 Z"/></g>
<g><path style="opacity:0.695" fill="#d7d7d7" d="M 182.5,628.5 C 182.5,699.833 182.5,771.167 182.5,842.5C 210.5,842.5 238.5,842.5 266.5,842.5C 266.5,771.167 266.5,699.833 266.5,628.5C 267.499,699.998 267.833,771.665 267.5,843.5C 238.5,843.5 209.5,843.5 180.5,843.5C 179.836,771.492 180.503,699.826 182.5,628.5 Z M 182.5,628.5 C 210.5,628.5 238.5,628.5 266.5,628.5C 266.5,699.833 266.5,771.167 266.5,842.5C 238.5,842.5 210.5,842.5 182.5,842.5C 182.5,771.167 182.5,699.833 182.5,628.5 Z"/></g>
<g><path style="opacity:1" fill="#2c2e2d" d="M 172.5,628.5 C 165.5,628.5 158.5,628.5 151.5,628.5C 151.5,700.167 151.5,771.833 151.5,843.5C 150.501,771.669 150.167,699.669 150.5,627.5C 158.019,627.175 165.352,627.508 172.5,628.5 Z"/></g>
<g><path style="opacity:0.041" fill="#e8e8e8" d="M 200.5,738.5 C 203.893,744.576 208.893,746.076 215.5,743C 216.399,741.348 217.399,739.848 218.5,738.5C 219.11,744.722 216.276,747.389 210,746.5C 203.569,747.562 200.402,744.895 200.5,738.5 Z"/></g>
<g><path style="opacity:0.99" fill="#1a1b1a" d="M 206.5,726.5 C 208.167,726.5 209.833,726.5 211.5,726.5C 214.424,727.753 216.757,729.753 218.5,732.5C 218.5,734.5 218.5,736.5 218.5,738.5C 217.399,739.848 216.399,741.348 215.5,743C 208.893,746.076 203.893,744.576 200.5,738.5C 199.167,736.5 199.167,734.5 200.5,732.5C 202.167,730.167 204.167,728.167 206.5,726.5 Z"/></g>
<g><path style="opacity:0.034" fill="#f1f2f2" d="M 206.5,726.5 C 204.167,728.167 202.167,730.167 200.5,732.5C 200.5,728.5 202.5,726.5 206.5,726.5 Z"/></g>
<g><path style="opacity:0.026" fill="#ecedec" d="M 211.5,726.5 C 216.931,725.094 219.265,727.094 218.5,732.5C 216.757,729.753 214.424,727.753 211.5,726.5 Z"/></g>
<g><path style="opacity:0.502" fill="#f9f9f9" d="M 172.5,628.5 C 172.5,629.167 172.5,629.833 172.5,630.5C 166.5,630.5 160.5,630.5 154.5,630.5C 154.5,701.167 154.5,771.833 154.5,842.5C 160.5,842.5 166.5,842.5 172.5,842.5C 165.687,843.491 158.687,843.825 151.5,843.5C 151.5,771.833 151.5,700.167 151.5,628.5C 158.5,628.5 165.5,628.5 172.5,628.5 Z"/></g>
<g><path style="opacity:0.055" fill="#afb0af" d="M 466.5,548.5 C 467.499,602.664 467.832,656.997 467.5,711.5C 477.5,711.5 487.5,711.5 497.5,711.5C 497.826,719.684 497.492,727.684 496.5,735.5C 496.5,727.833 496.5,720.167 496.5,712.5C 486.5,712.5 476.5,712.5 466.5,712.5C 466.5,658.5 466.5,604.5 466.5,550.5C 466.5,549.833 466.5,549.167 466.5,548.5 Z"/></g>
<g><path style="opacity:0.25" fill="#c3c3c3" d="M 447.5,654.5 C 448.497,673.659 448.83,692.993 448.5,712.5C 410.33,712.832 372.33,712.499 334.5,711.5C 334.833,711.5 335.167,711.5 335.5,711.5C 372.5,711.5 409.5,711.5 446.5,711.5C 447.497,692.674 447.83,673.674 447.5,654.5 Z"/></g>
<g><path style="opacity:0.055" fill="#737474" d="M 447.5,654.5 C 447.83,673.674 447.497,692.674 446.5,711.5C 446.5,692.833 446.5,674.167 446.5,655.5C 409.5,655.5 372.5,655.5 335.5,655.5C 335.5,674.167 335.5,692.833 335.5,711.5C 335.167,711.5 334.833,711.5 334.5,711.5C 334.5,692.5 334.5,673.5 334.5,654.5C 372.167,654.5 409.833,654.5 447.5,654.5 Z"/></g>
<g><path style="opacity:0.544" fill="#040605" d="M 446.5,711.5 C 409.5,711.5 372.5,711.5 335.5,711.5C 335.5,692.833 335.5,674.167 335.5,655.5C 372.5,655.5 409.5,655.5 446.5,655.5C 446.5,674.167 446.5,692.833 446.5,711.5 Z"/></g>
<g><path style="opacity:1" fill="#141615" d="M 336.5,656.5 C 372.833,656.5 409.167,656.5 445.5,656.5C 445.5,674.5 445.5,692.5 445.5,710.5C 409.167,710.5 372.833,710.5 336.5,710.5C 336.5,692.5 336.5,674.5 336.5,656.5 Z"/></g>
<g><path style="opacity:0.995" fill="#151716" d="M 446.5,570.5 C 446.5,590.833 446.5,611.167 446.5,631.5C 431.167,631.5 415.833,631.5 400.5,631.5C 400.333,611.497 400.5,591.497 401,571.5C 416.089,570.509 431.255,570.176 446.5,570.5 Z"/></g>
<g><path style="opacity:0.995" fill="#151716" d="M 380.5,570.5 C 380.5,590.833 380.5,611.167 380.5,631.5C 365.167,631.5 349.833,631.5 334.5,631.5C 334.5,611.167 334.5,590.833 334.5,570.5C 349.833,570.5 365.167,570.5 380.5,570.5 Z"/></g>
<g><path style="opacity:0.053" fill="#d3d4d3" d="M 446.5,570.5 C 448.488,590.806 449.155,611.473 448.5,632.5C 432.325,632.83 416.325,632.496 400.5,631.5C 415.833,631.5 431.167,631.5 446.5,631.5C 446.5,611.167 446.5,590.833 446.5,570.5 Z"/></g>
<g><path style="opacity:0.052" fill="#e1e1e1" d="M 380.5,570.5 C 382.488,590.806 383.155,611.473 382.5,632.5C 366.325,632.83 350.325,632.496 334.5,631.5C 349.833,631.5 365.167,631.5 380.5,631.5C 380.5,611.167 380.5,590.833 380.5,570.5 Z"/></g>
<g><path style="opacity:0.057" fill="#f4f5f5" d="M 466.5,548.5 C 466.5,549.167 466.5,549.833 466.5,550.5C 416.5,550.5 366.5,550.5 316.5,550.5C 316.5,604.5 316.5,658.5 316.5,712.5C 306.5,712.5 296.5,712.5 286.5,712.5C 285.833,712.5 285.167,712.5 284.5,712.5C 294.319,711.506 304.319,711.173 314.5,711.5C 314.5,657.167 314.5,602.833 314.5,548.5C 365.167,548.5 415.833,548.5 466.5,548.5 Z"/></g>
</svg>
