<?xml version="1.0" standalone="no"?>
<!DOCTYPE svg PUBLIC "-//W3C//DTD SVG 20010904//EN"
 "http://www.w3.org/TR/2001/REC-SVG-20010904/DTD/svg10.dtd">
<svg version="1.0" xmlns="http://www.w3.org/2000/svg"
 width="512.000000pt" height="512.000000pt" viewBox="0 0 512.000000 512.000000"
 preserveAspectRatio="xMidYMid meet">

<g transform="translate(0.000000,512.000000) scale(0.100000,-0.100000)"
fill="#000000" stroke="none">
<path d="M102 4728 c-17 -17 -17 -4319 0 -4336 17 -17 4899 -17 4916 0 17 17
17 4319 0 4336 -17 17 -4899 17 -4916 0z m1685 -250 l3 -158 -313 0 c-334 0
-337 0 -337 -50 0 -50 3 -50 332 -50 l308 0 0 -72 0 -73 -296 3 c-255 2 -300
0 -320 -13 -30 -20 -33 -70 -5 -85 12 -6 132 -10 320 -10 l301 0 0 -100 0
-100 -795 0 -795 0 0 435 0 435 798 -2 797 -3 2 -157z m725 -159 c-2 -231 1
-325 9 -335 9 -12 94 -14 490 -14 l479 0 0 -32 c0 -56 -37 -210 -64 -272 -38
-86 -109 -179 -179 -236 -151 -124 -397 -200 -643 -200 -50 0 -75 -4 -83 -14
-9 -11 -12 -141 -11 -500 0 -267 3 -493 6 -501 8 -21 48 -29 73 -16 19 11 21
22 23 159 l3 147 1158 3 1157 2 0 -425 0 -425 -635 0 c-622 0 -635 0 -655 -20
-20 -20 -20 -33 -20 -590 l0 -570 -502 2 -503 3 -2 695 c-3 695 -3 695 -24
713 -19 15 -49 17 -303 17 -248 0 -284 -2 -306 -17 -14 -9 -28 -22 -32 -27 -4
-6 -8 -233 -8 -503 0 -463 -1 -493 -17 -493 -44 0 -155 23 -225 46 -297 98
-475 396 -495 833 l-6 123 -31 19 c-17 10 -48 19 -68 19 l-38 0 0 370 0 370
134 0 c109 0 138 3 150 16 20 19 21 58 3 73 -10 8 -183 12 -583 13 l-569 3 -3
453 -2 452 832 0 c760 0 833 1 850 17 17 15 18 44 18 490 l0 473 313 0 312 0
-3 -321z m2418 -694 l0 -1015 -1160 0 -1160 0 0 254 0 254 78 7 c444 36 739
227 856 555 28 78 56 232 56 311 0 83 28 78 -511 81 l-474 3 -5 283 -5 282
1163 0 1162 0 0 -1015z m-3982 -1347 l-3 -373 -355 -3 c-195 -1 -365 0 -377 3
l-23 5 0 370 0 370 380 0 380 0 -2 -372z m152 -556 c0 -158 48 -359 122 -507
136 -273 369 -425 693 -450 81 -6 92 -5 108 12 15 18 17 62 19 519 l3 499 233
3 232 2 0 -660 0 -660 -1160 0 -1160 0 0 660 0 660 455 0 455 0 0 -78z m3770
-186 c-42 -40 -524 -446 -530 -446 -7 0 -476 395 -525 441 -19 19 -8 19 525
19 469 0 542 -2 530 -14z m-862 -309 c133 -114 242 -210 241 -214 -1 -7 -483
-422 -508 -438 -8 -4 -11 126 -11 441 0 425 1 446 18 432 9 -8 126 -108 260
-221z m918 -635 c-3 -2 -107 83 -232 189 -124 107 -237 203 -250 214 l-23 20
252 214 252 213 3 -422 c1 -233 0 -425 -2 -428z m-305 116 l262 -223 -271 -3
c-150 -1 -394 -1 -543 0 l-270 3 268 228 c147 125 273 225 280 222 7 -2 130
-104 274 -227z"/>
<path d="M536 4426 c-47 -18 -94 -60 -112 -103 -9 -21 -14 -71 -14 -140 0
-129 19 -179 83 -221 40 -27 43 -27 207 -27 165 0 167 0 208 28 68 44 84 88
83 226 -1 108 -3 119 -29 160 -44 72 -82 86 -247 88 -101 2 -151 -1 -179 -11z
m325 -115 c22 -17 24 -28 27 -120 4 -96 3 -101 -22 -126 -24 -24 -28 -25 -166
-25 -126 0 -142 2 -160 20 -27 27 -33 57 -28 144 3 62 7 79 27 100 24 25 27
26 162 26 120 0 140 -2 160 -19z"/>
</g>
</svg>
