<?xml version="1.0" encoding="iso-8859-1"?>
<!-- Generator: Adobe Illustrator 17.1.0, SVG Export Plug-In . SVG Version: 6.00 Build 0)  -->
<!DOCTYPE svg PUBLIC "-//W3C//DTD SVG 1.1//EN" "http://www.w3.org/Graphics/SVG/1.1/DTD/svg11.dtd">
<svg version="1.1" id="Capa_1" xmlns="http://www.w3.org/2000/svg" xmlns:xlink="http://www.w3.org/1999/xlink" x="0px" y="0px"
	 viewBox="0 0 267.521 267.521" style="enable-background:new 0 0 267.521 267.521;" xml:space="preserve">
<path style="fill:#222220;" d="M260.021,65.636c4.143,0,7.5-3.358,7.5-7.5v-50c0-4.142-3.357-7.5-7.5-7.5h-50
	c-4.143,0-7.5,3.358-7.5,7.5v17.5H65v-17.5c0-4.142-3.357-7.5-7.5-7.5h-50c-4.143,0-7.5,3.358-7.5,7.5v50c0,4.142,3.357,7.5,7.5,7.5
	H25v136.25H7.5c-4.143,0-7.5,3.358-7.5,7.5v50c0,4.142,3.357,7.5,7.5,7.5h50c4.143,0,7.5-3.358,7.5-7.5v-17.5h137.521v17.5
	c0,4.142,3.357,7.5,7.5,7.5h50c4.143,0,7.5-3.358,7.5-7.5v-50c0-4.142-3.357-7.5-7.5-7.5h-17.5V65.636H260.021z M217.521,15.636h35
	v35h-35V15.636z M15,15.636h35v35H15V15.636z M50,251.886H15v-35h35V251.886z M252.521,251.886h-35v-35h35V251.886z
	 M227.521,201.886h-17.5c-4.143,0-7.5,3.358-7.5,7.5v17.5H65v-17.5c0-4.142-3.357-7.5-7.5-7.5H40V65.636h17.5
	c4.143,0,7.5-3.358,7.5-7.5v-17.5h137.521v17.5c0,4.142,3.357,7.5,7.5,7.5h17.5V201.886z"/>
<g>
</g>
<g>
</g>
<g>
</g>
<g>
</g>
<g>
</g>
<g>
</g>
<g>
</g>
<g>
</g>
<g>
</g>
<g>
</g>
<g>
</g>
<g>
</g>
<g>
</g>
<g>
</g>
<g>
</g>
</svg>
