<?xml version="1.0" standalone="no"?>
<!DOCTYPE svg PUBLIC "-//W3C//DTD SVG 20010904//EN"
 "http://www.w3.org/TR/2001/REC-SVG-20010904/DTD/svg10.dtd">
<svg version="1.0" xmlns="http://www.w3.org/2000/svg"
 width="980.000000pt" height="986.000000pt" viewBox="0 0 980.000000 986.000000"
 preserveAspectRatio="xMidYMid meet">

<g transform="translate(0.000000,986.000000) scale(0.100000,-0.100000)"
fill="#000000" stroke="none">
<path d="M3550 9839 c-275 -8 -368 -20 -444 -53 -82 -37 -104 -90 -126 -316
-26 -275 -32 -847 -37 -4165 -5 -3391 1 -4485 27 -4835 19 -247 48 -367 98
-397 40 -24 200 -44 425 -53 489 -20 2915 -5 3138 19 47 5 105 14 127 20 55
15 135 80 168 137 26 44 28 58 35 203 4 86 13 941 20 1900 17 2388 -6 7037
-36 7298 -8 63 -54 121 -139 172 -78 47 -141 59 -361 71 -216 11 -2529 11
-2895 -1z m2973 -218 c86 -5 166 -13 177 -16 26 -8 40 -57 52 -183 7 -71 12
-1422 15 -3994 l4 -3888 -230 0 -231 0 0 3519 0 3518 -84 81 c-90 87 -120 106
-187 121 -100 23 -211 -25 -472 -202 -263 -179 -280 -186 -358 -146 -35 18
-45 19 -70 8 -35 -14 -79 -63 -79 -87 0 -40 103 -164 205 -248 113 -92 195
-81 195 26 0 101 21 125 274 314 194 145 198 148 233 144 54 -6 80 -82 104
-308 10 -88 13 -896 16 -3427 l4 -3313 -1482 0 -1481 0 5 3773 c5 3714 8 4062
38 4205 18 88 54 100 329 112 253 11 2827 3 3023 -9z m245 -8788 c-3 -515 -5
-533 -51 -571 -32 -27 -306 -33 -1612 -39 -1343 -5 -1769 2 -1864 29 -53 16
-77 46 -92 113 -6 30 -13 235 -16 503 l-5 452 1822 0 1822 0 -4 -487z"/>
<path d="M3706 5307 c-28 -20 -35 -126 -35 -512 -1 -343 6 -447 33 -474 8 -8
34 -15 57 -15 37 -1 46 3 65 31 33 49 45 136 51 368 5 210 -7 455 -27 527 -19
68 -97 109 -144 75z"/>
<path d="M8110 9013 c-43 -22 -76 -79 -66 -114 4 -13 26 -38 49 -54 62 -45 65
-68 66 -427 l1 -308 -87 0 c-160 -1 -347 -17 -385 -33 -47 -20 -65 -54 -52
-99 18 -63 0 -62 1049 -62 517 -1 971 3 1008 7 78 10 107 30 107 76 0 17 -10
41 -22 56 -21 24 -32 26 -148 35 -69 5 -378 12 -688 16 l-563 7 3 326 c2 247
6 332 16 349 7 13 33 32 58 42 53 23 68 53 55 112 -5 22 -14 45 -19 50 -17 17
-84 27 -217 33 -114 6 -134 4 -165 -12z"/>
<path d="M320 8591 c-165 -23 -194 -63 -210 -293 -13 -187 -13 -2120 0 -2307
11 -166 25 -206 80 -233 73 -36 208 -41 970 -41 932 0 977 5 1008 99 26 78 33
409 30 1542 l-3 1144 -55 34 c-30 18 -77 39 -105 45 -57 14 -1622 22 -1715 10z
m1700 -749 c0 -302 -3 -860 -7 -1240 l-6 -692 -859 0 -859 0 3 1224 c2 673 6
1228 10 1232 14 14 340 21 1031 22 l687 2 0 -548z"/>
<path d="M7952 7271 c-81 -10 -106 -32 -99 -85 7 -52 41 -83 102 -96 140 -30
1087 -20 1154 13 56 27 65 113 13 136 -15 7 -65 17 -112 22 -114 12 -978 20
-1058 10z"/>
<path d="M7840 6660 l0 -92 463 7 c521 7 772 18 811 36 21 10 26 19 26 50 0
33 -4 38 -32 49 -47 16 -318 28 -825 35 l-443 6 0 -91z"/>
<path d="M7630 6127 l0 -87 578 0 c731 1 1441 15 1509 30 28 6 57 18 63 26 19
22 3 63 -28 75 -54 21 -324 29 -1214 35 l-908 7 0 -86z"/>
<path d="M540 5079 c-61 -12 -82 -35 -82 -91 0 -57 17 -84 64 -103 55 -21 73
-56 73 -137 0 -98 -1 -98 -186 -108 -236 -13 -315 -48 -374 -165 -29 -58 -30
-65 -28 -185 2 -203 65 -447 154 -596 19 -32 79 -104 133 -161 l100 -104 -19
-1187 c-27 -1805 -25 -2017 25 -2129 43 -97 115 -107 715 -100 466 6 566 13
640 46 56 25 73 59 85 164 13 107 13 1169 0 1777 -12 618 -29 1246 -35 1336
l-5 71 91 99 c150 163 220 286 264 459 42 164 58 434 31 500 -18 43 -96 119
-150 147 -30 15 -71 23 -151 29 -129 9 -110 6 -129 25 -12 11 -16 35 -15 92 1
97 7 112 54 137 46 24 62 67 45 120 -17 50 -76 70 -210 70 -119 0 -186 -19
-220 -62 -40 -51 -22 -95 48 -123 52 -20 62 -45 65 -156 l2 -99 -372 -3 -373
-2 0 104 c0 89 3 107 21 130 11 14 27 26 36 26 27 0 83 65 83 97 0 54 -19 67
-122 80 -107 14 -194 15 -258 2z m1215 -658 c238 -12 232 -10 240 -74 10 -80
-12 -250 -46 -352 -37 -110 -86 -194 -175 -300 -37 -44 -84 -107 -105 -139
l-39 -59 0 -616 c0 -890 21 -2073 46 -2543 l6 -118 -567 0 -567 0 6 268 c14
584 28 1688 29 2242 1 503 -1 599 -15 685 -9 55 -24 117 -33 138 -9 21 -58 83
-110 138 -137 145 -177 236 -211 487 -15 111 -16 134 -4 162 19 45 77 69 192
79 127 11 1130 12 1353 2z"/>
<path d="M8460 4375 c-175 -43 -355 -175 -466 -341 -128 -192 -178 -395 -179
-719 0 -300 35 -423 187 -652 55 -84 86 -139 80 -145 -5 -5 -85 -13 -178 -17
-118 -5 -180 -13 -206 -24 -48 -20 -132 -98 -152 -142 -57 -119 47 -458 203
-665 48 -64 146 -162 268 -270 l62 -55 -65 -320 c-101 -504 -117 -604 -118
-745 -1 -140 10 -175 72 -216 57 -39 250 -53 713 -54 518 0 608 15 657 110 22
42 23 53 18 160 -6 133 -22 229 -117 699 -38 189 -69 349 -69 355 0 6 47 51
105 100 112 95 178 166 242 261 127 188 214 464 192 607 -23 147 -134 197
-432 198 l-157 0 74 92 c171 212 249 450 248 763 -2 463 -196 814 -536 970
-134 62 -315 82 -446 50z m374 -234 c79 -38 190 -139 246 -221 186 -274 219
-660 84 -983 -38 -90 -125 -216 -193 -280 -119 -109 -228 -152 -372 -145 -81
4 -96 8 -176 48 -251 128 -422 444 -423 781 0 347 155 654 393 776 101 51 153
63 267 60 97 -2 111 -5 174 -36z m406 -1861 c241 -11 274 -16 278 -48 10 -66
-76 -273 -170 -410 -68 -98 -235 -267 -315 -318 -34 -21 -68 -43 -76 -49 -14
-9 -10 -39 29 -235 88 -447 175 -926 172 -949 -2 -17 -12 -28 -33 -34 -17 -6
-254 -12 -549 -14 l-519 -5 5 24 c3 12 58 282 122 598 65 316 119 583 122 592
4 12 -14 29 -63 62 -218 144 -412 377 -480 576 -16 45 -23 89 -23 143 l0 77
643 0 c353 -1 739 -5 857 -10z"/>
</g>
</svg>
